
<svg xmlns="http://www.w3.org/2000/svg" version="1.1" xmlns:xlink="http://www.w3.org/1999/xlink" preserveAspectRatio="none" x="0px" y="0px" width="550px" height="400px" viewBox="0 0 550 400">
<defs>
<g id="gateways_EventBasedGateway_0_Layer0_0_FILL">
<path fill="#333333" fill-opacity="0" stroke="none" d="
M 13.35 6.75
L 13.5 6.4 8.35 2.8 3.35 6.55 3.5 7.05 3.5 7.1
Q 4.45 9.75 5.4 12.45
L 11.65 12.4 13.35 6.75
M 13.1 6.8
L 11.45 12.25 5.75 12.35 5.6 11.85
Q 4.75 9.4 3.95 7
L 4 6.95 8.45 3.55 13.1 6.8
M 11.45 12.25
L 13.1 6.8 8.45 3.55 4 6.95 3.95 7
Q 4.75 9.4 5.6 11.85
L 5.75 12.35 11.45 12.25 Z"/>
</g>

<g id="gateways_InclusiveGateway_0_Layer0_0_FILL">
<path fill="#333333" fill-opacity="0" stroke="none" d="
M 13.35 6.75
L 13.5 6.4 8.35 2.8 3.35 6.55 3.5 7.05 3.5 7.1
Q 4.45 9.75 5.4 12.45
L 11.65 12.4 13.35 6.75 Z"/>
</g>

<g id="gateways_ComplexGateway_0_Layer0_0_FILL">
<path fill="#000000" stroke="none" d="
M 20.35 8.5
Q 20.35 7.9 20.25 7.3
L 14.8 7.3 18.7 3.4
Q 18.35 2.95 17.85 2.45 17.45 2.05 16.95 1.65
L 13.1 5.5 13.1 0.1
Q 12.5 0 11.85 0 11.25 0 10.65 0.1
L 10.65 5.55 6.75 1.65
Q 6.25 2.05 5.85 2.45 5.4 2.9 5 3.4
L 8.9 7.3 3.4 7.3
Q 3.35 7.9 3.35 8.5 3.35 9.15 3.4 9.75
L 8.85 9.75 5 13.6
Q 5.45 14.05 5.85 14.45 6.35 14.95 6.75 15.35
L 10.65 11.45 10.65 16.95
Q 11.25 17 11.85 17 12.5 17 13.1 16.95
L 13.1 11.5 16.9 15.3
Q 17.45 14.95 17.9 14.5 18.3 14.1 18.65 13.55
L 14.85 9.75 20.25 9.75
Q 20.35 9.15 20.35 8.5 Z"/>
</g>

<g id="gateways_ParallelGateway_0_Layer0_0_FILL">
<path fill="#000000" stroke="none" d="
M 10.3 10.25
L 16.65 10.25 16.65 6.35 10.3 6.35 10.3 0 6.4 0 6.4 6.35 0 6.35 0 10.25 6.4 10.25 6.4 16.65 10.3 16.65 10.3 10.25 Z"/>
</g>

<g id="gateways_ExclusiveGateway_0_Layer0_0_FILL">
<path fill="#000000" stroke="none" d="
M 14.55 2.8
L 11.8 0.05 7.3 4.55 2.75 0 0 2.75 4.55 7.3 0.05 11.8 2.8 14.55 7.3 10.05 11.75 14.5 14.5 11.75 10.05 7.3 14.55 2.8 Z"/>
</g>

<g id="process_AdhocProcess_0_Layer0_0_FILL">
<path fill="#FFFFFF" fill-opacity="0" stroke="none" d="
M 0 20
L 20 20 20 0 0 0 0 20 Z"/>
</g>

<g id="process_AdhocProcess_0_Layer0_1_FILL">
<path fill="#FFFFFF" fill-opacity="0" stroke="none" d="
M 0 20
L 20 20 20 0 0 0 0 20 Z"/>
</g>

<g id="process_AdhocProcess_0_Layer0_1_MEMBER_0_FILL">
<path fill="#000000" stroke="none" d="
M 18.65 4.5
L 18.65 2.75
Q 16.3 0.85 13.8 2.6 11.35 4.4 8.85 2.75
L 8.85 4.45
Q 11.35 6.35 13.8 4.6 16.3 2.75 18.65 4.5 Z"/>
</g>

<g id="process_EmbeddedProcess_0_Layer0_0_FILL">
<path fill="#FFFFFF" fill-opacity="0" stroke="none" d="
M 20 20
L 20 0 0 0 0 20 20 20 Z"/>
</g>

<g id="process_EmbeddedProcess_0_Layer0_1_FILL">
<path fill="#FFFFFF" fill-opacity="0" stroke="none" d="
M 20 10
L 20 0 10 0 10 10 20 10 Z"/>
</g>

<g id="process_EmbeddedProcess_0_Layer0_1_MEMBER_0_FILL">
<path fill="#D6D6D6" fill-opacity="0" stroke="none" d="
M 15 9.35
Q 16.75 9.35 18 8.1 19.25 6.85 19.25 5.1 19.25 3.35 18 2.15 16.75 0.9 15 0.9 13.25 0.9 12 2.15 10.8 3.35 10.8 5.1 10.8 6.85 12 8.1 13.25 9.35 15 9.35 Z"/>
</g>

<g id="process_ReferenceProcess_0_Layer0_0_FILL">
<path fill="#FFFFFF" fill-opacity="0" stroke="none" d="
M 20 20
L 20 0 0 0 0 20 20 20 Z"/>
</g>

<g id="process_ReferenceProcess_0_Layer0_1_FILL">
<path fill="#FFFFFF" fill-opacity="0" stroke="none" d="
M 20 20
L 20 0 0 0 0 20 20 20 Z"/>
</g>

<g id="process_ReusableProcess_0_Layer0_0_FILL">
<path fill="#FFFFFF" fill-opacity="0" stroke="none" d="
M 0 20
L 20 20 20 0 0 0 0 20 Z"/>
</g>

<g id="process_ReusableProcess_0_Layer0_1_FILL">
<path fill="#FFFFFF" fill-opacity="0" stroke="none" d="
M 20 10
L 20 0 10 0 10 10 20 10 Z"/>
</g>

<g id="task_TaskManual_0_Layer0_0_FILL">
<path fill="#FFFFFF" fill-opacity="0" stroke="none" d="
M 0 20
L 20 20 20 0 0 0 0 20 Z"/>
</g>

<g id="task_TaskManual_0_Layer0_0_MEMBER_1_FILL">
<path fill="#FFFFFF" fill-opacity="0.5333333333333333" stroke="none" d="
M 18.7 5.95
Q 20.35 4.9 19.05 4.25
L 12.2 4.25 9.3 4.25 12.2 4.25
Q 14.15 3.35 13.1 2.5
L 7.3 2.5 4.9 4.15 4.9 10.3 6.35 11.55 16.55 11.55
Q 18.2 10.2 16.65 9.9
L 12.55 9.9 16.65 9.9
Q 19 9.3 18 8.05
L 12.55 8.05 18 8.05
Q 20.05 7.4 18.7 5.95
L 12.25 5.95 18.7 5.95 Z"/>
</g>

<g id="task_TaskReceive_0_Layer0_0_FILL">
<path fill="#FFFFFF" fill-opacity="0" stroke="none" d="
M 20 0
L 0 0 0 20 20 20 20 0 Z"/>
</g>

<g id="task_TaskReceive_0_Layer0_0_MEMBER_0_FILL">
<path fill="#FFFFFF" fill-opacity="0.4980392156862745" stroke="none" d="
M 18.05 10
L 18.05 4.4
Q 18.05 2.15 16.3 2.15
L 7.75 2.15
Q 6.05 2.15 6.05 4.4
L 6.05 10
Q 6.05 12.2 7.75 12.2
L 16.3 12.2
Q 18.05 12.2 18.05 10
M 17.35 3.15
L 12.2 7.2 6.75 3.05 12.2 7.2 17.35 3.15 Z"/>
</g>

<g id="task_TaskReference_0_Layer0_0_FILL">
<path fill="#FFFFFF" fill-opacity="0" stroke="none" d="
M 20 20
L 20 0 0 0 0 20 20 20 Z"/>
</g>

<g id="task_TaskScript_0_Layer0_0_FILL">
<path fill="#FFFFFF" fill-opacity="0" stroke="none" d="
M 20 20
L 20 0 0 0 0 20 20 20 Z"/>
</g>

<g id="task_TaskScript_0_Layer0_0_MEMBER_0_FILL">
<path fill="#FFFFFF" fill-opacity="0.5333333333333333" stroke="none" d="
M 18.15 8.3
Q 15.685546875 4.8 18 2.1
L 6 2.1
Q 3.56796875 4.8 5.95 8.55 8.1380859375 11.892578125 6 14.05
L 18 14.05
Q 20.553125 11.65 18.15 8.3
M 15.7 8.25
L 8.1 8.25 15.7 8.25
M 16.75 11.7
L 9.15 11.7 16.75 11.7
M 15.1 4.75
L 7.5 4.75 15.1 4.75 Z"/>
</g>

<g id="task_TaskSend_0_Layer0_0_FILL">
<path fill="#FFFFFF" fill-opacity="0" stroke="none" d="
M 20 0
L 0 0 0 20 20 20 20 0 Z"/>
</g>

<g id="task_TaskSend_0_Layer0_0_MEMBER_0_FILL">
<path fill="#000000" stroke="none" d="
M 17.65 5.15
Q 17.65 4.5384765625 17.5 4.1 17.4708984375 4.2595703125 17.3 4.35
L 12.2 8.35
Q 12.0578125 8.4986328125 11.85 8.5 11.6560546875 8.4990234375 11.5 8.35
L 6.05 4.3
Q 5.86171875 4.1974609375 5.8 4 5.65 4.4677734375 5.65 5.15
L 5.65 10.75
Q 5.65 12.95 7.35 12.95
L 15.95 12.95
Q 17.65 12.95 17.65 10.75
L 17.65 5.15
M 17 3.3
Q 17.05859375 3.3041015625 17.1 3.3 16.6744140625 2.9 15.95 2.9
L 7.35 2.9
Q 6.67265625 2.9 6.25 3.25
L 6.3 3.25
Q 6.5474609375 3.220703125 6.75 3.35
L 11.8 7.15 16.55 3.4
Q 16.775390625 3.2708984375 17 3.3 Z"/>
</g>

<g id="task_TaskService_0_Layer0_0_FILL">
<path fill="#FFFFFF" fill-opacity="0" stroke="none" d="
M 20 20
L 20 0 0 0 0 20 20 20 Z"/>
</g>

<g id="task_TaskService_0_Layer0_0_MEMBER_0_MEMBER_0_MEMBER_0_FILL">
<path fill="#FFFFFF" fill-opacity="0.5333333333333333" stroke="none" d="
M 17.15 4.8
Q 16.8 4.25 16.25 3.75 15.75 3.25 15.2 2.85
L 14.1 4.05
Q 13.7 3.75 13.3 3.65
L 13.3 2.15
Q 12.65 2 12.05 2 11.3 2 10.6 2.15
L 10.6 3.7
Q 10.25 3.85 9.9 4.05
L 8.85 2.95
Q 8.25 3.3 7.75 3.75 7.25 4.25 6.95 4.85
L 8.1 6.1
Q 8 6.35 7.9 6.6
L 6.2 6.6
Q 6.05 7.25 6.05 8 6.05 8.75 6.2 9.45
L 7.9 9.45
Q 8.05 9.85 8.25 10.25
L 7.1 11.45
Q 7.4 11.8 7.75 12.2 8.4 12.85 9.15 13.25
L 10.2 12.15
Q 10.4 12.25 10.6 12.3
L 10.6 13.85
Q 11.3 14 12.05 14 12.65 14 13.3 13.85
L 13.3 12.4
Q 13.55 12.3 13.8 12.15
L 14.85 13.3
Q 15.6 12.9 16.25 12.2 16.65 11.85 16.9 11.5
L 15.75 10.25
Q 15.95 9.85 16.1 9.45
L 17.85 9.45
Q 18.05 8.75 18.05 8 18.05 7.25 17.9 6.6
L 16.1 6.6
Q 16 6.35 15.9 6.1
L 17.15 4.8
M 13.65 8.05
Q 13.65 8.8 13.1 9.3 12.6 9.85 11.85 9.85 11.1 9.85 10.55 9.3 10.05 8.8 10.05 8.05 10.05 7.3 10.55 6.75 11.1 6.25 11.85 6.25 12.6 6.25 13.1 6.75 13.65 7.3 13.65 8.05
M 13.1 9.3
Q 13.65 8.8 13.65 8.05 13.65 7.3 13.1 6.75 12.6 6.25 11.85 6.25 11.1 6.25 10.55 6.75 10.05 7.3 10.05 8.05 10.05 8.8 10.55 9.3 11.1 9.85 11.85 9.85 12.6 9.85 13.1 9.3 Z"/>
</g>

<g id="task_TaskService_0_Layer0_0_MEMBER_0_MEMBER_1_MEMBER_0_FILL">
<path fill="#FFFFFF" fill-opacity="0.6980392156862745" stroke="none" d="
M 14.3 5.1
Q 13.7 5 13.2 5 12.55 5 11.95 5.1
L 11.95 6.45
Q 11.6 6.6 11.3 6.8
L 10.4 5.8
Q 9.9 6.1 9.45 6.5 9 6.95 8.75 7.45
L 9.75 8.55
Q 9.65 8.8 9.6 9
L 8.1 9
Q 7.95 9.55 7.95 10.2 7.95 10.85 8.1 11.5
L 9.6 11.5
Q 9.7 11.85 9.9 12.15
L 8.9 13.2
Q 9.15 13.5 9.45 13.85 10 14.45 10.65 14.8
L 11.6 13.85
Q 11.75 13.9 11.95 13.95
L 11.95 15.3
Q 12.55 15.45 13.2 15.45 13.7 15.45 14.3 15.3
L 14.3 14.05
Q 14.5 13.95 14.7 13.85
L 15.65 14.85
Q 16.3 14.5 16.85 13.85 17.2 13.55 17.4 13.25
L 16.4 12.15
Q 16.6 11.85 16.7 11.5
L 18.25 11.5
Q 18.4 10.85 18.4 10.2 18.4 9.55 18.3 9
L 16.7 9
Q 16.65 8.8 16.55 8.55
L 17.65 7.45
Q 17.35 6.95 16.85 6.5 16.4 6.1 15.95 5.75
L 15 6.8
Q 14.65 6.5 14.3 6.45
L 14.3 5.1
M 13 8.7
Q 13.65 8.7 14.1 9.15 14.6 9.6 14.6 10.25 14.6 10.9 14.1 11.35 13.65 11.85 13 11.85 12.35 11.85 11.9 11.35 11.45 10.9 11.45 10.25 11.45 9.6 11.9 9.15 12.35 8.7 13 8.7 Z"/>
</g>

<g id="task_TaskUser_0_Layer0_0_FILL">
<path fill="#FFFFFF" fill-opacity="0" stroke="none" d="
M 20 20
L 20 0 0 0 0 20 20 20 Z"/>
</g>

<g id="task_TaskUser_0_Layer0_0_MEMBER_1_FILL">
<path fill="#000000" stroke="none" d="
M 15.55 3.4
Q 15.35 2.35 14.5 1.3 12.2 -0.3 10.4 0.8 8.55 1.9 8.7 3.7 8.7 4.45 8.95 5.05 9.2 2.85 15.55 3.4 Z"/>

<path fill="#FFFFFF" fill-opacity="0.4" stroke="none" d="
M 10.5 8.7
Q 11.3 9.35 12.3 9.4 13.35 9.4 14.1 8.75 14.9 8.05 14.95 6.8
L 14.5 6.5
Q 15.8 4.95 15.55 3.4 9.2 2.85 8.95 5.05 9.25 5.7 10.15 6.3
L 9.45 6.8
Q 9.65 7.95 10.5 8.7 Z"/>

<path fill="#FFFFFF" fill-opacity="0.6" stroke="none" d="
M 12.3 9.4
Q 11.3 9.35 10.5 8.7 9.65 7.95 9.45 6.8 6.8 7.4 4.35 10.05
L 4.35 14.2 7.55 14.2 7.6 12 7.55 14.2 16.35 14.2 16.15 11.85 16.35 14.2 19.5 14.2 19.5 9.75
Q 17.3 7.2 14.95 6.8 14.9 8.05 14.1 8.75 13.35 9.4 12.3 9.4 Z"/>
</g>

<g id="events_Cancel_0_Layer0_0_MEMBER_0_FILL">
<path fill="#FFFFFF" fill-opacity="0" stroke="none" d="
M 0 0
L 0 16.45 16.45 16.45 16.45 0 0 0 Z"/>
</g>

<g id="events_Compensation_0_Layer0_0_MEMBER_0_FILL">
<path fill="#000000" stroke="none" d="
M -40.85 4.6
L -34.5 11.7 -34.5 -2.8 -40.85 4.6
M -40.85 11.85
L -40.85 4.6 -40.85 -2.65 -47.2 4.75 -40.85 11.85 Z"/>
</g>

<g id="events_Error_0_Layer0_0_MEMBER_0_FILL">
<path fill="#FFFFFF" fill-opacity="0" stroke="none" d="
M 0 16.45
L 16.45 16.45 16.45 0 0 0 0 16.45 Z"/>
</g>

<g id="events_Error_0_Layer0_0_MEMBER_0_MEMBER_0_MEMBER_0_FILL">
<path fill="#000000" stroke="none" d="
M -26.8 12.6
L -37.7 21.8 -34.25 21.15 -39.5 27.4 -28.15 17.9 -31.6 18.5 -26.8 12.6 Z"/>
</g>

<g id="events_Link_0_Layer0_0_MEMBER_0_FILL">
<path fill="#000000" stroke="none" d="
M 10.05 4.25
L 10.05 2.1 3.05 10.2 10.05 18 10.05 15.6 15.15 15.6 15.15 4.25 10.05 4.25 Z"/>
</g>

<g id="events_MessageFilled_0_Layer0_0_MEMBER_0_FILL">
<path fill="#FFFFFF" fill-opacity="0" stroke="none" d="
M 12.65 -1.2
L 1.65 -1.2
Q -1.2 -1.3 -1.2 2.35
L -1.2 9.6
Q -1.2 13.1 1.65 13.05
L 12.65 13.05
Q 15.5 13.1 15.5 9.6
L 15.5 2.35
Q 15.5 -1.3 12.65 -1.2
M 14.2 2.35
L 14.2 9.6
Q 14.2 11.7 12.65 11.75
L 1.65 11.75
Q 0.1 11.7 0.1 9.6
L 0.1 2.35
Q 0.1 1.75 0.2 1.35
L 7 6.5
Q 7.2 6.6 7.4 6.6 7.6 6.6 7.8 6.45
L 14.15 1.5
Q 14.2 1.85 14.2 2.35
M 12.65 0.1
Q 13.15 0.1 13.5 0.35
L 7.4 5.15 1 0.3
Q 1.25 0.1 1.65 0.1
L 12.65 0.1 Z"/>

<path fill="#000000" stroke="none" d="
M 13.5 0.35
Q 13.15 0.1 12.65 0.1
L 1.65 0.1
Q 1.25 0.1 1 0.3
L 7.4 5.15 13.5 0.35
M 14.2 9.6
L 14.2 2.35
Q 14.2 1.85 14.15 1.5
L 7.8 6.45
Q 7.6 6.6 7.4 6.6 7.2 6.6 7 6.5
L 0.2 1.35
Q 0.1 1.75 0.1 2.35
L 0.1 9.6
Q 0.1 11.7 1.65 11.75
L 12.65 11.75
Q 14.2 11.7 14.2 9.6 Z"/>
</g>

<g id="events_MultipleFilled_0_Layer0_0_MEMBER_0_FILL">
<path fill="#000000" stroke="none" d="
M 17.25 6
L 8.6 0 0 5.95 3.3 15.6 13.9 15.6 17.25 6 Z"/>
</g>

<g id="events_Terminate_0_Layer0_0_MEMBER_0_FILL">
<path fill="#000000" stroke="none" d="
M 7 0
Q 4.1 0 2 2 0 4.1 0 7 0 9.85 2 11.9 4.1 14 7 14 9.85 14 11.9 11.9 14 9.85 14 7 14 4.1 11.9 2 9.85 0 7 0 Z"/>
</g>

<g id="events_Timer_0_Layer0_0_FILL">
<path fill="#000000" stroke="none" d="
M 16.95 4.8
L 16.95 4.75
Q 16.35 3.6 15.35 2.6
L 15.3 2.6 15.3 2.55
Q 14.5 1.8 13.6 1.25
L 13.55 1.2
Q 11.5 0 9 0 6.25 0 4.1 1.45
L 4.05 1.45
Q 3.3 1.9 2.6 2.55
L 2.6 2.6
Q 1.55 3.7 1 4.9 0 6.75 0 9 0 9.15 0 9.35
L 0 9.4
Q 0.1 11.95 1.5 14 1.95 14.65 2.6 15.35 3.6 16.35 4.75 16.95
L 4.8 16.95
Q 6.7 18 9 18 11.35 18 13.4 16.85 14.4 16.25 15.35 15.3
L 15.35 15.35
Q 16.15 14.5 16.75 13.6 17.95 11.65 18 9.3
L 18 9.25
Q 18 9.1 18 9 18 6.7 16.95 4.8
M 13 3.05
Q 13.5 3.4 14 3.9 14.7 4.6 15.15 5.35
L 13.95 6.05 14.3 6.65 15.5 5.95
Q 16.15 7.35 16.15 8.9
L 14.75 8.9 14.75 9.6 16.15 9.6
Q 16.05 11.1 15.3 12.35
L 14.1 11.7 13.75 12.35 14.95 13
Q 14.5 13.5 14 14 13.4 14.65 12.75 15.05
L 12 13.9 11.4 14.25 12.1 15.4
Q 10.85 16.1 9.35 16.15
L 9.35 14.75 8.65 14.75 8.65 16.15
Q 7.2 16.1 6 15.5
L 6.65 14.3 6.05 13.95 5.35 15.15
Q 4.55 14.7 3.9 14 3.5 13.6 3.25 13.35
L 4.45 12.6 4.05 12 2.9 12.75
Q 2 11.35 1.9 9.7
L 3.25 9.7 3.25 9 1.85 9
Q 1.85 7.4 2.5 6.05
L 3.7 6.7 4 6.1 2.75 5.4
Q 3.15 4.65 3.85 3.9
L 3.9 3.85
Q 4.4 3.5 4.8 3.15
L 5.5 4.35 6.05 4 5.35 2.85
Q 6.8 1.9 8.65 1.85
L 8.65 3.25 9.35 3.25 9.35 1.85
Q 10.95 1.9 12.35 2.65
L 11.7 3.9 12.35 4.2 13 3.05 Z"/>
</g>

<path id="gateways_EventBasedGateway_0_Layer0_0_1_STROKES" stroke="#000000" stroke-width="1.1" stroke-linejoin="miter" stroke-linecap="square" stroke-miterlimit="3" fill="none" d="
M 16.95 8.5
Q 16.95 12 14.45 14.45 11.95 17 8.45 17 4.95 17 2.45 14.45 -0.05 12 -0.05 8.5 -0.05 4.95 2.45 2.45 4.95 0 8.45 0 11.95 0 14.45 2.45 16.95 4.95 16.95 8.5 Z
M 15 8.5
Q 15 11.15 13.1 13.1 11.15 15 8.45 15 5.8 15 3.85 13.1 1.95 11.15 1.95 8.5 1.95 5.8 3.85 3.85 5.8 1.95 8.45 1.95 11.15 1.95 13.1 3.85 15 5.8 15 8.5 Z"/>

<path id="gateways_EventBasedGateway_0_Layer0_0_2_STROKES" stroke="#000000" stroke-width="1" stroke-linejoin="miter" stroke-linecap="square" stroke-miterlimit="3" fill="none" d="
M 11.45 12.25
L 5.75 12.35 5.6 11.85
Q 4.75 9.4 3.95 7
L 4 6.95 8.45 3.55 13.1 6.8 11.45 12.25 Z"/>

<path id="gateways_InclusiveGateway_0_Layer0_0_1_STROKES" stroke="#000000" stroke-width="1.6" stroke-linejoin="miter" stroke-linecap="square" stroke-miterlimit="3" fill="none" d="
M 16.95 8.5
Q 16.95 12 14.45 14.45 11.95 17 8.45 17 4.95 17 2.45 14.45 -0.05 12 -0.05 8.5 -0.05 4.95 2.45 2.45 4.95 0 8.45 0 11.95 0 14.45 2.45 16.95 4.95 16.95 8.5 Z"/>

<path id="process_EmbeddedProcess_0_Layer0_1_MEMBER_0_1_STROKES" stroke="#000000" stroke-width="1" stroke-linejoin="miter" stroke-linecap="square" stroke-miterlimit="3" fill="none" d="
M 12.500457763671875 14.025285339355468
Q 9.875404357910156 14.025285339355468 8.0003662109375 12.150247192382812 6.200329589843751 10.275209045410156 6.200329589843751 7.650155639648437 6.200329589843751 5.025102233886719 8.0003662109375 3.2250656127929687 9.875404357910156 1.3500274658203126 12.500457763671875 1.3500274658203126 15.125511169433594 1.3500274658203126 17.00054931640625 3.2250656127929687 18.875587463378906 5.025102233886719 18.875587463378906 7.650155639648437 18.875587463378906 10.275209045410156 17.00054931640625 12.150247192382812 15.125511169433594 14.025285339355468 12.500457763671875 14.025285339355468 Z"/>

<path id="process_ReferenceProcess_0_Layer0_1_MEMBER_0_MEMBER_0_1_STROKES" stroke="#000000" stroke-width="1" stroke-linejoin="round" stroke-linecap="round" fill="none" d="
M 13.94234390258789 1.5998962402343748
L 18.99937744140625 1.5998962402343748 18.99937744140625 7.171204376220703
M 18.99937744140625 1.5998962402343748
L 6.999636840820312 13.599636840820313"/>

<path id="process_ReusableProcess_0_Layer0_1_MEMBER_0_1_STROKES" stroke="#000000" stroke-width="1" stroke-linejoin="bevel" stroke-linecap="square" fill="none" d="
M 17.675563049316406 3.6750747680664064
L 17.675563049316406 5.550112915039063 16.100531005859374 5.550112915039063
M 7.925364685058593 5.325108337402344
Q 8.22537078857422 4.875099182128906 8.600378417968752 4.425090026855469 10.325413513183594 2.7750564575195313 12.725462341308596 2.7750564575195313 15.050509643554687 2.7750564575195313 16.775544738769533 4.425090026855469 17.150552368164064 4.875099182128906 17.450558471679688 5.325108337402344 17.525559997558595 5.4001098632812505 17.675563049316406 5.550112915039063
M 7.775361633300779 9.525193786621093
L 7.775361633300779 11.40023193359375
M 7.775361633300779 9.525193786621093
L 9.350393676757815 9.525193786621093
M 17.525559997558595 9.750198364257812
Q 17.225553894042967 10.200207519531249 16.775544738769533 10.650216674804687 15.125511169433594 12.300250244140624 12.725462341308596 12.300250244140624 10.325413513183594 12.300250244140624 8.675379943847656 10.650216674804687 8.22537078857422 10.200207519531249 7.925364685058593 9.750198364257812 7.85036315917969 9.675196838378907 7.775361633300779 9.525193786621093"/>

<path id="task_TaskManual_0_Layer0_0_MEMBER_0_1_STROKES" stroke="#FFFFFF" stroke-opacity="0" stroke-width="1" stroke-linejoin="round" stroke-linecap="round" fill="none" d="
M 8.3 9.4
Q 8.45 8.7 9 7.7 9.4 6.65 9.15 5.9 8.95 5 7.85 4.75 6.35 4.45 6.9 3.45 7.5 2.5 8.75 3 10.25 3.6 10.85 5.15 11.3 6.25 12.8 5.45 14.25 4.6 15.65 2.75 17.05 0.85 18.15 1.25 19.3 1.7 18.25 3.35 17.15 5 14.75 6.4 16.05 6.55 15.75 8.9 16.75 9.45 15.9 10.9 14.7 12.95 10.45 13.05
M 10.7 13.3
Q 11.05 14.15 9.75 13.95 7.35 12.75 6.85 9.75 7.45 8.5 8.3 9.4 9 12.4 10.2 13"/>

<path id="task_TaskManual_0_Layer0_0_MEMBER_1_1_STROKES" stroke="#000000" stroke-width="1" stroke-linejoin="round" stroke-linecap="round" fill="none" d="
M 18.7 5.95
Q 20.05 7.4 18 8.05 19 9.3 16.65 9.9 18.2 10.2 16.55 11.55
L 6.35 11.55 4.9 10.3 4.9 4.15 7.3 2.5 13.1 2.5
Q 14.15 3.35 12.2 4.25
L 19.05 4.25
Q 20.35 4.9 18.7 5.95
L 12.25 5.95
M 16.65 9.9
L 12.55 9.9
M 12.55 8.05
L 18 8.05
M 9.3 4.25
L 12.2 4.25"/>

<path id="task_TaskReceive_0_Layer0_0_MEMBER_0_1_STROKES" stroke="#000000" stroke-width="1.2" stroke-linejoin="round" stroke-linecap="round" fill="none" d="
M 17.35 3.15
L 12.2 7.2 6.75 3.05
M 18.05 4.4
Q 18.05 2.15 16.3 2.15
L 7.75 2.15
Q 6.05 2.15 6.05 4.4
L 6.05 10
Q 6.05 12.2 7.75 12.2
L 16.3 12.2
Q 18.05 12.2 18.05 10
L 18.05 4.4 Z"/>

<path id="task_TaskReference_0_Layer0_0_MEMBER_0_MEMBER_0_1_STROKES" stroke="#000000" stroke-width="1.2" stroke-linejoin="round" stroke-linecap="round" fill="none" d="
M 17.65 8.35
L 17.65 2.8 5.65 14.75
M 12.65 2.8
L 17.65 2.8"/>

<path id="task_TaskScript_0_Layer0_0_MEMBER_0_1_STROKES" stroke="#000000" stroke-width="1.2" stroke-linejoin="round" stroke-linecap="round" fill="none" d="
M 18.15 8.3
Q 20.553125 11.65 18 14.05
L 6 14.05
Q 8.1380859375 11.892578125 5.95 8.55 3.56796875 4.8 6 2.1
L 18 2.1
Q 15.685546875 4.8 18.15 8.3 Z
M 15.7 8.25
L 8.1 8.25
M 16.75 11.7
L 9.15 11.7
M 15.1 4.75
L 7.5 4.75"/>

<path id="task_TaskService_0_Layer0_0_MEMBER_0_MEMBER_0_MEMBER_0_1_STROKES" stroke="#000000" stroke-width="1" stroke-linejoin="miter" stroke-linecap="square" stroke-miterlimit="3" fill="none" d="
M 13.730622100830077 4.6288330078125
L 12.642384338378907 5.760600280761719
Q 12.729443359375 5.978247833251953 12.816502380371096 6.195895385742188
L 14.38356475830078 6.195895385742188
Q 14.514153289794923 6.761779022216797 14.514153289794923 7.4147216796875 14.514153289794923 8.067664337158202 14.340035247802737 8.677077484130859
L 12.816502380371096 8.677077484130859
Q 12.685913848876954 9.025313568115234 12.511795806884766 9.373549652099609
L 13.512974548339843 10.46178741455078
Q 13.295326995849608 10.766493988037109 12.947090911865235 11.071200561523437 12.381207275390626 11.680613708496093 11.728264617919923 12.028849792480468
L 10.814144897460938 11.02767105102539
Q 10.596497344970704 11.15825958251953 10.37884979248047 11.245318603515624
L 10.37884979248047 12.507674407958984
Q 9.81296615600586 12.638262939453124 9.290612030029298 12.638262939453124 8.637669372558594 12.638262939453124 8.028256225585938 12.507674407958984
L 8.028256225585938 11.15825958251953
Q 7.85413818359375 11.114730072021484 7.680020141601562 11.02767105102539
L 6.765900421142578 11.985320281982421
Q 6.112957763671875 11.637084197998046 5.5470741271972654 11.071200561523437 5.242367553710937 10.722964477539062 4.981190490722656 10.418257904052734
L 5.982369232177734 9.373549652099609
Q 5.808251190185548 9.025313568115234 5.677662658691406 8.677077484130859
L 4.197659301757812 8.677077484130859
Q 4.067070770263672 8.067664337158202 4.067070770263672 7.4147216796875 4.067070770263672 6.761779022216797 4.197659301757812 6.195895385742188
L 5.677662658691406 6.195895385742188
Q 5.7647216796875 5.978247833251953 5.851780700683594 5.760600280761719
L 4.8506019592285154 4.672362518310547
Q 5.111779022216797 4.1500083923339846 5.5470741271972654 3.714713287353516 5.982369232177734 3.322947692871094 6.504723358154297 3.018241119384766
L 7.418843078613281 3.975890350341797
Q 7.723549652099609 3.8017723083496096 8.028256225585938 3.671183776855469
L 8.028256225585938 2.321768951416016
Q 8.637669372558594 2.191180419921875 9.290612030029298 2.191180419921875 9.81296615600586 2.191180419921875 10.37884979248047 2.321768951416016
L 10.37884979248047 3.627654266357422
Q 10.727085876464844 3.714713287353516 11.07532196044922 3.975890350341797
L 12.03297119140625 2.931182098388672
Q 12.511795806884766 3.279418182373047 12.947090911865235 3.714713287353516 13.42591552734375 4.1500083923339846 13.730622100830077 4.6288330078125 Z"/>

<path id="task_TaskService_0_Layer0_0_MEMBER_0_MEMBER_0_MEMBER_0_2_STROKES" stroke="#000000" stroke-width="1" stroke-linejoin="round" stroke-linecap="round" fill="none" d="
M 10.204731750488282 8.546488952636718
Q 9.769436645507813 9.025313568115234 9.11649398803711 9.025313568115234 8.463551330566407 9.025313568115234 7.9847267150878904 8.546488952636718 7.549431610107422 8.111193847656251 7.549431610107422 7.458251190185548 7.549431610107422 6.805308532714844 7.9847267150878904 6.326483917236328 8.463551330566407 5.8911888122558596 9.11649398803711 5.8911888122558596 9.769436645507813 5.8911888122558596 10.204731750488282 6.326483917236328 10.683556365966798 6.805308532714844 10.683556365966798 7.458251190185548 10.683556365966798 8.111193847656251 10.204731750488282 8.546488952636718 Z"/>

<path id="task_TaskService_0_Layer0_0_MEMBER_0_MEMBER_1_MEMBER_0_1_STROKES" stroke="#000000" stroke-width="1" stroke-linejoin="miter" stroke-linecap="square" stroke-miterlimit="3" fill="none" d="
M 14.3 5.1
L 14.3 6.45
Q 14.65 6.5 15 6.8
L 15.95 5.75
Q 16.4 6.1 16.85 6.5 17.35 6.95 17.65 7.45
L 16.55 8.55
Q 16.65 8.8 16.7 9
L 18.3 9
Q 18.4 9.55 18.4 10.2 18.4 10.85 18.25 11.5
L 16.7 11.5
Q 16.6 11.85 16.4 12.15
L 17.4 13.25
Q 17.2 13.55 16.85 13.85 16.3 14.5 15.65 14.85
L 14.7 13.85
Q 14.5 13.95 14.3 14.05
L 14.3 15.3
Q 13.7 15.45 13.2 15.45 12.55 15.45 11.95 15.3
L 11.95 13.95
Q 11.75 13.9 11.6 13.85
L 10.65 14.8
Q 10 14.45 9.45 13.85 9.15 13.5 8.9 13.2
L 9.9 12.15
Q 9.7 11.85 9.6 11.5
L 8.1 11.5
Q 7.95 10.85 7.95 10.2 7.95 9.55 8.1 9
L 9.6 9
Q 9.65 8.8 9.75 8.55
L 8.75 7.45
Q 9 6.95 9.45 6.5 9.9 6.1 10.4 5.8
L 11.3 6.8
Q 11.6 6.6 11.95 6.45
L 11.95 5.1
Q 12.55 5 13.2 5 13.7 5 14.3 5.1 Z"/>

<path id="task_TaskService_0_Layer0_0_MEMBER_0_MEMBER_1_MEMBER_0_2_STROKES" stroke="#000000" stroke-width="1" stroke-linejoin="round" stroke-linecap="round" fill="none" d="
M 14.1 9.15
Q 14.6 9.6 14.6 10.25 14.6 10.9 14.1 11.35 13.65 11.85 13 11.85 12.35 11.85 11.9 11.35 11.45 10.9 11.45 10.25 11.45 9.6 11.9 9.15 12.35 8.7 13 8.7 13.65 8.7 14.1 9.15 Z"/>

<path id="task_TaskUser_0_Layer0_0_MEMBER_0_1_STROKES" stroke="#FFFFFF" stroke-opacity="0" stroke-width="1.2" stroke-linejoin="round" stroke-linecap="round" fill="none" d="
M 13.05 7.1
Q 11.85 7.1 10.95 6.25 10.1 5.4 10.1 4.25 10.1 3.1 10.95 2.25 11.85 1.4 13.05 1.4 14.25 1.4 15.1 2.25 16 3.1 16 4.25 16 5.4 15.1 6.25 14.25 7.1 13.05 7.1 Z
M 7.1 13.4
L 19.1 13.4
Q 17.1 8.95 13 8.95 8.9 8.95 7.1 13.4 Z"/>

<path id="task_TaskUser_0_Layer0_0_MEMBER_1_1_STROKES" stroke="#000000" stroke-width="1" stroke-linejoin="round" stroke-linecap="round" fill="none" d="
M 14.95 6.8
Q 14.9 8.05 14.1 8.75 13.35 9.4 12.3 9.4 11.3 9.35 10.5 8.7 9.65 7.95 9.45 6.8 6.8 7.4 4.35 10.05
L 4.35 14.2 7.55 14.2 7.6 12
M 14.95 6.8
Q 17.3 7.2 19.5 9.75
L 19.5 14.2 16.35 14.2 7.55 14.2
M 15.55 3.4
Q 15.8 4.95 14.5 6.5
L 14.95 6.8
M 8.95 5.05
Q 8.7 4.45 8.7 3.7 8.55 1.9 10.4 0.8 12.2 -0.3 14.5 1.3 15.35 2.35 15.55 3.4 9.2 2.85 8.95 5.05 9.25 5.7 10.15 6.3
L 9.45 6.8
M 16.15 11.85
L 16.35 14.2"/>

<path id="events_Cancel_0_Layer0_0_MEMBER_0_MEMBER_0_1_STROKES" stroke="#000000" stroke-width="3.8" stroke-linejoin="miter" stroke-linecap="square" stroke-miterlimit="3" fill="none" d="
M 4.939768218994141 5.007042694091796
L 8.192462921142578 8.259737396240235 11.445157623291017 5.007042694091798
M 11.445157623291017 11.44172134399414
L 8.192462921142578 8.259737396240235 4.93976821899414 11.441721343994141"/>

<path id="events_Conditional_0_Layer0_0_MEMBER_0_1_STROKES" stroke="#000000" stroke-width="1.7" stroke-linejoin="round" stroke-linecap="round" fill="none" d="
M 14.55 13.8
L 5.4 13.8
M 14.55 9.65
L 5.4 9.65
M 14.55 5.45
L 5.4 5.45"/>

<path id="events_Conditional_0_Layer0_0_MEMBER_0_MEMBER_0_1_STROKES" stroke="#000000" stroke-width="1.5" stroke-linejoin="round" stroke-linecap="round" fill="none" d="
M 43.6 16.6
L 29.2 16.6 29.2 2.2 43.6 2.2 43.6 16.6 Z"/>

<path id="events_Message_0_Layer0_0_MEMBER_0_1_STROKES" stroke="#000000" stroke-width="1.3" stroke-linejoin="round" stroke-linecap="round" fill="none" d="
M 13.2 0
L 2.2 0
Q 0 0 0 2.9
L 0 10.15
Q 0 12.95 2.2 12.95
L 13.2 12.95
Q 15.4 12.95 15.4 10.15
L 15.4 2.9
Q 15.4 0 13.2 0 Z
M 14.55 1.3
L 7.95 6.5 0.95 1.2"/>

<path id="events_Multiple_0_Layer0_0_MEMBER_0_1_STROKES" stroke="#000000" stroke-width="1.4" stroke-linejoin="miter" stroke-linecap="square" stroke-miterlimit="3" fill="none" d="
M 17.25 6
L 13.9 15.6 3.3 15.6 0 5.95 8.6 0 17.25 6 Z"/>

<path id="events_MultipleFilled_0_Layer0_0_MEMBER_0_1_STROKES" stroke="#000000" stroke-width="1.4" stroke-linejoin="miter" stroke-linecap="square" stroke-miterlimit="3" fill="none" d="
M 17.25 6
L 13.9 15.6 3.3 15.6 0 5.95 8.6 0 17.25 6 Z"/>

<path id="events_Signal_0_Layer0_0_MEMBER_0_1_STROKES" stroke="#000000" stroke-width="1.4" stroke-linejoin="miter" stroke-linecap="square" stroke-miterlimit="3" fill="none" d="
M 13.4 12.55
L 0.4 12.55 6.8 0 13.4 12.55 Z"/>

<path id="events_Timer_0_Layer0_0_1_STROKES" stroke="#000000" stroke-width="1.3" stroke-linejoin="miter" stroke-linecap="square" stroke-miterlimit="3" fill="none" d="
M 10.8 5.5
L 8.6 9.25 12.15 12.8"/>
</defs>

<g transform="matrix( 1, 0, 0, 1, 2,1.2) ">
<g transform="matrix( 1, 0, 0, 1, 0,0) ">
<use xlink:href="#gateways_EventBasedGateway_0_Layer0_0_FILL"/>

<use xlink:href="#gateways_EventBasedGateway_0_Layer0_0_1_STROKES"/>

<use xlink:href="#gateways_EventBasedGateway_0_Layer0_0_2_STROKES"/>
</g>
</g>

<g transform="matrix( 1, 0, 0, 1, 2,1.2) ">
<g transform="matrix( 1, 0, 0, 1, 0,0) ">
<use xlink:href="#gateways_InclusiveGateway_0_Layer0_0_FILL"/>

<use xlink:href="#gateways_InclusiveGateway_0_Layer0_0_1_STROKES"/>
</g>
</g>

<g transform="matrix( 1, 0, 0, 1, 2,1.2) ">
<g transform="matrix( 1, 0, 0, 1, -3.35,0) ">
<use xlink:href="#gateways_ComplexGateway_0_Layer0_0_FILL"/>
</g>
</g>

<g transform="matrix( 1, 0, 0, 1, 2,1.2) ">
<g transform="matrix( 1, 0, 0, 1, 0,0) ">
<use xlink:href="#gateways_ParallelGateway_0_Layer0_0_FILL"/>
</g>
</g>

<g transform="matrix( 1, 0, 0, 1, 2,1.2) ">
<g transform="matrix( 1, 0, 0, 1, 0,0) ">
<use xlink:href="#gateways_ExclusiveGateway_0_Layer0_0_FILL"/>
</g>
</g>

<g transform="matrix( 1, 0, 0, 1, 2,1.2) ">
<g transform="matrix( 1, 0, 0, 1, 0,0) ">
<use xlink:href="#process_AdhocProcess_0_Layer0_0_FILL"/>
</g>

<g transform="matrix( 1, 0, 0, 1, 0,0) ">
<use xlink:href="#process_AdhocProcess_0_Layer0_1_FILL"/>
</g>

<g transform="matrix( 1.2244873046875, 0, 0, 1.351348876953125, -4.5,-0.6) ">
<use xlink:href="#process_AdhocProcess_0_Layer0_1_MEMBER_0_FILL"/>
</g>
</g>

<g transform="matrix( 1, 0, 0, 1, 2,1.2) ">
<g transform="matrix( 1, 0, 0, 1, 0,0) ">
<use xlink:href="#process_EmbeddedProcess_0_Layer0_0_FILL"/>
</g>

<g transform="matrix( 1.500030517578125, 0, 0, 1.500030517578125, -10,0) ">
<use xlink:href="#process_EmbeddedProcess_0_Layer0_1_FILL"/>
</g>

<g transform="matrix( 1.500030517578125, 0, 0, 1.500030517578125, -10,0) ">
<use xlink:href="#process_EmbeddedProcess_0_Layer0_1_MEMBER_0_FILL"/>

<use xlink:href="#process_EmbeddedProcess_0_Layer0_1_MEMBER_0_1_STROKES" transform="matrix( 0.666656494140625, 0, 0, 0.666656494140625, 6.65,0) "/>
</g>
</g>

<g transform="matrix( 1, 0, 0, 1, 2,1.2) ">
<g transform="matrix( 1, 0, 0, 1, 0,0) ">
<use xlink:href="#process_ReferenceProcess_0_Layer0_0_FILL"/>
</g>

<g transform="matrix( 1, 0, 0, 1, 0,0) ">
<use xlink:href="#process_ReferenceProcess_0_Layer0_1_FILL"/>
</g>

<g transform="matrix( 1.7142486572265625, 0, 0, 1.7142486572265625, -9.8,-3.2) ">
<use xlink:href="#process_ReferenceProcess_0_Layer0_1_MEMBER_0_MEMBER_0_1_STROKES" transform="matrix( 0.583343505859375, 0, 0, 0.583343505859375, 5.7,1.85) "/>
</g>
</g>

<g transform="matrix( 1, 0, 0, 1, 2,1.2) ">
<g transform="matrix( 1, 0, 0, 1, 0,0) ">
<use xlink:href="#process_ReusableProcess_0_Layer0_0_FILL"/>
</g>

<g transform="matrix( 1.500030517578125, 0, 0, 1.500030517578125, -10,0) ">
<use xlink:href="#process_ReusableProcess_0_Layer0_1_FILL"/>
</g>

<g transform="matrix( 1.500030517578125, 0, 0, 1.500030517578125, -10,0) ">
<use xlink:href="#process_ReusableProcess_0_Layer0_1_MEMBER_0_1_STROKES" transform="matrix( 0.666656494140625, 0, 0, 0.666656494140625, 6.65,0) "/>
</g>
</g>

<g transform="matrix( 1, 0, 0, 1, 2,1.2) ">
<g transform="matrix( 1, 0, 0, 1, 0,0) ">
<use xlink:href="#task_TaskManual_0_Layer0_0_FILL"/>
</g>

<g transform="matrix( 1, 0, 0, 1, 0,0) ">
<use xlink:href="#task_TaskManual_0_Layer0_0_MEMBER_0_1_STROKES"/>
</g>

<g transform="matrix( 1, 0, 0, 1, 0,0) ">
<use xlink:href="#task_TaskManual_0_Layer0_0_MEMBER_1_FILL"/>

<use xlink:href="#task_TaskManual_0_Layer0_0_MEMBER_1_1_STROKES"/>
</g>
</g>

<g transform="matrix( 1, 0, 0, 1, 2,1.2) ">
<g transform="matrix( 1, 0, 0, 1, 0,0) ">
<use xlink:href="#task_TaskReceive_0_Layer0_0_FILL"/>
</g>

<g transform="matrix( 1, 0, 0, 1, 0,0) ">
<use xlink:href="#task_TaskReceive_0_Layer0_0_MEMBER_0_FILL"/>

<use xlink:href="#task_TaskReceive_0_Layer0_0_MEMBER_0_1_STROKES"/>
</g>
</g>

<g transform="matrix( 1, 0, 0, 1, 2,1.2) ">
<g transform="matrix( 1, 0, 0, 1, 0,0) ">
<use xlink:href="#task_TaskReference_0_Layer0_0_FILL"/>
</g>

<g transform="matrix( 1, 0, 0, 1, 1.2,-1.2) ">
<use xlink:href="#task_TaskReference_0_Layer0_0_MEMBER_0_MEMBER_0_1_STROKES"/>
</g>
</g>

<g transform="matrix( 1, 0, 0, 1, 2,1.2) ">
<g transform="matrix( 1, 0, 0, 1, 0,0) ">
<use xlink:href="#task_TaskScript_0_Layer0_0_FILL"/>
</g>

<g transform="matrix( 1, 0, 0, 1, 0,0) ">
<use xlink:href="#task_TaskScript_0_Layer0_0_MEMBER_0_FILL"/>

<use xlink:href="#task_TaskScript_0_Layer0_0_MEMBER_0_1_STROKES"/>
</g>
</g>

<g transform="matrix( 1, 0, 0, 1, 2,1.2) ">
<g transform="matrix( 1, 0, 0, 1, 0,0) ">
<use xlink:href="#task_TaskSend_0_Layer0_0_FILL"/>
</g>

<g transform="matrix( 1, 0, 0, 1, 0,0) ">
<use xlink:href="#task_TaskSend_0_Layer0_0_MEMBER_0_FILL"/>
</g>
</g>

<g transform="matrix( 1, 0, 0, 1, 2,1.2) ">
<g transform="matrix( 1, 0, 0, 1, 0,0) ">
<use xlink:href="#task_TaskService_0_Layer0_0_FILL"/>
</g>

<g transform="matrix( 0.8705902099609375, 0, 0, 0.8705902099609375, -1.2,0.45) ">
<use xlink:href="#task_TaskService_0_Layer0_0_MEMBER_0_MEMBER_0_MEMBER_0_FILL"/>

<use xlink:href="#task_TaskService_0_Layer0_0_MEMBER_0_MEMBER_0_MEMBER_0_1_STROKES" transform="matrix( 1.148651123046875, 0, 0, 1.148651123046875, 1.4,-0.5) "/>

<use xlink:href="#task_TaskService_0_Layer0_0_MEMBER_0_MEMBER_0_MEMBER_0_2_STROKES" transform="matrix( 1.148651123046875, 0, 0, 1.148651123046875, 1.4,-0.5) "/>
</g>

<g transform="matrix( 1, 0, 0, 1, 0,0) ">
<use xlink:href="#task_TaskService_0_Layer0_0_MEMBER_0_MEMBER_1_MEMBER_0_FILL"/>

<use xlink:href="#task_TaskService_0_Layer0_0_MEMBER_0_MEMBER_1_MEMBER_0_1_STROKES"/>

<use xlink:href="#task_TaskService_0_Layer0_0_MEMBER_0_MEMBER_1_MEMBER_0_2_STROKES"/>
</g>
</g>

<g transform="matrix( 1, 0, 0, 1, 2,1.2) ">
<g transform="matrix( 1, 0, 0, 1, 0,0) ">
<use xlink:href="#task_TaskUser_0_Layer0_0_FILL"/>
</g>

<g transform="matrix( 1, 0, 0, 1, 0,0) ">
<use xlink:href="#task_TaskUser_0_Layer0_0_MEMBER_0_1_STROKES"/>
</g>

<g transform="matrix( 1, 0, 0, 1, 0,0) ">
<use xlink:href="#task_TaskUser_0_Layer0_0_MEMBER_1_FILL"/>

<use xlink:href="#task_TaskUser_0_Layer0_0_MEMBER_1_1_STROKES"/>
</g>
</g>

<g transform="matrix( 1, 0, 0, 1, 2,1.2) ">
<g transform="matrix( 1, 0, 0, 1, 0,0) ">
<use xlink:href="#events_Cancel_0_Layer0_0_MEMBER_0_FILL"/>
</g>

<g transform="matrix( 0.7071075439453125, 0.7071075439453125, -0.7071075439453125, 0.7071075439453125, 7.45,-4.15) ">
<use xlink:href="#events_Cancel_0_Layer0_0_MEMBER_0_MEMBER_0_1_STROKES" transform="matrix( 0.70709228515625, -0.70709228515625, 0.70709228515625, 0.70709228515625, -2.3,8.2) "/>
</g>
</g>

<g transform="matrix( 1, 0, 0, 1, 2,1.2) ">
<g transform="matrix( 1.098419189453125, 0, 0, 1.098419189453125, 49.85,3.1) ">
<use xlink:href="#events_Compensation_0_Layer0_0_MEMBER_0_FILL"/>
</g>
</g>

<g transform="matrix( 1, 0, 0, 1, 2,1.2) ">
<g transform="matrix( 1, 0, 0, 1, -2.85,-2.2) ">
<use xlink:href="#events_Conditional_0_Layer0_0_MEMBER_0_1_STROKES"/>
</g>

<g transform="matrix( 1, 0, 0, 1, -29.2,-2.2) ">
<use xlink:href="#events_Conditional_0_Layer0_0_MEMBER_0_MEMBER_0_1_STROKES"/>
</g>
</g>

<g transform="matrix( 1, 0, 0, 1, 2,1.2) ">
<g transform="matrix( 1.12158203125, 0, 0, 1.1458892822265625, 0,0) ">
<use xlink:href="#events_Error_0_Layer0_0_MEMBER_0_FILL"/>
</g>

<g transform="matrix( 1.12158203125, 0, 0, 1.1458892822265625, 46.4,-13.5) ">
<use xlink:href="#events_Error_0_Layer0_0_MEMBER_0_MEMBER_0_MEMBER_0_FILL"/>
</g>
</g>

<g transform="matrix( 1, 0, 0, 1, 2,1.2) ">
<g transform="matrix( -1, 0, 0, -1, 15.15,18) ">
<use xlink:href="#events_Link_0_Layer0_0_MEMBER_0_FILL"/>
</g>
</g>

<g transform="matrix( 1, 0, 0, 1, 2,1.2) ">
<g transform="matrix( 1, 0, 0, 1, 0,0) ">
<use xlink:href="#events_Message_0_Layer0_0_MEMBER_0_1_STROKES"/>
</g>
</g>

<g transform="matrix( 1, 0, 0, 1, 2,1.2) ">
<g transform="matrix( 1, 0, 0, 1, 0,0) ">
<use xlink:href="#events_MessageFilled_0_Layer0_0_MEMBER_0_FILL"/>
</g>
</g>

<g transform="matrix( 1, 0, 0, 1, 2,1.2) ">
<g transform="matrix( 1, 0, 0, 1, 0,0) ">
<use xlink:href="#events_Multiple_0_Layer0_0_MEMBER_0_1_STROKES"/>
</g>
</g>

<g transform="matrix( 1, 0, 0, 1, 2,1.2) ">
<g transform="matrix( 1, 0, 0, 1, 0,0) ">
<use xlink:href="#events_MultipleFilled_0_Layer0_0_MEMBER_0_FILL"/>

<use xlink:href="#events_MultipleFilled_0_Layer0_0_MEMBER_0_1_STROKES"/>
</g>
</g>

<g transform="matrix( 1, 0, 0, 1, 2,1.2) ">
<g transform="matrix( 1, 0, 0, 1, 0,0) ">
<use xlink:href="#events_Signal_0_Layer0_0_MEMBER_0_1_STROKES"/>
</g>
</g>

<g transform="matrix( 1, 0, 0, 1, 2,1.2) ">
<g transform="matrix( 1, 0, 0, 1, 0,0) ">
<use xlink:href="#events_Terminate_0_Layer0_0_MEMBER_0_FILL"/>
</g>
</g>

<g transform="matrix( 1, 0, 0, 1, 2,1.2) ">
<g transform="matrix( 1, 0, 0, 1, 0,0) ">
<use xlink:href="#events_Timer_0_Layer0_0_FILL"/>

<use xlink:href="#events_Timer_0_Layer0_0_1_STROKES"/>
</g>
</g>
</svg>
