<?xml version="1.0" encoding="utf-8"?>
<svg version="1.1" id="Layer_1"
xmlns="http://www.w3.org/2000/svg"
xmlns:xlink="http://www.w3.org/1999/xlink"
width="87px" height="84px"
xml:space="preserve">
<g id="PathID_5" transform="matrix(1, 0, 0, 1, 33, 53.6)">
<path style="fill:#0000FF;fill-opacity:1" d="M4.35 -29L7.25 -29.7L7.65 -29.65L7.9 -29.3L7.8 -28.9L7.5 -28.7L4.25 -27.85L4.2 -27.3L3.9 -25.25L7.25 -26.4L7.65 -26.35L7.9 -26.05L7.85 -25.65Q7.75 -25.45 7.5 -25.4L3.8 -24.05L3.8 -23.05Q3.85 -22.2 4 -22.05L4.5 -21.95L5.75 -22.25L7.1 -22.8L7.65 -23L8.1 -23.25L8.5 -23.25L8.8 -22.95L8.8 -22.55L8.5 -22.25L8.05 -22.05L7.5 -21.8L6.1 -21.25L4.6 -20.9Q3.65 -20.85 3.25 -21.3Q2.8 -21.8 2.75 -23L2.85 -25.2L3.15 -27.45L3.3 -29L3.5 -29.4L3.85 -29.5L4.2 -29.35L4.35 -29M0.15 -28.6L0.2 -26.25L1.6 -26.2L1.95 -26.05L2.1 -25.65L1.95 -25.3L1.55 -25.15L0.3 -25.15Q0.45 -23.35 0.9 -21.85L0.85 -21.45Q0.75 -21.25 0.5 -21.2L0.1 -21.25L-0.1 -21.55Q-0.6 -23.2 -0.75 -25.15L-1.7 -25.05L-3.45 -24.6L-3.4 -21.3Q-3.4 -21.1 -3.55 -20.95Q-3.75 -20.8 -3.95 -20.8Q-4.15 -20.8 -4.3 -20.95L-4.45 -21.3L-4.5 -24.3L-4.9 -24.15L-5.3 -24.2L-5.55 -24.5L-5.5 -24.95L-5.2 -25.15L-4.5 -25.4Q-4.55 -27.55 -4.75 -29.4L-4.65 -29.8L-4.3 -30L-3.9 -29.85L-3.7 -29.5L-3.45 -25.7L-1.85 -26.1L-0.85 -26.2L-0.9 -28.6L-0.75 -29L-0.35 -29.15L0 -29L0.15 -28.6M11.5 -18.9L12.3 -18.25L16.2 -11.95L18.65 -8.25L18.8 -8.05L21.8 -12.2L24.9 -16.1L26.25 -17.55Q27.2 -18.4 28 -18.45Q29.15 -18.55 29.75 -17.4L30.1 -16.45L30.55 -14.2L30.8 -12.05L30.9 -11.3L30.9 -11.15L31.8 -5L33 4.6L32.65 5.75Q32.25 6.25 31.6 6.3L30.5 6Q30 5.6 29.9 4.95L28.7 -5L27.85 -10.65L27.8 -11.05L27.75 -11.75L27.55 -13.75L27.4 -14.3L27.25 -14.1L24.25 -10.35L20.15 -4.75L19.9 -4.55L19.7 -4.4Q19.35 -4.15 18.9 -4.15Q18.2 -4.1 17.6 -4.65L17.25 -5L17.15 -5.15L16.15 -6.45L13.65 -10.3L12.3 -12.4L12.25 -6.9L12.25 -5L12.3 -0.4L12.3 5.1Q12.3 5.75 11.85 6.2Q11.4 6.7 10.75 6.7Q10.15 6.7 9.65 6.2Q9.2 5.75 9.2 5.1L9.2 -0.4L9.2 -5L9.2 -6.3L9.2 -11.7L9.35 -17.5L9.7 -18.35L10.5 -18.85L11.5 -18.9M4.55 -15.35Q5.6 -13.75 5.95 -11.85Q6.25 -9.9 5.7 -7.95Q5.2 -6.35 4.05 -5L3.45 -4.35Q1.85 -2.75 -0.75 -1.9Q-2.4 -1.35 -4.3 -1.3L-7.6 -1.6L-7.75 5.4Q-7.75 6.05 -8.2 6.5Q-8.65 6.95 -9.25 6.95L-10.35 6.5Q-10.8 6.05 -10.8 5.4L-10.75 -0.15L-10.65 -5L-10.65 -5.95L-10.8 -11.2Q-11 -14.2 -11.35 -16.8L-11.1 -17.95Q-10.75 -18.45 -10.1 -18.55Q-9.5 -18.65 -8.95 -18.25Q-8.45 -17.9 -8.35 -17.25L-8.25 -16.75Q-5.2 -19.15 -1.95 -19.1Q0.1 -19.05 1.75 -18Q3.45 -17 4.55 -15.35M1.95 -13.65Q0.45 -15.95 -2 -16Q-4.9 -16.1 -7.85 -12.9Q-7.55 -9.5 -7.6 -5L-7.6 -4.7L-5.45 -4.45L-3.65 -4.45L-1.7 -4.85L-1.25 -5Q2 -6.25 2.75 -8.85Q3.5 -11.3 1.95 -13.65M24.1 20.9Q24.4 21.2 24.4 21.65Q24.45 22.1 24.15 22.4Q22.7 24.05 20.95 24.9Q19.2 25.75 17.6 25.45Q15.8 25.1 14.8 23.5Q13.85 21.8 13.95 19.2Q14.05 17.05 14.9 15.65Q15.4 14.85 16.3 14.25Q17.25 13.6 18.25 13.35L20.5 13.4Q21.6 13.75 22.35 14.85Q22.8 15.55 22.35 16.4L21.65 17.35L19.55 19.05L16.2 21.15Q16.6 23.1 17.95 23.35Q18.9 23.5 20.15 22.9L22.6 21.05Q22.85 20.7 23.3 20.65L24.1 20.9M7.05 16.2Q7.7 15.15 8.4 14.45Q9.6 13.3 10.75 13.5Q12.1 13.8 12.65 15.85L13.15 18.65L13.3 20.35L13.4 22.5L13.45 24.5L13.15 25.25L12.45 25.6Q12 25.6 11.7 25.3Q11.35 25 11.35 24.6L11.25 22.6L11.2 20.5L11.05 18.9L10.65 16.4L10.3 15.65L9.9 15.95L8.8 17.35L8.05 18.85Q7.3 20.55 6.7 22.65L6.65 22.9L6.65 23.55L6.4 24.45Q6 25.2 5.15 25.2Q4.6 25.2 4.3 24.75L4.1 24.45L3.95 24L3.8 22.9L3.7 21.7L3.55 20L3.1 17.25L2.5 18.6Q1.35 21.1 1.1 21.95L1.05 22.2L1 22.6L1 23.15Q0.85 24.65 -0.15 25.1L-1.35 24.95L-1.7 24.45L-1.85 23.9L-1.95 22.7L-1.95 20.85Q-2 17.2 -2.4 13.85L-2.2 13.1Q-1.9 12.75 -1.5 12.7L-0.7 12.9L-0.3 13.65L0.1 18.75L0.55 17.75L1.55 15.65L2.05 14.9L2.35 14.55Q2.8 14.15 3.4 14.3Q4.15 14.5 4.6 15.3L5.1 16.6L5.6 19.2L6.05 18.05L7.05 16.2M16.7 16.75Q16.2 17.6 16.1 18.75L18.35 17.3L20.15 15.85L20.3 15.65Q19.7 15.15 18.75 15.4Q18.1 15.55 17.55 15.95L16.7 16.75M-12.1 -28.5L-12 -28.9L-11.7 -29.15L-6.2 -30.05L-5.8 -29.9L-5.65 -29.55L-5.8 -29.15Q-5.9 -29 -6.15 -29L-8.55 -28.7L-8.35 -21.75Q-8.35 -21.55 -8.5 -21.4L-8.85 -21.2Q-9.1 -21.2 -9.25 -21.35L-9.4 -21.7L-9.6 -28.5L-11.45 -28.1L-11.85 -28.15L-12.1 -28.5M-29.9 -17.35Q-27.05 -18.4 -24.65 -18.65L-22.8 -18.65L-20.8 -18.25Q-19.9 -17.95 -19.15 -17.1Q-18.4 -16.25 -18.2 -15Q-17.75 -12.4 -20.55 -9.8L-20.7 -9.65Q-18.85 -9.4 -17.25 -8.7Q-14.9 -7.6 -13.85 -5.25L-13.75 -5Q-12.85 -2.8 -13.4 -0.5Q-14 2 -16.05 3.6Q-17.3 4.6 -19.15 5.25L-22.75 6.1L-26.3 6.4L-29.5 6.35L-29.95 6.3Q-30.35 6.7 -31 6.75Q-31.6 6.8 -32.05 6.35Q-32.5 5.9 -32.55 5.25L-32.75 -5L-32.8 -7.1L-33 -17.3Q-33 -17.95 -32.55 -18.4Q-32.1 -18.85 -31.45 -18.85Q-30.85 -18.85 -30.35 -18.45Q-29.9 -18 -29.9 -17.35M-24.35 -15.55Q-27.05 -15.3 -29.8 -14.1L-29.8 -14.05L-29.75 -8.3L-27.1 -9.1L-26.05 -9.6Q-23.55 -11.2 -22.6 -12.05Q-21.05 -13.5 -21.2 -14.5Q-21.45 -15.85 -24.35 -15.55M-29.7 -5L-29.55 3.3L-29.35 3.3Q-21 3.55 -17.9 1.15Q-16.75 0.25 -16.4 -1.2Q-16.1 -2.65 -16.65 -4L-17.3 -5L-18.5 -5.9L-26.15 -6.15L-28.1 -5.45L-29.55 -5.05L-29.7 -5.05L-29.7 -5M-14.9 18.15L-14.95 18.75L-14.95 18.95L-14.8 20.05Q-14.5 22.85 -14.65 24.5Q-14.9 27.45 -16.55 28.95Q-18.15 30.45 -20.35 29.9Q-21.5 29.65 -23.3 28.6L-23.8 27.9Q-23.9 27.5 -23.65 27.15L-23 26.65L-22.2 26.75L-19.85 27.85Q-18.75 28.15 -18 27.45Q-16.95 26.4 -16.75 24.3Q-16.65 22.95 -16.85 20.9L-17.4 21.8Q-18.5 23.5 -19.55 24.35Q-21.25 25.65 -22.85 25Q-24.35 24.35 -24.65 22L-24.5 19.1Q-24.1 16.8 -22.7 15.15Q-21 13.1 -18.6 13.2L-17.3 13.55L-16.9 13.75L-16.55 13.9L-15.95 14.45Q-15.75 14.85 -15.9 15.25L-16.45 15.85L-17.25 15.9L-17.8 15.65L-18.2 15.5L-18.7 15.3Q-20.05 15.25 -21.1 16.5Q-22.1 17.75 -22.45 19.45L-22.5 21.75Q-22.4 22.9 -22 23.05Q-21.55 23.25 -20.9 22.7L-19.15 20.65L-17.8 18.2L-17.35 17.3L-17.2 17L-17.05 16.8L-16.85 16.65Q-16.55 16.4 -16.15 16.4L-15.4 16.7L-14.95 17.3Q-14.85 17.65 -14.9 18.15M-10.3 13.2Q-7.95 12.3 -5.65 14.1Q-5.3 14.4 -5.25 14.85Q-5.2 15.25 -5.45 15.6L-6.2 16L-6.95 15.8Q-8.3 14.75 -9.5 15.2Q-10.65 15.65 -11.5 17.35Q-12.4 19 -12.45 20.8Q-12.45 22.45 -11.7 23.2L-10.45 23.3Q-9.5 22.75 -8.25 20L-7.45 17.95L-7.25 17.3L-7.2 17.1L-7.1 16.95L-7.05 16.85L-6.55 16.4L-5.7 16.35L-5.05 16.9Q-4.85 17.2 -4.8 17.7L-4.8 18.2L-4.75 18.55L-4.65 20.15L-4.55 21.6L-4.3 22.65L-3.75 23.95Q-3.55 24.35 -3.7 24.8Q-3.8 25.2 -4.2 25.4L-5 25.5L-5.6 25Q-6.45 23.4 -6.65 21.55Q-8 24.4 -9.5 25.2L-11.35 25.55Q-12.4 25.45 -13.15 24.75Q-14.6 23.35 -14.55 20.75Q-14.5 18.45 -13.4 16.3Q-12.15 14 -10.3 13.2" />
</g>
<g id="PathID_6" transform="matrix(1, 0, 0, 1, 33, 53.6)">
<path style="fill:none;stroke-width:2.45;stroke-linecap:round;stroke-linejoin:round;stroke-miterlimit:3;stroke:#0000FF;stroke-opacity:1" d="M-31.1 9.55L-25.55 10L-21.1 9.15L-17.1 8.7L-11.85 9.05L-6.75 9.45L-1.95 9.6L3.2 9.6L8.2 9.05Q10.65 8.6 13.05 9L17.9 9.45L23.1 9.55L26.8 9.55L29.9 9.55" />
</g>
<g id="PathID_7" transform="matrix(1, 0, 0, 1, 33, 53.6)">
<linearGradient
id="LinearGradID_3" gradientUnits="userSpaceOnUse" gradientTransform="matrix(-0.00248718, -0.00172424, 0.0059967, -0.0138092, 18.05, -40.4)" spreadMethod ="pad" x1="-819.2" y1="0" x2="819.2" y2="0" >
<stop  offset="0" style="stop-color:#B1B1B1;stop-opacity:1" />
<stop  offset="0.423529" style="stop-color:#FFFFFF;stop-opacity:1" />
<stop  offset="0.792157" style="stop-color:#FFFFFF;stop-opacity:1" />
<stop  offset="1" style="stop-color:#D9D9D9;stop-opacity:1" />
</linearGradient>
<path style="fill:url(#LinearGradID_3) " d="M11.1 -30.45L20.95 -53.1Q23.4 -52.75 25 -50.25L15.2 -27.65L11.1 -30.45" />
<linearGradient
id="LinearGradID_4" gradientUnits="userSpaceOnUse" gradientTransform="matrix(-0.00216675, -0.00216675, 0.0102539, -0.0102539, 29.95, -31.3)" spreadMethod ="pad" x1="-819.2" y1="0" x2="819.2" y2="0" >
<stop  offset="0" style="stop-color:#B1B1B1;stop-opacity:1" />
<stop  offset="0.423529" style="stop-color:#FFFFFF;stop-opacity:1" />
<stop  offset="0.792157" style="stop-color:#FFFFFF;stop-opacity:1" />
<stop  offset="1" style="stop-color:#D9D9D9;stop-opacity:1" />
</linearGradient>
<path style="fill:url(#LinearGradID_4) " d="M19.75 -24.7L36.55 -41.5Q39.1 -40.45 40.15 -37.9L23.35 -21.1L19.75 -24.7" />
<linearGradient
id="LinearGradID_5" gradientUnits="userSpaceOnUse" gradientTransform="matrix(-0.00239563, -0.00166321, 0.00111389, -0.00254822, 11.3, -25.05)" spreadMethod ="pad" x1="-819.2" y1="0" x2="819.2" y2="0" >
<stop  offset="0" style="stop-color:#ADFAB0;stop-opacity:1" />
<stop  offset="0.423529" style="stop-color:#00CC00;stop-opacity:1" />
<stop  offset="0.792157" style="stop-color:#00CC00;stop-opacity:1" />
<stop  offset="1" style="stop-color:#B5FDAF;stop-opacity:1" />
</linearGradient>
<path style="fill:url(#LinearGradID_5) " d="M12 -23.85L11.95 -23.8L11.05 -22.5L10.25 -25L10.1 -25.15L10 -25.15Q10.6 -26.85 10.25 -28.3L14.05 -25.7Q13.3 -25.65 12.3 -23.55L12 -23.85M11.05 -22.5Q9.95 -21.9 9.75 -23.4L10.25 -25L11.95 -23.8" />
<linearGradient
id="LinearGradID_6" gradientUnits="userSpaceOnUse" gradientTransform="matrix(-0.00239563, -0.00166321, 0.000534058, -0.00120544, 12.65, -28.1)" spreadMethod ="pad" x1="-819.2" y1="0" x2="819.2" y2="0" >
<stop  offset="0" style="stop-color:#ADFAB0;stop-opacity:1" />
<stop  offset="0.423529" style="stop-color:#00CC00;stop-opacity:1" />
<stop  offset="0.792157" style="stop-color:#00CC00;stop-opacity:1" />
<stop  offset="1" style="stop-color:#B5FDAF;stop-opacity:1" />
</linearGradient>
<path style="fill:url(#LinearGradID_6) " d="M15.2 -27.65L14.2 -25.75L10.25 -28.5L11.1 -30.45L15.2 -27.65" />
<linearGradient
id="LinearGradID_7" gradientUnits="userSpaceOnUse" gradientTransform="matrix(-0.00210571, -0.00210571, 0.00189209, -0.00189209, 18.5, -19.95)" spreadMethod ="pad" x1="-819.2" y1="0" x2="819.2" y2="0" >
<stop  offset="0" style="stop-color:#FFB1B1;stop-opacity:1" />
<stop  offset="0.423529" style="stop-color:#FF0000;stop-opacity:1" />
<stop  offset="0.792157" style="stop-color:#FF0000;stop-opacity:1" />
<stop  offset="1" style="stop-color:#FFB1B1;stop-opacity:1" />
</linearGradient>
<path style="fill:url(#LinearGradID_7) " d="M18.8 -18.75L17.35 -20.2L18.8 -18.75L17.45 -17.8Q16.15 -17.6 16.3 -18.95L17.35 -20.2L17.2 -20.35L17.1 -20.45Q18.2 -21.75 18.2 -23.05L21.55 -19.7Q20.8 -19.95 19.15 -18.4L18.9 -18.75L18.8 -18.75" />
<linearGradient
id="LinearGradID_8" gradientUnits="userSpaceOnUse" gradientTransform="matrix(-0.00210571, -0.00210571, 0.000900269, -0.000900269, 20.75, -22.2)" spreadMethod ="pad" x1="-819.2" y1="0" x2="819.2" y2="0" >
<stop  offset="0" style="stop-color:#FFB1B1;stop-opacity:1" />
<stop  offset="0.423529" style="stop-color:#FF0000;stop-opacity:1" />
<stop  offset="0.792157" style="stop-color:#FF0000;stop-opacity:1" />
<stop  offset="1" style="stop-color:#FFB1B1;stop-opacity:1" />
</linearGradient>
<path style="fill:url(#LinearGradID_8) " d="M23.35 -21.1L21.75 -19.8L18.3 -23.25L19.75 -24.7L23.35 -21.1" />
<linearGradient
id="LinearGradID_9" gradientUnits="userSpaceOnUse" gradientTransform="matrix(-0.00166321, -0.00239563, 0.00254822, -0.00111389, 25.05, -11.9)" spreadMethod ="pad" x1="-819.2" y1="0" x2="819.2" y2="0" >
<stop  offset="0" style="stop-color:#B1B1FF;stop-opacity:1" />
<stop  offset="0.423529" style="stop-color:#0000FF;stop-opacity:1" />
<stop  offset="0.792157" style="stop-color:#0000FF;stop-opacity:1" />
<stop  offset="1" style="stop-color:#A785FF;stop-opacity:1" />
</linearGradient>
<path style="fill:url(#LinearGradID_9) " d="M25.05 -10.7L23.85 -12.4L25.05 -10.7L23.4 -10.25Q21.9 -10.45 22.45 -11.6L23.85 -12.4L23.75 -12.6L23.7 -12.65Q25.25 -13.5 25.65 -14.6L28.25 -10.8Q27.5 -11.25 25.3 -10.35L25.15 -10.7L25.05 -10.7" />
<linearGradient
id="LinearGradID_10" gradientUnits="userSpaceOnUse" gradientTransform="matrix(-0.00166321, -0.00239563, 0.00120544, -0.000534058, 28.15, -13.2)" spreadMethod ="pad" x1="-819.2" y1="0" x2="819.2" y2="0" >
<stop  offset="0" style="stop-color:#B1B1FF;stop-opacity:1" />
<stop  offset="0.423529" style="stop-color:#0000FF;stop-opacity:1" />
<stop  offset="0.792157" style="stop-color:#0000FF;stop-opacity:1" />
<stop  offset="1" style="stop-color:#A785FF;stop-opacity:1" />
</linearGradient>
<path style="fill:url(#LinearGradID_10) " d="M30.55 -11.5L28.5 -10.75L25.8 -14.75L27.75 -15.6L30.55 -11.5" />
<linearGradient
id="LinearGradID_11" gradientUnits="userSpaceOnUse" gradientTransform="matrix(-0.00172424, -0.00248718, 0.0138092, -0.0059967, 40.5, -18.45)" spreadMethod ="pad" x1="-819.2" y1="0" x2="819.2" y2="0" >
<stop  offset="0" style="stop-color:#B1B1B1;stop-opacity:1" />
<stop  offset="0.423529" style="stop-color:#FFFFFF;stop-opacity:1" />
<stop  offset="0.792157" style="stop-color:#FFFFFF;stop-opacity:1" />
<stop  offset="1" style="stop-color:#D9D9D9;stop-opacity:1" />
</linearGradient>
<path style="fill:url(#LinearGradID_11) " d="M27.75 -15.6L50.35 -25.4Q52.55 -23.7 53.2 -21.35L30.55 -11.5L27.75 -15.6" />
<path style="fill:none;stroke-width:1;stroke-linecap:round;stroke-linejoin:round;stroke-miterlimit:3;stroke:#333333;stroke-opacity:1" d="M11.1 -30.45L20.95 -53.1Q23.4 -52.75 25 -50.25L15.2 -27.65L14.2 -25.75" />
<path style="fill:none;stroke-width:1;stroke-linecap:round;stroke-linejoin:round;stroke-miterlimit:3;stroke:#333333;stroke-opacity:1" d="M10.25 -28.5L11.1 -30.45L15.2 -27.65" />
<path style="fill:none;stroke-width:1;stroke-linecap:round;stroke-linejoin:round;stroke-miterlimit:3;stroke:#333333;stroke-opacity:1" d="M19.75 -24.7L36.55 -41.5Q39.1 -40.45 40.15 -37.9L23.35 -21.1L21.75 -19.8" />
<path style="fill:none;stroke-width:1;stroke-linecap:round;stroke-linejoin:round;stroke-miterlimit:3;stroke:#333333;stroke-opacity:1" d="M18.3 -23.25L19.75 -24.7L23.35 -21.1" />
<path style="fill:none;stroke-width:1;stroke-linecap:round;stroke-linejoin:round;stroke-miterlimit:3;stroke:#333333;stroke-opacity:1" d="M12.3 -23.55Q13.3 -25.65 14.05 -25.7L10.25 -28.3Q10.6 -26.85 10 -25.15L10.1 -25.15L10.25 -25L11.95 -23.8" />
<path style="fill:none;stroke-width:1;stroke-linecap:round;stroke-linejoin:round;stroke-miterlimit:3;stroke:#333333;stroke-opacity:1" d="M12.3 -23.55L11.95 -23.8L11.05 -22.5Q9.95 -21.9 9.75 -23.4L10.25 -25" />
<path style="fill:none;stroke-width:1;stroke-linecap:round;stroke-linejoin:round;stroke-miterlimit:3;stroke:#333333;stroke-opacity:1" d="M18.8 -18.75L17.45 -17.8Q16.15 -17.6 16.3 -18.95L17.35 -20.2L17.2 -20.35L17.1 -20.45Q18.2 -21.75 18.2 -23.05L21.55 -19.7Q20.8 -19.95 19.15 -18.4L18.8 -18.75L17.35 -20.2" />
<path style="fill:none;stroke-width:1;stroke-linecap:round;stroke-linejoin:round;stroke-miterlimit:3;stroke:#333333;stroke-opacity:1" d="M25.05 -10.7L23.4 -10.25Q21.9 -10.45 22.45 -11.6L23.85 -12.4L23.75 -12.6L23.7 -12.65Q25.25 -13.5 25.65 -14.6L28.25 -10.8Q27.5 -11.25 25.3 -10.35L25.05 -10.7L23.85 -12.4" />
<path style="fill:none;stroke-width:1;stroke-linecap:round;stroke-linejoin:round;stroke-miterlimit:3;stroke:#333333;stroke-opacity:1" d="M25.8 -14.75L27.75 -15.6L50.35 -25.4Q52.55 -23.7 53.2 -21.35L30.55 -11.5L28.5 -10.75" />
<path style="fill:none;stroke-width:1;stroke-linecap:round;stroke-linejoin:round;stroke-miterlimit:3;stroke:#333333;stroke-opacity:1" d="M30.55 -11.5L27.75 -15.6" />
</g>
</svg>
