
<svg xmlns="http://www.w3.org/2000/svg" version="1.1" xmlns:xlink="http://www.w3.org/1999/xlink" preserveAspectRatio="none" x="0px" y="0px" width="210px" height="55px" viewBox="0 0 210 55">
<defs>
<g id="Layer0_0_FILL">
<path fill="#333333" stroke="none" d="
M 318.15 180.6
Q 315.4 178.6 314.2 178.6 312.95 178.6 311.6 181.1 310.708203125 182.7755859375 309.4 186 308.35546875 188.7404296875 307 192.6 306.9 193 306.15 193.2 305.3 193.35 304.45 193.55 303.9 193.7 303.9 194 303.9 194.05 304.1 194.55 304.25 194.85 304.6 194.9 304.9 194.9 306.3 194.8 302.5 206.75 301 214.75 300.8 215.7 302.05 216.45 303.05 217.05 303.3 217.05 303.5 217.05 303.5 216.75 303.5 216.55 303.45 216.2 303.4 215.8 303.4 215.65 303.4 213.45 304.55 208.4 305.9 202.1 308.4 194.8 310.6 194.65 312.7 194.3 313.1 194.2 313.1 193.85 313.1 193.55 312.7 193.55 311.9 193.55 309 193.1 310.5345703125 188.7912109375 311.75 186 313.608203125 181.6974609375 314.7 181 315.2 180.75 315.8 180.75 316.6 180.75 317.6 181.3 317.8 181.4 318 181.4 318.45 181.4 318.45 181 318.45 180.8 318.15 180.6
M 367 193.25
Q 367 192.45 366.45 192.45 366.2 192.45 365.3 192.9 364.8 193.1 364.95 193.8 365 194.5 364.6 196.25 364.5 196.6 364.5 196.8 364.5 197.15 364.8 197.15 364.95 197.15 365.6 196.9 366.15 196.7 366.25 196.65 366.45 196.45 366.6 195.85 367 194.05 367 193.25
M 362.35 197.05
Q 362.2 196.3 362.2 195.8 362.2 194.55 364.15 193.7 364.4 193.6 364.4 193.35 364.4 193 364 193.1 360 193.95 359.85 196.25 359.8 197.15 360.9 199.95 362.05 202.85 362.05 204 362.05 204.6 361.8 205.05 361.4 205.9 360.45 206.1 357.95 206.45 356.65 206.55 355.75 206.65 355.65 207.15 355.75 207.6 356.2 207.65 357.75 207.9 358.8 208.05 359.4 208.15 359.9 208.1 360.75 208.05 361.15 207.6 361.4 207.3 361.75 206.55 364.2 205.75 364.15 203.6 364.1 202.55 363.45 200.55 362.55 197.75 362.35 197.05
M 359.05 187.5
Q 357.95 186.7 357.65 186.7 357.45 186.7 357.05 187.2 356.5 187.85 354.85 189.25 354.7 189.25 354.65 189.3 354.6 189.4 354.7 189.5 354.75 189.6 354.85 189.7 355.25 190 355.8 190.1 356.75 190.3 357.8 189.6 359.35 188.5 359.35 188 359.35 187.7 359.05 187.5
M 353.85 193.35
Q 352.85 194.45 352 195.65 351.85 195.85 351.85 196 351.85 196.5 352.45 195.95
L 353.6 194.9
Q 354 194.5 354.15 194.5 354.35 194.5 354.3 195.3 354.15 197.2 353.05 201.1 351.85 205.15 350.85 206.85 350.65 207.2 350.65 207.3 350.65 207.45 351.15 207.7 351.9 208.1 352.3 208.1 352.75 208.1 352.9 207.7 353.4 206.35 354.5 204.65 355.95 202.35 356 202.15 356.25 201.65 355.95 201.65 355.8 201.65 355.7 201.8 354.75 203.05 354.25 203.55 356.05 197.85 356.5 195.4 356.6 195 356.6 194.65 356.6 194 356.15 193.75 356.05 193.7 355.25 193.45 354.7 193.05 354.4 193.05 354.1 193.05 353.85 193.35
M 359 180.05
Q 359 179.85 358.8 179.65 357.9 178.9 357 178.2 356.25 177.6 355.75 177.6 355.2 177.55 354.65 178.05 352.7 179.9 350.2 186 346.9 194.1 344.8 205.6 344.7 206 344.7 206.3 344.7 206.85 345.05 207.25 345.2 207.35 346.1 207.95 346.35 208.1 346.5 208.1 346.8 208.1 347 207.45 347.55 204.75 349.3 202.25 349.7 201.7 349.2 201.7 349 201.7 348.55 202.25 347.7 203.25 347.3 203.65 347.45 203.1 347.5 202.75 349.076171875 192.9859375 352.35 186 353.3556640625 183.8994140625 354.5 182.05 355.85 179.85 356.95 179.85 357.4 179.85 358.2 180.3 358.4 180.4 358.6 180.4 359 180.4 359 180.05
M 337.9 195.65
Q 337.75 195.85 337.75 196 337.75 196.5 338.35 195.95
L 339.5 194.9
Q 339.9 194.5 340.05 194.5 340.25 194.5 340.2 195.3 340.05 197.2 338.95 201.1 337.75 205.15 336.75 206.85 336.55 207.2 336.55 207.3 336.55 207.45 337.05 207.7 337.8 208.1 338.2 208.1 338.65 208.1 338.8 207.7 339.3 206.35 340.4 204.65 341.85 202.35 341.9 202.15 342.15 201.65 341.85 201.65 341.7 201.65 341.6 201.8 340.65 203.05 340.15 203.55 341.95 197.85 342.4 195.4 342.5 195 342.5 194.65 342.5 194 342.05 193.75 341.95 193.7 341.15 193.45 340.6 193.05 340.3 193.05 340 193.05 339.75 193.35 338.75 194.45 337.9 195.65
M 341.7 190.1
Q 342.65 190.3 343.7 189.6 345.25 188.5 345.25 188 345.25 187.7 344.95 187.5 343.85 186.7 343.55 186.7 343.35 186.7 342.95 187.2 342.4 187.85 340.75 189.25 340.6 189.25 340.55 189.3 340.5 189.4 340.6 189.5 340.65 189.6 340.75 189.7 341.15 190 341.7 190.1
M 324.6 195.65
Q 324.8 195.15 324.75 194.9 324.75 194.65 324.3 194.35 323.3 193.6 323.05 193.6 322.8 193.6 322.55 194.4 322.4 194.9 321.9 196.05 321.25 197.6 318.85 200.7 316.55 203.7 314.55 205.65 313.7 206.5 313.05 206.5 312.7 206.5 312.7 206.05 312.7 205.95 312.75 205.8 313.2 202.95 315.6 199.3 317.65 196.15 319.35 194.95 320.15 194.35 321.4 194.9 321.55 194.95 321.7 194.95 322.05 194.95 322.05 194.65 322.05 194.5 321.9 194.35 320.1 192.65 319.45 192.65 318.75 192.6 317.9 193.4 315.3 195.85 313.25 199.4 311.25 202.95 310.9 205.6 310.9 205.9 310.9 206.05 310.9 207.1 311.85 207.65 312.5 208.2 312.85 208.2 313.25 208.2 314 207.65 315.05 206.9 317.4 204.25 320.1 201.15 321.7 198.6 320.55 201.65 319.8 206.2 319.7 206.8 319.8 207 319.85 207.25 320.35 207.55 321.2 208.15 321.5 208.15 321.8 208.15 322 207.4 322.55 204.85 324.25 202.35 324.4 202.1 324.4 201.95 324.4 201.7 324.1 201.7 323.8 201.7 323.55 202 323.45 202.1 323.05 202.6 322.6 203.15 322.3 203.4 322.95 200.25 324.6 195.65
M 333.35 193.65
Q 331.95 192.85 331.5 192.85 331.05 192.85 330.35 193.6 328.85 195.25 327.5 198.95 326.25 202.35 326.15 204.25 326.1 205.95 327.15 206.95 328.15 207.9 329.8 208.05 330.65 208.25 331.25 208.25 332.2 208.25 332.55 207.8 334.1 206 335.1 203.65 335.15 203.45 335.15 203.3 335.15 203 334.95 203 334.7 203 334.4 203.35 331.45 207.2 329.9 207.2 328.15 207.25 328.15 204.5 328.15 203.65 328.35 202.65 328.6 201.25 329.35 199.3 330.3 196.9 331.3 195.55 332.25 194.35 332.85 194.35 332.95 194.35 333.15 194.4 333.35 194.45 333.4 194.45 334.2 194.45 334.25 195.25 334.3 196.25 333.65 197.95 333.45 198.15 333.45 198.3 333.45 198.65 334.45 199.25 335.15 199.6 335.45 198.9 336.25 197.2 336.25 194.4 336.25 193.35 334.8 193.35 334.1 193.35 333.35 193.65 Z"/>

<path fill="#343434" stroke="none" d="
M 280.25 189.9
L 280.1 189.9 280.1 190 279.85 190 279.85 190.05 279.65 190.05 279.65 190.2 279.4 190.2 279.4 190.3 279.35 190.3 279.35 190.4 279.05 190.4 279.05 190.5 279 190.5 279 190.65 278.75 190.65 278.75 190.75 278.65 190.75 278.65 190.8 278.55 190.8 278.55 190.95 278.3 190.95 278.3 191.05 278.25 191.05 278.25 191.15 278.15 191.15 278.15 191.25 278 191.25 278 191.35 277.9 191.35 277.9 191.5 277.8 191.5 277.8 191.6 277.7 191.6 277.7 191.8 277.55 191.8 277.55 191.95 277.45 191.95 277.45 192 277.4 192 277.4 192.1 277.25 192.1 277.25 192.35 277.15 192.35 277.15 192.45 277.05 192.45 277.05 192.7 276.95 192.7 276.95 192.8 276.85 192.8 276.85 193 276.7 193 276.7 193.1 276.6 193.1 276.6 193.3 276.5 193.3 276.5 193.55 276.4 193.55 276.4 193.75 276.3 193.75 276.3 194 276.2 194 276.2 194.05 276.1 194.05 276.1 194.3 275.95 194.3 275.95 194.6 275.85 194.6 275.85 194.8 275.75 194.8 275.75 195.5 275.85 195.5 275.85 195.6 275.95 195.6 275.95 195.65 276.2 195.65 276.2 195.8 276.6 195.8 276.6 195.9 276.85 195.9 276.85 195.8 277.25 195.8 277.25 195.65 277.45 195.65 277.45 195.6 277.8 195.6 277.8 195.5 277.9 195.5 277.9 195.35 278.15 195.35 278.15 195.25 278.25 195.25 278.25 195.05 278.3 195.05 278.3 194.8 278.45 194.8 278.45 194.45 278.55 194.45 278.55 194.05 278.65 194.05 278.65 193.65 278.75 193.65 278.75 193.2 278.9 193.2 278.9 192.85 279 192.85 279 192.7 279.05 192.7 279.05 192.45 279.2 192.45 279.2 192.25 279.35 192.25 279.35 192 279.4 192 279.4 191.95 279.5 191.95 279.5 191.65 279.65 191.65 279.65 191.6 279.75 191.6 279.75 191.5 279.95 191.5 279.95 191.35 280.1 191.35 280.1 191.25 280.2 191.25 280.2 191.15 280.35 191.15 280.35 191.05 280.6 191.05 280.6 190.95 280.7 190.95 280.7 190.8 281.05 190.8 281.05 190.75 281.25 190.75 281.25 190.65 281.7 190.65 281.7 190.5 282.9 190.5 282.9 190.65 283.3 190.65 283.3 190.75 283.5 190.75 283.5 190.8 283.75 190.8 283.75 190.95 283.95 190.95 283.95 191.05 284.05 191.05 284.05 191.15 284.15 191.15 284.15 191.25 284.25 191.25 284.25 191.35 284.35 191.35 284.35 191.5 284.5 191.5 284.5 191.65 284.6 191.65 284.6 191.95 284.7 191.95 284.7 192.25 284.8 192.25 284.8 192.7 284.9 192.7 284.9 193.3 285 193.3 285 196.35 284.8 196.35 284.8 196.45 284.6 196.45 284.6 196.55 284.35 196.55 284.35 196.7 284.05 196.7 284.05 196.75 283.85 196.75 283.85 196.85 283.6 196.85 283.6 196.95 283.3 196.95 283.3 197.1 283.05 197.1 283.05 197.2 282.9 197.2 282.9 197.3 282.55 197.3 282.55 197.4 282.3 197.4 282.3 197.5 282.1 197.5 282.1 197.6 281.9 197.6 281.9 197.7 281.7 197.7 281.7 197.85 281.45 197.85 281.45 197.95 281.25 197.95 281.25 198.05 281.05 198.05 281.05 198.15 280.8 198.15 280.8 198.3 280.6 198.3 280.6 198.35 280.5 198.35 280.5 198.45 280.25 198.45 280.25 198.6 280.1 198.6 280.1 198.7 279.95 198.7 279.95 198.8 279.75 198.8 279.75 198.9 279.65 198.9 279.65 199.05 279.5 199.05 279.5 199.15 279.35 199.15 279.35 199.25 279.2 199.25 279.2 199.35 279.05 199.35 279.05 199.45 279 199.45 279 199.55 278.75 199.55 278.75 199.65 278.65 199.65 278.65 199.75 278.55 199.75 278.55 199.9 278.45 199.9 278.45 200 278.3 200 278.3 200.1 278.25 200.1 278.25 200.2 278.15 200.2 278.15 200.3 278 200.3 278 200.4 277.9 200.4 277.9 200.5 277.8 200.5 277.8 200.75 277.7 200.75 277.7 200.85 277.55 200.85 277.55 200.95 277.45 200.95 277.45 201.05 277.4 201.05 277.4 201.3 277.25 201.3 277.25 201.4 277.15 201.4 277.15 201.5 277.05 201.5 277.05 201.7 276.95 201.7 276.95 201.85 276.85 201.85 276.85 202.05 276.7 202.05 276.7 202.25 276.6 202.25 276.6 202.45 276.5 202.45 276.5 202.7 276.4 202.7 276.4 202.9 276.3 202.9 276.3 203.3 276.2 203.3 276.2 204.5 276.3 204.5 276.3 204.8 276.4 204.8 276.4 205.05 276.5 205.05 276.5 205.15 276.6 205.15 276.6 205.35 276.7 205.35 276.7 205.5 276.85 205.5 276.85 205.6 276.95 205.6 276.95 205.7 277.15 205.7 277.15 205.8 277.25 205.8 277.25 205.9 277.55 205.9 277.55 206 278.15 206 278.15 206.1 279.05 206.1 279.05 206 280.1 206 280.1 205.9 280.7 205.9 280.7 205.8 281.05 205.8 281.05 205.7 281.35 205.7 281.35 205.6 281.55 205.6 281.55 205.5 281.8 205.5 281.8 205.35 282 205.35 282 205.25 282.2 205.25 282.2 205.15 282.3 205.15 282.3 205.05 282.55 205.05 282.55 204.95 282.75 204.95 282.75 204.8 282.9 204.8 282.9 204.75 283.05 204.75 283.05 204.65 283.15 204.65 283.15 204.5 283.4 204.5 283.4 204.4 283.5 204.4 283.5 204.3 283.6 204.3 283.6 204.2 283.85 204.2 283.85 204.05 283.95 204.05 283.95 204 284.15 204 284.15 203.85 284.25 203.85 284.25 203.75 284.5 203.75 284.5 203.65 284.6 203.65 284.6 203.55 284.8 203.55 284.8 203.45 284.9 203.45 284.9 204 285 204 285 204.4 285.1 204.4 285.1 204.75 285.25 204.75 285.25 204.95 285.35 204.95 285.35 205.15 285.45 205.15 285.45 205.25 285.55 205.25 285.55 205.35 285.65 205.35 285.65 205.5 285.8 205.5 285.8 205.6 285.9 205.6 285.9 205.7 286.1 205.7 286.1 205.8 286.3 205.8 286.3 205.9 286.55 205.9 286.55 206 286.95 206 286.95 206.1 288.5 206.1 288.5 206 288.8 206 288.8 205.9 289 205.9 289 205.8 289.1 205.8 289.1 205.7 289.35 205.7 289.35 205.6 289.45 205.6 289.45 205.5 289.55 205.5 289.55 205.35 289.65 205.35 289.65 205.25 289.75 205.25 289.75 205.15 289.85 205.15 289.85 205.05 289.95 205.05 289.95 204.95 290.1 204.95 290.1 204.8 290.2 204.8 290.2 204.65 290.3 204.65 290.3 204.5 290.4 204.5 290.4 204.3 290.5 204.3 290.5 204.05 290.65 204.05 290.65 204 290.7 204 290.7 203.75 290.85 203.75 290.85 203.45 290.95 203.45 290.95 203.1 290.85 203.1 290.85 202.9 290.5 202.9 290.5 203 290.3 203 290.3 203.1 290.2 203.1 290.2 203.3 290.1 203.3 290.1 203.45 289.95 203.45 289.95 203.55 289.85 203.55 289.85 203.65 289.75 203.65 289.75 203.75 289.65 203.75 289.65 203.85 289.45 203.85 289.45 204 289.2 204 289.2 204.05 288.35 204.05 288.35 204 288.15 204 288.15 203.85 287.95 203.85 287.95 203.75 287.8 203.75 287.8 203.55 287.7 203.55 287.7 203.45 287.6 203.45 287.6 203.1 287.5 203.1 287.5 197.5 287.6 197.5 287.6 192.85 287.5 192.85 287.5 192 287.4 192 287.4 191.65 287.3 191.65 287.3 191.35 287.15 191.35 287.15 191.15 287.05 191.15 287.05 191.05 286.95 191.05 286.95 190.8 286.85 190.8 286.85 190.75 286.75 190.75 286.75 190.65 286.65 190.65 286.65 190.5 286.55 190.5 286.55 190.3 286.3 190.3 286.3 190.2 286.2 190.2 286.2 190.05 286.1 190.05 286.1 190 285.95 190 285.95 189.9 285.8 189.9 285.8 189.75 285.65 189.75 285.65 189.65 285.45 189.65 285.45 189.55 285.1 189.55 285.1 189.45 284.7 189.45 284.7 189.3 284.05 189.3 284.05 189.2 281.9 189.2 281.9 189.3 281.45 189.3 281.45 189.45 281.1 189.45 281.1 189.55 280.8 189.55 280.8 189.65 280.5 189.65 280.5 189.75 280.25 189.75 280.25 189.9
M 283.75 197.7
L 284.05 197.7 284.05 197.6 284.25 197.6 284.25 197.5 284.5 197.5 284.5 197.4 284.8 197.4 284.8 197.3 284.9 197.3 284.9 198.45 285 198.45 285 199.15 284.9 199.15 284.9 201.7 284.8 201.7 284.8 202.35 284.7 202.35 284.7 202.45 284.6 202.45 284.6 202.55 284.5 202.55 284.5 202.7 284.35 202.7 284.35 202.8 284.25 202.8 284.25 202.9 284.15 202.9 284.15 203 284.05 203 284.05 203.1 283.85 203.1 283.85 203.2 283.75 203.2 283.75 203.3 283.6 203.3 283.6 203.45 283.4 203.45 283.4 203.55 283.3 203.55 283.3 203.65 283.05 203.65 283.05 203.75 282.95 203.75 282.95 203.85 282.75 203.85 282.75 204 282.55 204 282.55 204.05 282.3 204.05 282.3 204.2 282.1 204.2 282.1 204.3 281.9 204.3 281.9 204.4 281.55 204.4 281.55 204.5 280.25 204.5 280.25 204.4 279.95 204.4 279.95 204.3 279.85 204.3 279.85 204.2 279.65 204.2 279.65 204.05 279.5 204.05 279.5 204 279.4 204 279.4 203.75 279.35 203.75 279.35 203.65 279.2 203.65 279.2 203.3 279.05 203.3 279.05 202.25 279.2 202.25 279.2 201.85 279.35 201.85 279.35 201.6 279.4 201.6 279.4 201.4 279.5 201.4 279.5 201.15 279.65 201.15 279.65 201.05 279.75 201.05 279.75 200.85 279.85 200.85 279.85 200.75 279.95 200.75 279.95 200.65 280.1 200.65 280.1 200.4 280.2 200.4 280.2 200.3 280.25 200.3 280.25 200.2 280.35 200.2 280.35 200.1 280.5 200.1 280.5 200 280.6 200 280.6 199.9 280.7 199.9 280.7 199.75 280.8 199.75 280.8 199.65 280.95 199.65 280.95 199.55 281.05 199.55 281.05 199.45 281.25 199.45 281.25 199.35 281.35 199.35 281.35 199.25 281.45 199.25 281.45 199.15 281.55 199.15 281.55 199.05 281.8 199.05 281.8 198.9 281.9 198.9 281.9 198.8 282.1 198.8 282.1 198.7 282.2 198.7 282.2 198.6 282.45 198.6 282.45 198.45 282.65 198.45 282.65 198.35 282.75 198.35 282.75 198.3 282.95 198.3 282.95 198.15 283.15 198.15 283.15 198.05 283.3 198.05 283.3 197.95 283.5 197.95 283.5 197.85 283.75 197.85 283.75 197.7
M 271.1 187.95
L 271 187.95 271 187.85 270.35 187.85 270.35 187.95 270.25 187.95 270.25 188.15 270.15 188.15 270.15 188.25 270.05 188.25 270.05 188.35 269.9 188.35 269.9 188.45 269.8 188.45 269.8 188.7 269.7 188.7 269.7 188.8 269.6 188.8 269.6 188.9 269.5 188.9 269.5 189 269.4 189 269.4 189.15 269.3 189.15 269.3 189.2 269.05 189.2 269.05 189.3 268.95 189.3 268.95 189.45 268.9 189.45 268.9 189.55 268.75 189.55 268.75 189.65 268.55 189.65 268.55 189.75 268.45 189.75 268.45 189.9 268.2 189.9 268.2 190 268.1 190 268.1 190.05 267.85 190.05 267.85 190.2 267.7 190.2 267.7 190.3 267.45 190.3 267.45 190.4 267.1 190.4 267.1 190.5 266.7 190.5 266.7 190.65 266.35 190.65 266.35 190.75 266.15 190.75 266.15 190.95 266.05 190.95 266.05 191.05 266.15 191.05 266.15 191.15 266.05 191.15 266.05 191.25 266.15 191.25 266.15 191.35 266.35 191.35 266.35 191.5 266.8 191.5 266.8 191.6 267.1 191.6 267.1 191.65 267.45 191.65 267.45 191.8 267.7 191.8 267.7 191.95 267.85 191.95 267.85 192 268 192 268 192.1 268.2 192.1 268.2 192.25 268.3 192.25 268.3 192.35 268.45 192.35 268.45 192.55 268.55 192.55 268.55 194.15 268.6 194.15 268.6 194.45 268.55 194.45 268.55 194.6 268.6 194.6 268.6 194.9 268.55 194.9 268.55 195.05 268.6 195.05 268.6 195.15 268.55 195.15 268.55 195.25 268.6 195.25 268.6 195.35 268.55 195.35 268.55 195.5 268.6 195.5 268.6 195.6 268.55 195.6 268.55 195.9 268.6 195.9 268.6 196 268.55 196 268.55 203.55 268.45 203.55 268.45 203.85 268.3 203.85 268.3 204 268.2 204 268.2 204.2 268 204.2 268 204.3 267.75 204.3 267.75 204.4 267.45 204.4 267.45 204.5 267 204.5 267 204.65 266.5 204.65 266.5 204.75 265.95 204.75 265.95 204.8 265.5 204.8 265.5 204.95 265.2 204.95 265.2 205.05 265.05 205.05 265.05 205.15 265 205.15 265 205.6 265.05 205.6 265.05 205.7 266.25 205.7 266.25 205.6 269.3 205.6 269.3 205.5 270.15 205.5 270.15 205.6 271.7 205.6 271.7 205.7 273.5 205.7 273.5 205.8 274.05 205.8 274.05 205.6 274.15 205.6 274.15 205.25 274.05 205.25 274.05 205.15 273.8 205.15 273.8 205.05 273.5 205.05 273.5 204.95 273.15 204.95 273.15 204.8 272.7 204.8 272.7 204.75 272.4 204.75 272.4 204.65 272.1 204.65 272.1 204.5 271.75 204.5 271.75 204.4 271.55 204.4 271.55 204.3 271.45 204.3 271.45 204.2 271.25 204.2 271.25 204 271.1 204 271.1 203.45 271 203.45 271 202.25 271.1 202.25 271.1 202.15 271 202.15 271 202.05 271.1 202.05 271.1 201.95 271 201.95 271 201.85 271.1 201.85 271.1 187.95
M 270.05 179.3
L 269.05 179.3 269.05 179.45 268.75 179.45 268.75 179.55 268.55 179.55 268.55 179.65 268.45 179.65 268.45 179.75 268.3 179.75 268.3 179.85 268.2 179.85 268.2 179.95 268.1 179.95 268.1 180.05 268 180.05 268 180.3 267.85 180.3 267.85 180.6 267.75 180.6 267.75 181.35 267.85 181.35 267.85 181.8 268 181.8 268 182 268.1 182 268.1 182.1 268.2 182.1 268.2 182.25 268.3 182.25 268.3 182.35 268.45 182.35 268.45 182.45 268.55 182.45 268.55 182.55 268.75 182.55 268.75 182.65 269.05 182.65 269.05 182.75 270.05 182.75 270.05 182.65 270.35 182.65 270.35 182.55 270.55 182.55 270.55 182.45 270.7 182.45 270.7 182.35 270.8 182.35 270.8 182.25 270.9 182.25 270.9 182.1 271 182.1 271 182 271.1 182 271.1 181.9 271.25 181.9 271.25 181.65 271.35 181.65 271.35 181.5 271.45 181.5 271.45 180.6 271.35 180.6 271.35 180.4 271.25 180.4 271.25 180.2 271.1 180.2 271.1 180.05 271 180.05 271 179.95 270.9 179.95 270.9 179.85 270.8 179.85 270.8 179.75 270.7 179.75 270.7 179.65 270.55 179.65 270.55 179.55 270.35 179.55 270.35 179.45 270.05 179.45 270.05 179.3
M 249 187.85
L 248.95 187.85 248.95 187.95 248.8 187.95 248.8 188.05 248.7 188.05 248.7 188.25 248.6 188.25 248.6 188.35 248.5 188.35 248.5 188.45 248.4 188.45 248.4 188.6 248.25 188.6 248.25 188.7 248.2 188.7 248.2 188.8 248.05 188.8 248.05 188.9 247.95 188.9 247.95 189 247.85 189 247.85 189.15 247.65 189.15 247.65 189.2 247.5 189.2 247.5 189.3 247.4 189.3 247.4 189.45 247.2 189.45 247.2 189.55 247 189.55 247 189.65 246.75 189.65 246.75 189.75 246.55 189.75 246.55 189.9 246.3 189.9 246.3 190 246.15 190 246.15 190.05 245.9 190.05 245.9 190.2 245.7 190.2 245.7 190.3 245.35 190.3 245.35 190.4 245.15 190.4 245.15 190.5 244.95 190.5 244.95 190.65 244.7 190.65 244.7 190.75 244.6 190.75 244.6 191.15 244.5 191.15 244.5 191.25 244.6 191.25 244.6 191.35 245.15 191.35 245.15 191.5 245.6 191.5 245.6 191.6 245.9 191.6 245.9 191.65 246.25 191.65 246.25 191.8 246.45 191.8 246.45 191.95 246.55 191.95 246.55 192 246.65 192 246.65 192.1 246.75 192.1 246.75 192.25 246.9 192.25 246.9 192.55 247 192.55 247 193.55 247.1 193.55 247.1 202.7 247.2 202.7 247.2 209.25 247.3 209.25 247.3 214.1 247.2 214.1 247.2 214.4 247.1 214.4 247.1 214.5 247 214.5 247 214.65 246.9 214.65 246.9 214.75 246.75 214.75 246.75 214.85 246.55 214.85 246.55 214.95 246.25 214.95 246.25 215.05 245.7 215.05 245.7 215.2 245.15 215.2 245.15 215.25 244.6 215.25 244.6 215.4 244.4 215.4 244.4 216.1 246.05 216.1 246.05 216.25 253.45 216.25 253.45 216.1 253.85 216.1 253.85 216 253.8 216 253.8 215.7 253.7 215.7 253.7 215.6 253.55 215.6 253.55 215.5 253.45 215.5 253.45 215.4 253.35 215.4 253.35 215.25 253.05 215.25 253.05 215.2 252.6 215.2 252.6 215.05 251.9 215.05 251.9 214.95 251 214.95 251 214.85 250.55 214.85 250.55 214.75 250.45 214.75 250.45 214.65 250.2 214.65 250.2 214.4 250.15 214.4 250.15 213.75 250 213.75 250 212.5 249.85 212.5 249.85 204.75 250.15 204.75 250.15 204.8 250.3 204.8 250.3 204.95 250.65 204.95 250.65 205.05 250.9 205.05 250.9 205.15 251.2 205.15 251.2 205.25 251.4 205.25 251.4 205.35 251.75 205.35 251.75 205.5 252.05 205.5 252.05 205.6 252.5 205.6 252.5 205.7 252.9 205.7 252.9 205.8 253.45 205.8 253.45 205.9 256.05 205.9 256.05 205.8 256.65 205.8 256.65 205.7 257.1 205.7 257.1 205.6 257.45 205.6 257.45 205.5 257.75 205.5 257.75 205.35 258.1 205.35 258.1 205.25 258.4 205.25 258.4 205.15 258.6 205.15 258.6 205.05 258.85 205.05 258.85 204.95 259.05 204.95 259.05 204.8 259.3 204.8 259.3 204.75 259.5 204.75 259.5 204.65 259.7 204.65 259.7 204.5 259.8 204.5 259.8 204.4 260.05 204.4 260.05 204.3 260.15 204.3 260.15 204.2 260.35 204.2 260.35 204.05 260.45 204.05 260.45 204 260.55 204 260.55 203.85 260.65 203.85 260.65 203.75 260.75 203.75 260.75 203.65 261 203.65 261 203.55 261.1 203.55 261.1 203.45 261.2 203.45 261.2 203.2 261.3 203.2 261.3 203.1 261.45 203.1 261.45 203 261.5 203 261.5 202.9 261.65 202.9 261.65 202.8 261.75 202.8 261.75 202.55 261.85 202.55 261.85 202.45 261.95 202.45 261.95 202.35 262.05 202.35 262.05 202.15 262.2 202.15 262.2 201.95 262.3 201.95 262.3 201.85 262.4 201.85 262.4 201.6 262.5 201.6 262.5 201.4 262.6 201.4 262.6 201.15 262.7 201.15 262.7 200.95 262.85 200.95 262.85 200.65 262.95 200.65 262.95 200.4 263.05 200.4 263.05 200 263.15 200 263.15 199.65 263.25 199.65 263.25 199.15 263.35 199.15 263.35 198.45 263.45 198.45 263.45 196.25 263.35 196.25 263.35 195.5 263.25 195.5 263.25 195.05 263.15 195.05 263.15 194.6 263.05 194.6 263.05 194.3 262.95 194.3 262.95 194.05 262.85 194.05 262.85 193.75 262.7 193.75 262.7 193.55 262.6 193.55 262.6 193.3 262.5 193.3 262.5 193.2 262.4 193.2 262.4 193 262.3 193 262.3 192.8 262.2 192.8 262.2 192.7 262.05 192.7 262.05 192.45 261.95 192.45 261.95 192.35 261.85 192.35 261.85 192.25 261.75 192.25 261.75 192.1 261.65 192.1 261.65 192 261.5 192 261.5 191.8 261.45 191.8 261.45 191.65 261.3 191.65 261.3 191.6 261.2 191.6 261.2 191.5 261.1 191.5 261.1 191.35 260.9 191.35 260.9 191.25 260.75 191.25 260.75 191.15 260.65 191.15 260.65 191.05 260.55 191.05 260.55 190.95 260.45 190.95 260.45 190.8 260.25 190.8 260.25 190.75 260.15 190.75 260.15 190.65 259.9 190.65 259.9 190.5 259.8 190.5 259.8 190.4 259.6 190.4 259.6 190.3 259.35 190.3 259.35 190.2 259.15 190.2 259.15 190.05 258.95 190.05 258.95 190 258.6 190 258.6 189.9 258.3 189.9 258.3 189.75 257.85 189.75 257.85 189.65 257.35 189.65 257.35 189.55 254.65 189.55 254.65 189.65 254 189.65 254 189.75 253.55 189.75 253.55 189.9 253.1 189.9 253.1 190 252.8 190 252.8 190.05 252.5 190.05 252.5 190.2 252.25 190.2 252.25 190.3 251.9 190.3 251.9 190.4 251.75 190.4 251.75 190.5 251.5 190.5 251.5 190.65 251.3 190.65 251.3 190.75 251.05 190.75 251.05 190.8 250.9 190.8 250.9 190.95 250.75 190.95 250.75 191.05 250.55 191.05 250.55 191.15 250.3 191.15 250.3 191.25 250.2 191.25 250.2 191.35 250.15 191.35 250.15 191.5 249.85 191.5 249.85 191.6 249.8 191.6 249.8 191.65 249.7 191.65 249.7 187.95 249.55 187.95 249.55 187.85 249.35 187.85 249.35 187.7 249 187.7 249 187.85
M 252.6 191.65
L 252.6 191.6 253.25 191.6 253.25 191.5 254.7 191.5 254.7 191.6 255.5 191.6 255.5 191.65 255.9 191.65 255.9 191.8 256.35 191.8 256.35 191.95 256.6 191.95 256.6 192 256.9 192 256.9 192.1 257.1 192.1 257.1 192.25 257.35 192.25 257.35 192.35 257.45 192.35 257.45 192.45 257.65 192.45 257.65 192.55 257.75 192.55 257.75 192.7 257.95 192.7 257.95 192.8 258.1 192.8 258.1 192.85 258.2 192.85 258.2 193 258.4 193 258.4 193.1 258.5 193.1 258.5 193.2 258.6 193.2 258.6 193.3 258.7 193.3 258.7 193.45 258.85 193.45 258.85 193.55 258.95 193.55 258.95 193.75 259.05 193.75 259.05 193.85 259.15 193.85 259.15 194 259.3 194 259.3 194.15 259.35 194.15 259.35 194.3 259.5 194.3 259.5 194.45 259.6 194.45 259.6 194.6 259.7 194.6 259.7 194.8 259.8 194.8 259.8 195.05 259.9 195.05 259.9 195.25 260.05 195.25 260.05 195.6 260.15 195.6 260.15 195.9 260.25 195.9 260.25 196.25 260.35 196.25 260.35 196.7 260.45 196.7 260.45 197.3 260.55 197.3 260.55 199.9 260.45 199.9 260.45 200.4 260.35 200.4 260.35 200.85 260.25 200.85 260.25 201.15 260.15 201.15 260.15 201.4 260.05 201.4 260.05 201.7 259.9 201.7 259.9 201.95 259.8 201.95 259.8 202.05 259.7 202.05 259.7 202.25 259.6 202.25 259.6 202.35 259.5 202.35 259.5 202.55 259.35 202.55 259.35 202.7 259.3 202.7 259.3 202.8 259.15 202.8 259.15 203 259.05 203 259.05 203.1 258.95 203.1 258.95 203.2 258.85 203.2 258.85 203.3 258.7 203.3 258.7 203.45 258.6 203.45 258.6 203.55 258.4 203.55 258.4 203.65 258.3 203.65 258.3 203.75 258.2 203.75 258.2 203.85 257.95 203.85 257.95 204 257.85 204 257.85 204.05 257.65 204.05 257.65 204.2 257.5 204.2 257.5 204.3 257.35 204.3 257.35 204.4 257.1 204.4 257.1 204.5 256.8 204.5 256.8 204.65 256.5 204.65 256.5 204.75 256.05 204.75 256.05 204.8 255.4 204.8 255.4 204.95 253.7 204.95 253.7 204.8 252.9 204.8 252.9 204.75 252.5 204.75 252.5 204.65 252.15 204.65 252.15 204.5 251.85 204.5 251.85 204.4 251.65 204.4 251.65 204.3 251.4 204.3 251.4 204.2 251.2 204.2 251.2 204.05 251.05 204.05 251.05 204 250.9 204 250.9 203.85 250.75 203.85 250.75 203.75 250.65 203.75 250.65 203.65 250.55 203.65 250.55 203.55 250.45 203.55 250.45 203.3 250.3 203.3 250.3 203.2 250.2 203.2 250.2 203 250.15 203 250.15 202.7 250 202.7 250 202.45 249.85 202.45 249.85 202.05 249.8 202.05 249.8 201.05 249.7 201.05 249.7 193.1 249.8 193.1 249.8 193 249.85 193 249.85 192.85 250 192.85 250 192.8 250.2 192.8 250.2 192.7 250.3 192.7 250.3 192.55 250.45 192.55 250.45 192.45 250.65 192.45 250.65 192.35 250.9 192.35 250.9 192.25 251 192.25 251 192.1 251.3 192.1 251.3 192 251.5 192 251.5 191.95 251.75 191.95 251.75 191.8 252.05 191.8 252.05 191.65 252.6 191.65
M 222.55 197.6
L 222.45 197.6 222.45 197.95 222.3 197.95 222.3 198.3 222.2 198.3 222.2 198.6 222.1 198.6 222.1 198.8 222 198.8 222 199.15 221.85 199.15 221.85 199.45 221.8 199.45 221.8 199.65 221.7 199.65 221.7 200 221.55 200 221.55 200.2 221.4 200.2 221.4 200.5 221.35 200.5 221.35 200.85 221.25 200.85 221.25 201.05 221.1 201.05 221.1 201.3 221 201.3 221 201.6 220.9 201.6 220.9 201.85 220.8 201.85 220.8 202.05 220.65 202.05 220.65 202.35 220.6 202.35 220.6 202.55 220.5 202.55 220.5 202.8 220.4 202.8 220.4 203 220.25 203 220.25 203.2 220.15 203.2 220.15 203.3 220.05 203.3 220.05 203.55 219.95 203.55 219.95 203.75 219.8 203.75 219.8 203.85 219.75 203.85 219.75 204 219.65 204 219.65 204.05 219.5 204.05 219.5 204.2 219.4 204.2 219.4 204.3 219.3 204.3 219.3 204.4 219.05 204.4 219.05 204.5 218.9 204.5 218.9 204.65 218.3 204.65 218.3 204.75 217.35 204.75 217.35 204.8 215.95 204.8 215.95 204.95 215.7 204.95 215.7 205.15 215.65 205.15 215.65 205.5 215.95 205.5 215.95 205.6 218 205.6 218 205.5 220.6 205.5 220.6 205.6 224.25 205.6 224.25 205.7 224.8 205.7 224.8 205.6 226 205.6 226 205.15 225.85 205.15 225.85 205.05 225.75 205.05 225.75 204.95 224.9 204.95 224.9 204.8 223.75 204.8 223.75 204.75 222.75 204.75 222.75 204.65 222.2 204.65 222.2 204.5 221.85 204.5 221.85 204.3 221.8 204.3 221.8 203.45 221.85 203.45 221.85 203.1 222 203.1 222 202.8 222.1 202.8 222.1 202.45 222.2 202.45 222.2 202.15 222.3 202.15 222.3 201.85 222.45 201.85 222.45 201.5 222.55 201.5 222.55 201.15 222.6 201.15 222.6 200.85 222.75 200.85 222.75 200.5 222.85 200.5 222.85 200.2 223 200.2 223 199.9 223.05 199.9 223.05 199.55 223.2 199.55 223.2 199.25 223.3 199.25 223.3 198.9 223.4 198.9 223.4 198.6 223.45 198.6 223.45 198.3 223.6 198.3 223.6 197.95 223.75 197.95 223.75 197.6 223.8 197.6 223.8 197.2 223.9 197.2 223.9 196.85 224.05 196.85 224.05 196.55 224.15 196.55 224.15 196.25 224.25 196.25 224.25 195.9 224.35 195.9 224.35 195.6 224.5 195.6 224.5 195.25 224.6 195.25 224.6 194.9 224.65 194.9 224.65 194.6 224.8 194.6 224.8 194.3 224.9 194.3 224.9 194.05 225.55 194.05 225.55 194 233 194 233 194.05 233.5 194.05 233.5 194.4 233.6 194.4 233.6 194.75 233.75 194.75 233.75 194.9 233.85 194.9 233.85 195.25 233.95 195.25 233.95 195.6 234.05 195.6 234.05 195.9 234.15 195.9 234.15 196.1 234.25 196.1 234.25 196.45 234.4 196.45 234.4 196.75 234.5 196.75 234.5 196.95 234.6 196.95 234.6 197.3 234.7 197.3 234.7 197.6 234.8 197.6 234.8 197.95 234.95 197.95 234.95 198.15 235 198.15 235 198.45 235.1 198.45 235.1 198.8 235.25 198.8 235.25 199.15 235.35 199.15 235.35 199.45 235.45 199.45 235.45 199.75 235.55 199.75 235.55 200.1 235.7 200.1 235.7 200.4 235.8 200.4 235.8 200.75 235.9 200.75 235.9 201.05 236 201.05 236 201.4 236.1 201.4 236.1 201.7 236.2 201.7 236.2 202.05 236.3 202.05 236.3 202.35 236.45 202.35 236.45 202.7 236.55 202.7 236.55 203 236.65 203 236.65 203.45 236.75 203.45 236.75 204.2 236.65 204.2 236.65 204.3 236.55 204.3 236.55 204.4 236.2 204.4 236.2 204.5 235.1 204.5 235.1 204.65 233.4 204.65 233.4 204.75 233 204.75 233 204.8 232.85 204.8 232.85 204.95 232.75 204.95 232.75 205.5 233.85 205.5 233.85 205.6 240.85 205.6 240.85 205.7 243.4 205.7 243.4 205.6 243.55 205.6 243.55 204.95 243.3 204.95 243.3 204.8 243.1 204.8 243.1 204.75 242.65 204.75 242.65 204.65 242.35 204.65 242.35 204.5 242.05 204.5 242.05 204.4 241.6 204.4 241.6 204.3 241.15 204.3 241.15 204.2 240.7 204.2 240.7 204.05 240.5 204.05 240.5 204 240.45 204 240.45 203.85 240.3 203.85 240.3 203.65 240.2 203.65 240.2 203.55 240.1 203.55 240.1 203.3 240 203.3 240 203.1 239.85 203.1 239.85 202.9 239.75 202.9 239.75 202.7 239.7 202.7 239.7 202.35 239.55 202.35 239.55 202.15 239.45 202.15 239.45 201.85 239.35 201.85 239.35 201.6 239.25 201.6 239.25 201.3 239.1 201.3 239.1 200.95 239 200.95 239 200.65 238.9 200.65 238.9 200.3 238.8 200.3 238.8 200 238.65 200 238.65 199.75 238.6 199.75 238.6 199.45 238.5 199.45 238.5 199.15 238.35 199.15 238.35 198.8 238.25 198.8 238.25 198.45 238.15 198.45 238.15 198.15 238.05 198.15 238.05 197.85 237.9 197.85 237.9 197.6 237.85 197.6 237.85 197.3 237.7 197.3 237.7 196.95 237.6 196.95 237.6 196.7 237.5 196.7 237.5 196.35 237.4 196.35 237.4 196.1 237.3 196.1 237.3 195.8 237.2 195.8 237.2 195.5 237.05 195.5 237.05 195.25 236.95 195.25 236.95 194.9 236.85 194.9 236.85 194.6 236.75 194.6 236.75 194.3 236.65 194.3 236.65 194.05 236.55 194.05 236.55 193.75 236.45 193.75 236.45 193.45 236.3 193.45 236.3 193.1 236.2 193.1 236.2 192.85 236.1 192.85 236.1 192.55 236 192.55 236 192.25 235.9 192.25 235.9 192 235.8 192 235.8 191.65 235.7 191.65 235.7 191.35 235.55 191.35 235.55 191.15 235.45 191.15 235.45 190.8 235.35 190.8 235.35 190.5 235.25 190.5 235.25 190.2 235.1 190.2 235.1 190 235 190 235 189.65 234.95 189.65 234.95 189.3 234.8 189.3 234.8 189.15 234.7 189.15 234.7 188.8 234.6 188.8 234.6 188.45 234.5 188.45 234.5 188.15 234.4 188.15 234.4 187.95 234.25 187.95 234.25 187.6 234.15 187.6 234.15 187.3 234.05 187.3 234.05 187.1 233.95 187.1 233.95 186.75 233.85 186.75 233.85 186.4 233.75 186.4 233.75 186.2 233.6 186.2 233.6 185.9 233.5 185.9 233.5 185.55 233.4 185.55 233.4 185.35 233.3 185.35 233.3 185.05 233.2 185.05 233.2 184.7 233.1 184.7 233.1 184.45 233 184.45 233 184.15 232.85 184.15 232.85 183.95 232.75 183.95 232.75 183.6 232.65 183.6 232.65 183.4 232.55 183.4 232.55 183.1 232.45 183.1 232.45 182.75 232.3 182.75 232.3 182.45 232.25 182.45 232.25 182.25 232.1 182.25 232.1 181.9 232 181.9 232 181.6 231.9 181.6 231.9 181.25 231.8 181.25 231.8 181.05 231.7 181.05 231.7 180.7 231.6 180.7 231.6 180.5 231.45 180.5 231.45 180.2 231.35 180.2 231.35 179.95 231.25 179.95 231.25 179.75 231.15 179.75 231.15 179.45 231.05 179.45 231.05 179.2 230.9 179.2 230.9 179 230.85 179 230.85 178.8 230.7 178.8 230.7 178.65 229.3 178.65 229.3 179 229.2 179 229.2 179.3 229.1 179.3 229.1 179.65 229 179.65 229 179.95 228.9 179.95 228.9 180.4 228.8 180.4 228.8 180.6 228.65 180.6 228.65 180.9 228.55 180.9 228.55 181.25 228.45 181.25 228.45 181.6 228.35 181.6 228.35 181.8 228.2 181.8 228.2 182.1 228.15 182.1 228.15 182.45 228.05 182.45 228.05 182.75 227.9 182.75 227.9 183 227.8 183 227.8 183.3 227.7 183.3 227.7 183.5 227.6 183.5 227.6 183.85 227.45 183.85 227.45 184.15 227.35 184.15 227.35 184.35 227.3 184.35 227.3 184.7 227.15 184.7 227.15 185.05 227.05 185.05 227.05 185.2 226.95 185.2 226.95 185.55 226.85 185.55 226.85 185.9 226.7 185.9 226.7 186.1 226.6 186.1 226.6 186.4 226.55 186.4 226.55 186.75 226.4 186.75 226.4 187.1 226.25 187.1 226.25 187.3 226.2 187.3 226.2 187.6 226.1 187.6 226.1 187.95 226 187.95 226 188.25 225.85 188.25 225.85 188.45 225.75 188.45 225.75 188.8 225.7 188.8 225.7 189.15 225.55 189.15 225.55 189.45 225.4 189.45 225.4 189.75 225.35 189.75 225.35 190 225.25 190 225.25 190.3 225.1 190.3 225.1 190.65 225 190.65 225 190.95 224.9 190.95 224.9 191.25 224.8 191.25 224.8 191.5 224.65 191.5 224.65 191.8 224.6 191.8 224.6 192.1 224.5 192.1 224.5 192.45 224.35 192.45 224.35 192.7 224.25 192.7 224.25 193 224.15 193 224.15 193.3 224.05 193.3 224.05 193.65 223.9 193.65 223.9 194 223.8 194 223.8 194.15 223.75 194.15 223.75 194.4 223.6 194.4 223.6 194.75 223.45 194.75 223.45 195.05 223.4 195.05 223.4 195.25 223.3 195.25 223.3 195.6 223.2 195.6 223.2 195.8 223.05 195.8 223.05 196.1 223 196.1 223 196.45 222.85 196.45 222.85 196.75 222.75 196.75 222.75 197.1 222.6 197.1 222.6 197.4 222.55 197.4 222.55 197.6
M 229.3 183
L 229.3 183.3 229.4 183.3 229.4 183.5 229.5 183.5 229.5 183.85 229.65 183.85 229.65 184.05 229.75 184.05 229.75 184.35 229.85 184.35 229.85 184.6 229.95 184.6 229.95 184.9 230.05 184.9 230.05 185.2 230.15 185.2 230.15 185.5 230.3 185.5 230.3 185.8 230.4 185.8 230.4 185.95 230.5 185.95 230.5 186.3 230.6 186.3 230.6 186.5 230.7 186.5 230.7 186.85 230.85 186.85 230.85 187.1 230.9 187.1 230.9 187.4 231.05 187.4 231.05 187.6 231.15 187.6 231.15 187.95 231.25 187.95 231.25 188.25 231.35 188.25 231.35 188.45 231.45 188.45 231.45 188.8 231.6 188.8 231.6 189.15 231.7 189.15 231.7 189.3 231.8 189.3 231.8 189.65 231.9 189.65 231.9 190 232 190 232 190.2 232.1 190.2 232.1 190.5 232.25 190.5 232.25 190.8 232.3 190.8 232.3 191.05 232.45 191.05 232.45 191.35 232.55 191.35 232.55 191.65 232.65 191.65 232.65 192 232.75 192 232.75 192.35 232.85 192.35 232.85 192.7 233 192.7 233 193 231.05 193 231.05 193.1 230.9 193.1 230.9 193 230.85 193 230.85 193.1 230.5 193.1 230.5 193 230.4 193 230.4 193.1 230.05 193.1 230.05 193 229.95 193 229.95 193.1 229.65 193.1 229.65 193 229.5 193 229.5 193.1 229.4 193.1 229.4 193 229.3 193 229.3 193.1 229.2 193.1 229.2 193 229.1 193 229.1 193.1 229 193.1 229 193 225.55 193 225.55 192.85 225.25 192.85 225.25 192.8 225.35 192.8 225.35 192.45 225.4 192.45 225.4 192 225.55 192 225.55 191.65 225.7 191.65 225.7 191.35 225.75 191.35 225.75 191.05 225.85 191.05 225.85 190.8 226 190.8 226 190.5 226.1 190.5 226.1 190.2 226.2 190.2 226.2 189.9 226.25 189.9 226.25 189.55 226.4 189.55 226.4 189.2 226.55 189.2 226.55 188.9 226.6 188.9 226.6 188.6 226.7 188.6 226.7 188.35 226.85 188.35 226.85 188.05 226.95 188.05 226.95 187.7 227.05 187.7 227.05 187.4 227.15 187.4 227.15 187.15 227.3 187.15 227.3 186.85 227.35 186.85 227.35 186.65 227.45 186.65 227.45 186.3 227.6 186.3 227.6 186.1 227.7 186.1 227.7 185.8 227.8 185.8 227.8 185.55 227.9 185.55 227.9 185.2 228.05 185.2 228.05 185.05 228.15 185.05 228.15 184.7 228.2 184.7 228.2 184.45 228.35 184.45 228.35 184.3 228.45 184.3 228.45 183.95 228.55 183.95 228.55 183.7 228.65 183.7 228.65 183.5 228.8 183.5 228.8 183.2 228.9 183.2 228.9 183 229 183 229 182.75 229.2 182.75 229.2 183 229.3 183
M 190.6 181.15
L 190.5 181.15 190.5 181.35 190.45 181.35 190.45 181.6 190.3 181.6 190.3 181.8 190.2 181.8 190.2 181.9 190.1 181.9 190.1 182.1 190 182.1 190 182.35 189.85 182.35 189.85 182.55 189.75 182.55 189.75 182.65 189.7 182.65 189.7 182.85 189.55 182.85 189.55 183.1 189.45 183.1 189.45 183.3 189.35 183.3 189.35 183.5 189.25 183.5 189.25 183.6 189.15 183.6 189.15 183.85 189 183.85 189 184.05 188.9 184.05 188.9 184.3 188.85 184.3 188.85 184.45 188.7 184.45 188.7 184.6 188.6 184.6 188.6 184.8 188.5 184.8 188.5 185.05 188.4 185.05 188.4 185.2 188.25 185.2 188.25 185.35 188.15 185.35 188.15 185.55 188.05 185.55 188.05 185.8 187.95 185.8 187.95 185.95 187.8 185.95 187.8 186.2 187.7 186.2 187.7 186.3 187.65 186.3 187.65 186.5 187.5 186.5 187.5 186.75 187.4 186.75 187.4 186.85 187.3 186.85 187.3 187.1 187.2 187.1 187.2 187.3 187.05 187.3 187.05 187.5 186.95 187.5 186.95 187.6 186.85 187.6 186.85 187.85 186.75 187.85 186.75 188.05 186.65 188.05 186.65 188.15 186.5 188.15 186.5 188.35 186.45 188.35 186.45 188.6 186.35 188.6 186.35 188.7 186.2 188.7 186.2 188.9 186.1 188.9 186.1 189.15 186.05 189.15 186.05 189.2 185.9 189.2 185.9 189.45 185.75 189.45 185.75 189.65 185.65 189.65 185.65 189.75 185.6 189.75 185.6 190 185.45 190 185.45 190.2 185.35 190.2 185.35 190.3 185.25 190.3 185.25 190.5 185.15 190.5 185.15 190.75 185 190.75 185 190.8 184.9 190.8 184.9 191.05 184.85 191.05 184.85 191.25 184.7 191.25 184.7 191.35 184.6 191.35 184.6 191.6 184.5 191.6 184.5 191.8 184.4 191.8 184.4 192.1 184.5 192.1 184.5 192.25 184.6 192.25 184.6 192.45 184.7 192.45 184.7 192.7 184.85 192.7 184.85 192.8 184.9 192.8 184.9 193 185 193 185 193.2 185.15 193.2 185.15 193.3 185.25 193.3 185.25 193.55 185.35 193.55 185.35 193.75 185.45 193.75 185.45 193.85 185.6 193.85 185.6 194.05 185.65 194.05 185.65 194.3 185.75 194.3 185.75 194.4 185.9 194.4 185.9 194.6 186.05 194.6 186.05 194.8 186.1 194.8 186.1 194.9 186.2 194.9 186.2 195.15 186.35 195.15 186.35 195.35 186.45 195.35 186.45 195.5 186.5 195.5 186.5 195.65 186.65 195.65 186.65 195.9 186.75 195.9 186.75 196 186.85 196 186.85 196.25 186.95 196.25 186.95 196.45 187.05 196.45 187.05 196.55 187.2 196.55 187.2 196.75 187.3 196.75 187.3 196.95 187.4 196.95 187.4 197.1 187.5 197.1 187.5 197.3 187.65 197.3 187.65 197.5 187.7 197.5 187.7 197.7 187.8 197.7 187.8 197.95 187.95 197.95 187.95 198.05 188.05 198.05 188.05 198.3 188.15 198.3 188.15 198.45 188.25 198.45 188.25 198.7 188.4 198.7 188.4 198.8 188.5 198.8 188.5 199.05 188.6 199.05 188.6 199.25 188.7 199.25 188.7 199.45 188.85 199.45 188.85 199.65 188.9 199.65 188.9 199.75 189 199.75 189 200 189.15 200 189.15 200.2 189.25 200.2 189.25 200.4 189.35 200.4 189.35 200.5 189.45 200.5 189.45 200.75 189.55 200.75 189.55 200.95 189.7 200.95 189.7 201.15 189.75 201.15 189.75 201.4 189.85 201.4 189.85 201.5 190 201.5 190 201.7 190.1 201.7 190.1 201.95 190.2 201.95 190.2 202.15 190.3 202.15 190.3 202.35 190.45 202.35 190.45 202.45 190.5 202.45 190.5 202.7 190.6 202.7 190.6 202.9 190.75 202.9 190.75 203 203.55 203 203.55 202.8 203.7 202.8 203.7 202.55 203.8 202.55 203.8 202.45 203.9 202.45 203.9 202.25 204 202.25 204 202.05 204.1 202.05 204.1 201.85 204.2 201.85 204.2 201.6 204.3 201.6 204.3 201.5 204.45 201.5 204.45 201.3 204.55 201.3 204.55 201.05 204.65 201.05 204.65 200.85 204.75 200.85 204.75 200.75 204.85 200.75 204.85 200.5 204.95 200.5 204.95 200.3 205.05 200.3 205.05 200.1 205.2 200.1 205.2 199.9 205.3 199.9 205.3 199.75 205.4 199.75 205.4 199.55 205.5 199.55 205.5 199.35 205.6 199.35 205.6 199.15 205.7 199.15 205.7 199.05 205.85 199.05 205.85 198.8 205.95 198.8 205.95 198.6 206.05 198.6 206.05 198.35 206.15 198.35 206.15 198.15 206.25 198.15 206.25 198.05 206.35 198.05 206.35 197.85 206.5 197.85 206.5 197.6 206.6 197.6 206.6 197.4 206.7 197.4 206.7 197.3 206.8 197.3 206.8 197.1 206.9 197.1 206.9 196.85 207 196.85 207 196.7 207.1 196.7 207.1 196.55 207.25 196.55 207.25 196.35 207.35 196.35 207.35 196.1 207.45 196.1 207.45 196 207.55 196 207.55 195.8 207.65 195.8 207.65 195.6 207.8 195.6 207.8 195.5 207.85 195.5 207.85 195.25 208 195.25 208 195.05 208.1 195.05 208.1 194.9 208.2 194.9 208.2 194.75 208.3 194.75 208.3 194.45 208.4 194.45 208.4 194.4 208.55 194.4 208.55 194.15 208.6 194.15 208.6 194 208.75 194 208.75 193.85 208.85 193.85 208.85 193.65 208.95 193.65 208.95 193.45 209.05 193.45 209.05 193.3 209.15 193.3 209.15 193.1 209.3 193.1 209.3 192.85 209.4 192.85 209.4 192.8 209.45 192.8 209.45 192.55 209.6 192.55 209.6 192.35 209.7 192.35 209.7 192.25 209.8 192.25 209.8 192.1 209.7 192.1 209.7 192 209.45 192 209.45 191.95 209.4 191.95 209.4 191.8 209.15 191.8 209.15 191.65 209.05 191.65 209.05 191.8 208.95 191.8 208.95 191.95 208.85 191.95 208.85 192.1 208.75 192.1 208.75 192.35 208.6 192.35 208.6 192.45 208.55 192.45 208.55 192.7 208.4 192.7 208.4 192.85 208.3 192.85 208.3 193 208.2 193 208.2 193.2 208.1 193.2 208.1 193.45 208 193.45 208 193.55 207.85 193.55 207.85 193.75 207.8 193.75 207.8 194 207.65 194 207.65 194.05 207.55 194.05 207.55 194.3 207.45 194.3 207.45 194.45 207.35 194.45 207.35 194.6 207.25 194.6 207.25 194.8 207.1 194.8 207.1 195.05 207 195.05 207 195.15 206.9 195.15 206.9 195.35 206.8 195.35 206.8 195.6 206.7 195.6 206.7 195.65 206.6 195.65 206.6 195.9 206.5 195.9 206.5 196.1 206.35 196.1 206.35 196.25 206.25 196.25 206.25 196.45 206.15 196.45 206.15 196.7 206.05 196.7 206.05 196.75 205.95 196.75 205.95 196.95 205.85 196.95 205.85 197.2 205.7 197.2 205.7 197.4 205.6 197.4 205.6 197.6 205.5 197.6 205.5 197.7 205.4 197.7 205.4 197.95 205.3 197.95 205.3 198.15 205.2 198.15 205.2 198.35 205.05 198.35 205.05 198.45 204.95 198.45 204.95 198.7 204.85 198.7 204.85 198.9 204.75 198.9 204.75 199.15 204.65 199.15 204.65 199.35 204.55 199.35 204.55 199.45 204.45 199.45 204.45 199.65 204.3 199.65 204.3 199.9 204.2 199.9 204.2 200.1 204.1 200.1 204.1 200.3 204 200.3 204 200.4 203.9 200.4 203.9 200.65 203.8 200.65 203.8 200.85 203.7 200.85 203.7 201.05 203.55 201.05 203.55 201.15 203.45 201.15 203.45 201.4 203.35 201.4 203.35 201.6 203.25 201.6 203.25 201.85 203.15 201.85 203.15 202.05 203 202.05 203 202.15 191.3 202.15 191.3 202.05 191.2 202.05 191.2 201.85 191.05 201.85 191.05 201.7 190.95 201.7 190.95 201.5 190.85 201.5 190.85 201.3 190.75 201.3 190.75 201.05 190.6 201.05 190.6 200.95 190.5 200.95 190.5 200.75 190.45 200.75 190.45 200.5 190.3 200.5 190.3 200.3 190.2 200.3 190.2 200.1 190.1 200.1 190.1 200 190 200 190 199.75 189.85 199.75 189.85 199.55 189.75 199.55 189.75 199.35 189.7 199.35 189.7 199.15 189.55 199.15 189.55 199.05 189.45 199.05 189.45 198.8 189.35 198.8 189.35 198.6 189.25 198.6 189.25 198.35 189.15 198.35 189.15 198.3 189 198.3 189 198.05 188.9 198.05 188.9 197.85 188.85 197.85 188.85 197.6 188.7 197.6 188.7 197.4 188.6 197.4 188.6 197.3 188.5 197.3 188.5 197.1 188.4 197.1 188.4 196.85 188.25 196.85 188.25 196.7 188.15 196.7 188.15 196.55 188.05 196.55 188.05 196.35 187.95 196.35 187.95 196.1 187.8 196.1 187.8 196 187.7 196 187.7 195.8 187.65 195.8 187.65 195.6 187.5 195.6 187.5 195.5 187.4 195.5 187.4 195.25 187.3 195.25 187.3 195.05 187.2 195.05 187.2 194.9 187.05 194.9 187.05 194.75 186.95 194.75 186.95 194.45 186.85 194.45 186.85 194.4 186.75 194.4 186.75 194.15 186.65 194.15 186.65 194 186.5 194 186.5 193.85 186.45 193.85 186.45 193.65 186.35 193.65 186.35 193.45 186.2 193.45 186.2 193.3 186.1 193.3 186.1 193.1 186.05 193.1 186.05 192.85 185.9 192.85 185.9 192.8 185.75 192.8 185.75 192.55 185.65 192.55 185.65 192.35 185.6 192.35 185.6 192.25 185.45 192.25 185.45 192 185.35 192 185.35 191.8 185.45 191.8 185.45 191.65 185.6 191.65 185.6 191.5 185.65 191.5 185.65 191.25 185.75 191.25 185.75 191.15 185.9 191.15 185.9 190.95 186.05 190.95 186.05 190.75 186.1 190.75 186.1 190.65 186.2 190.65 186.2 190.4 186.35 190.4 186.35 190.2 186.45 190.2 186.45 190.05 186.5 190.05 186.5 189.9 186.65 189.9 186.65 189.65 186.75 189.65 186.75 189.55 186.85 189.55 186.85 189.3 186.95 189.3 186.95 189.15 187.05 189.15 187.05 189 187.2 189 187.2 188.8 187.3 188.8 187.3 188.6 187.4 188.6 187.4 188.45 187.5 188.45 187.5 188.25 187.65 188.25 187.65 188.05 187.7 188.05 187.7 187.95 187.8 187.95 187.8 187.7 187.95 187.7 187.95 187.5 188.05 187.5 188.05 187.4 188.15 187.4 188.15 187.15 188.25 187.15 188.25 186.95 188.4 186.95 188.4 186.75 188.5 186.75 188.5 186.65 188.6 186.65 188.6 186.4 188.7 186.4 188.7 186.2 188.85 186.2 188.85 185.95 188.9 185.95 188.9 185.9 189 185.9 189 185.65 189.15 185.65 189.15 185.5 189.25 185.5 189.25 185.2 189.35 185.2 189.35 185.05 189.45 185.05 189.45 184.9 189.55 184.9 189.55 184.7 189.7 184.7 189.7 184.45 189.75 184.45 189.75 184.3 189.85 184.3 189.85 184.05 190 184.05 190 183.95 190.1 183.95 190.1 183.7 190.2 183.7 190.2 183.5 190.3 183.5 190.3 183.3 190.45 183.3 190.45 183.2 190.5 183.2 190.5 183 190.6 183 190.6 182.75 190.75 182.75 190.75 182.55 190.85 182.55 190.85 182.35 190.95 182.35 190.95 182.25 191.05 182.25 191.05 182 191.2 182 191.2 181.8 203 181.8 203 181.9 203.15 181.9 203.15 182 203.25 182 203.25 182.25 203.35 182.25 203.35 182.45 203.45 182.45 203.45 182.65 203.55 182.65 203.55 182.85 203.7 182.85 203.7 183 203.8 183 203.8 183.2 203.9 183.2 203.9 183.4 204 183.4 204 183.6 204.1 183.6 204.1 183.85 204.2 183.85 204.2 183.95 204.3 183.95 204.3 184.15 204.45 184.15 204.45 184.35 204.55 184.35 204.55 184.6 204.65 184.6 204.65 184.8 204.75 184.8 204.75 184.9 204.85 184.9 204.85 185.15 204.95 185.15 204.95 185.35 205.05 185.35 205.05 185.55 205.2 185.55 205.2 185.65 205.3 185.65 205.3 185.9 205.4 185.9 205.4 186.1 205.5 186.1 205.5 186.3 205.6 186.3 205.6 186.4 205.7 186.4 205.7 186.65 205.85 186.65 205.85 186.85 206.05 186.85 206.05 186.75 206.25 186.75 206.25 186.65 206.5 186.65 206.5 186.5 206.6 186.5 206.6 186.2 206.5 186.2 206.5 185.95 206.35 185.95 206.35 185.9 206.25 185.9 206.25 185.65 206.15 185.65 206.15 185.5 206.05 185.5 206.05 185.2 205.95 185.2 205.95 185.15 205.85 185.15 205.85 184.9 205.7 184.9 205.7 184.7 205.6 184.7 205.6 184.45 205.5 184.45 205.5 184.3 205.4 184.3 205.4 184.15 205.3 184.15 205.3 183.95 205.2 183.95 205.2 183.7 205.05 183.7 205.05 183.5 204.95 183.5 204.95 183.4 204.85 183.4 204.85 183.2 204.75 183.2 204.75 183 204.65 183 204.65 182.75 204.55 182.75 204.55 182.55 204.45 182.55 204.45 182.45 204.3 182.45 204.3 182.25 204.2 182.25 204.2 182 204.1 182 204.1 181.8 204 181.8 204 181.6 203.9 181.6 203.9 181.5 203.8 181.5 203.8 181.25 203.7 181.25 203.7 181.05 203.55 181.05 203.55 180.9 190.6 180.9 190.6 181.15
M 193 185.35
L 193.1 185.35 193.1 185.15 201.05 185.15 201.05 185.2 201.2 185.2 201.2 185.35 201.3 185.35 201.3 185.55 201.4 185.55 201.4 185.8 201.5 185.8 201.5 185.95 201.65 185.95 201.65 186.1 201.75 186.1 201.75 186.3 201.85 186.3 201.85 186.5 201.95 186.5 201.95 186.75 202.05 186.75 202.05 186.95 202.15 186.95 202.15 187.1 202.25 187.1 202.25 187.3 202.4 187.3 202.4 187.5 202.5 187.5 202.5 187.7 202.6 187.7 202.6 187.95 202.7 187.95 202.7 188.05 202.8 188.05 202.8 188.25 202.9 188.25 202.9 188.45 203 188.45 203 188.7 203.15 188.7 203.15 188.8 203.25 188.8 203.25 189 203.35 189 203.35 189.2 203.45 189.2 203.45 189.3 203.55 189.3 203.55 189.55 203.7 189.55 203.7 189.75 203.8 189.75 203.8 189.9 203.9 189.9 203.9 190.05 204 190.05 204 190.3 204.1 190.3 204.1 190.4 204.2 190.4 204.2 190.65 204.3 190.65 204.3 190.8 204.45 190.8 204.45 190.95 204.55 190.95 204.55 191.15 204.65 191.15 204.65 191.35 204.75 191.35 204.75 191.5 204.85 191.5 204.85 191.65 204.95 191.65 204.95 191.95 205.05 191.95 205.05 192 204.95 192 204.95 192.1 204.85 192.1 204.85 192.35 204.75 192.35 204.75 192.55 204.65 192.55 204.65 192.7 204.55 192.7 204.55 192.85 204.45 192.85 204.45 193.1 204.3 193.1 204.3 193.2 204.2 193.2 204.2 193.45 204.1 193.45 204.1 193.65 204 193.65 204 193.75 203.9 193.75 203.9 194 203.8 194 203.8 194.15 203.7 194.15 203.7 194.3 203.55 194.3 203.55 194.45 203.45 194.45 203.45 194.75 203.35 194.75 203.35 194.8 203.25 194.8 203.25 195.05 203.15 195.05 203.15 195.25 203 195.25 203 195.35 202.9 195.35 202.9 195.6 202.8 195.6 202.8 195.8 202.7 195.8 202.7 196 202.6 196 202.6 196.25 202.5 196.25 202.5 196.35 202.4 196.35 202.4 196.55 202.25 196.55 202.25 196.75 202.15 196.75 202.15 196.95 202.05 196.95 202.05 197.1 201.95 197.1 201.95 197.3 201.85 197.3 201.85 197.5 201.75 197.5 201.75 197.7 201.65 197.7 201.65 197.95 201.5 197.95 201.5 198.05 201.4 198.05 201.4 198.3 201.3 198.3 201.3 198.45 201.2 198.45 201.2 198.7 201.05 198.7 201.05 198.8 193.25 198.8 193.25 198.7 193.1 198.7 193.1 198.6 193 198.6 193 198.35 192.9 198.35 192.9 198.15 192.8 198.15 192.8 197.95 192.65 197.95 192.65 197.85 192.55 197.85 192.55 197.6 192.45 197.6 192.45 197.4 192.35 197.4 192.35 197.2 192.25 197.2 192.25 196.95 192.15 196.95 192.15 196.85 192.05 196.85 192.05 196.7 191.95 196.7 191.95 196.45 191.8 196.45 191.8 196.25 191.7 196.25 191.7 196 191.6 196 191.6 195.9 191.5 195.9 191.5 195.65 191.4 195.65 191.4 195.5 191.3 195.5 191.3 195.35 191.05 195.35 191.05 195.5 190.85 195.5 190.85 195.6 190.6 195.6 190.6 195.65 190.5 195.65 190.5 195.9 190.6 195.9 190.6 196.1 190.75 196.1 190.75 196.35 190.85 196.35 190.85 196.45 190.95 196.45 190.95 196.7 191.05 196.7 191.05 196.85 191.2 196.85 191.2 197.1 191.3 197.1 191.3 197.3 191.4 197.3 191.4 197.4 191.5 197.4 191.5 197.6 191.6 197.6 191.6 197.85 191.7 197.85 191.7 198.05 191.8 198.05 191.8 198.3 191.95 198.3 191.95 198.35 192.05 198.35 192.05 198.6 192.15 198.6 192.15 198.8 192.25 198.8 192.25 199.05 192.35 199.05 192.35 199.25 192.45 199.25 192.45 199.35 192.55 199.35 192.55 199.55 192.65 199.55 192.65 199.65 201.65 199.65 201.65 199.45 201.75 199.45 201.75 199.35 201.85 199.35 201.85 199.15 201.95 199.15 201.95 198.9 202.05 198.9 202.05 198.7 202.15 198.7 202.15 198.45 202.25 198.45 202.25 198.35 202.4 198.35 202.4 198.15 202.5 198.15 202.5 197.95 202.6 197.95 202.6 197.7 202.7 197.7 202.7 197.6 202.8 197.6 202.8 197.4 202.9 197.4 202.9 197.2 203 197.2 203 196.95 203.15 196.95 203.15 196.75 203.25 196.75 203.25 196.7 203.35 196.7 203.35 196.45 203.45 196.45 203.45 196.25 203.55 196.25 203.55 196 203.7 196 203.7 195.9 203.8 195.9 203.8 195.65 203.9 195.65 203.9 195.5 204 195.5 204 195.25 204.1 195.25 204.1 195.15 204.2 195.15 204.2 194.9 204.3 194.9 204.3 194.75 204.45 194.75 204.45 194.6 204.55 194.6 204.55 194.4 204.65 194.4 204.65 194.15 204.75 194.15 204.75 194.05 204.85 194.05 204.85 193.85 204.95 193.85 204.95 193.65 205.05 193.65 205.05 193.55 205.2 193.55 205.2 193.3 205.3 193.3 205.3 193.1 205.4 193.1 205.4 193 205.5 193 205.5 192.8 205.6 192.8 205.6 192.55 205.7 192.55 205.7 192.45 205.85 192.45 205.85 192.25 205.95 192.25 205.95 192 206.05 192 206.05 191.8 205.95 191.8 205.95 191.6 205.85 191.6 205.85 191.5 205.7 191.5 205.7 191.25 205.6 191.25 205.6 191.05 205.5 191.05 205.5 190.95 205.4 190.95 205.4 190.75 205.3 190.75 205.3 190.5 205.2 190.5 205.2 190.4 205.05 190.4 205.05 190.2 204.95 190.2 204.95 190 204.85 190 204.85 189.9 204.75 189.9 204.75 189.65 204.65 189.65 204.65 189.45 204.55 189.45 204.55 189.3 204.45 189.3 204.45 189.15 204.3 189.15 204.3 188.9 204.2 188.9 204.2 188.8 204.1 188.8 204.1 188.6 204 188.6 204 188.35 203.9 188.35 203.9 188.15 203.8 188.15 203.8 188.05 203.7 188.05 203.7 187.85 203.55 187.85 203.55 187.6 203.45 187.6 203.45 187.4 203.35 187.4 203.35 187.3 203.25 187.3 203.25 187.1 203.15 187.1 203.15 186.85 203 186.85 203 186.65 202.9 186.65 202.9 186.5 202.8 186.5 202.8 186.3 202.7 186.3 202.7 186.1 202.6 186.1 202.6 185.9 202.5 185.9 202.5 185.65 202.4 185.65 202.4 185.55 202.25 185.55 202.25 185.35 202.15 185.35 202.15 185.15 202.05 185.15 202.05 184.9 201.95 184.9 201.95 184.7 201.85 184.7 201.85 184.6 201.75 184.6 201.75 184.35 201.65 184.35 201.65 184.3 192.55 184.3 192.55 184.45 192.45 184.45 192.45 184.7 192.35 184.7 192.35 184.9 192.25 184.9 192.25 185.05 192.15 185.05 192.15 185.2 192.05 185.2 192.05 185.5 191.95 185.5 191.95 185.65 191.8 185.65 191.8 185.8 191.7 185.8 191.7 185.95 191.6 185.95 191.6 186.2 191.5 186.2 191.5 186.4 191.4 186.4 191.4 186.65 191.3 186.65 191.3 186.75 191.2 186.75 191.2 186.95 191.05 186.95 191.05 187.15 190.95 187.15 190.95 187.4 190.85 187.4 190.85 187.6 190.75 187.6 190.75 187.7 190.6 187.7 190.6 187.95 190.5 187.95 190.5 188.15 190.45 188.15 190.45 188.35 190.3 188.35 190.3 188.45 190.2 188.45 190.2 188.7 190.1 188.7 190.1 188.9 190 188.9 190 189 189.85 189 189.85 189.2 189.75 189.2 189.75 189.45 189.7 189.45 189.7 189.55 189.55 189.55 189.55 189.75 189.45 189.75 189.45 190 189.35 190 189.35 190.05 189.25 190.05 189.25 190.3 189.15 190.3 189.15 190.5 189 190.5 189 190.65 188.9 190.65 188.9 190.8 188.85 190.8 188.85 191.05 188.7 191.05 188.7 191.15 188.6 191.15 188.6 191.35 188.5 191.35 188.5 191.6 188.4 191.6 188.4 191.8 188.6 191.8 188.6 191.95 188.7 191.95 188.7 192 188.9 192 188.9 192.1 189.15 192.1 189.15 192 189.25 192 189.25 191.8 189.35 191.8 189.35 191.6 189.45 191.6 189.45 191.5 189.55 191.5 189.55 191.25 189.7 191.25 189.7 191.05 189.75 191.05 189.75 190.95 189.85 190.95 189.85 190.75 190 190.75 190 190.5 190.1 190.5 190.1 190.4 190.2 190.4 190.2 190.2 190.3 190.2 190.3 190 190.45 190 190.45 189.9 190.5 189.9 190.5 189.65 190.6 189.65 190.6 189.45 190.75 189.45 190.75 189.3 190.85 189.3 190.85 189.15 190.95 189.15 190.95 188.9 191.05 188.9 191.05 188.8 191.2 188.8 191.2 188.6 191.3 188.6 191.3 188.35 191.4 188.35 191.4 188.15 191.5 188.15 191.5 188.05 191.6 188.05 191.6 187.85 191.7 187.85 191.7 187.6 191.8 187.6 191.8 187.4 191.95 187.4 191.95 187.15 192.05 187.15 192.05 187.1 192.15 187.1 192.15 186.85 192.25 186.85 192.25 186.65 192.35 186.65 192.35 186.4 192.45 186.4 192.45 186.3 192.55 186.3 192.55 186.1 192.65 186.1 192.65 185.9 192.8 185.9 192.8 185.65 192.9 185.65 192.9 185.5 193 185.5 193 185.35
M 181.05 191.8
L 180.95 191.8 180.95 192.35 181.05 192.35 181.05 191.8
M 182.2 189.9
L 182.2 190.05 182.1 190.05 182.1 190.3 182.05 190.3 182.05 190.4 181.9 190.4 181.9 190.65 181.8 190.65 181.8 190.8 181.7 190.8 181.7 190.95 181.6 190.95 181.6 191.15 181.45 191.15 181.45 191.35 181.35 191.35 181.35 191.5 181.25 191.5 181.25 191.65 181.15 191.65 181.15 192.1 181.25 192.1 181.25 192.35 181.35 192.35 181.35 192.55 181.45 192.55 181.45 192.7 181.6 192.7 181.6 192.85 181.7 192.85 181.7 193.1 181.8 193.1 181.8 193.2 181.9 193.2 181.9 193.45 182.05 193.45 182.05 193.65 182.1 193.65 182.1 193.75 182.2 193.75 182.2 194 182.35 194 182.35 194.15 182.45 194.15 182.45 194.3 182.55 194.3 182.55 194.45 182.65 194.45 182.65 194.75 182.8 194.75 182.8 194.8 182.9 194.8 182.9 195.05 182.95 195.05 182.95 195.25 183.1 195.25 183.1 195.35 183.2 195.35 183.2 195.6 183.3 195.6 183.3 195.8 183.4 195.8 183.4 195.9 183.55 195.9 183.55 196.1 183.65 196.1 183.65 196.35 183.75 196.35 183.75 196.45 183.85 196.45 183.85 196.7 183.95 196.7 183.95 196.85 184.05 196.85 184.05 196.95 184.15 196.95 184.15 197.2 184.25 197.2 184.25 197.4 184.4 197.4 184.4 197.5 184.5 197.5 184.5 197.7 184.6 197.7 184.6 197.95 184.7 197.95 184.7 198.05 184.85 198.05 184.85 198.3 184.9 198.3 184.9 198.45 185 198.45 185 198.6 185.15 198.6 185.15 198.8 185.25 198.8 185.25 199.05 185.35 199.05 185.35 199.25 185.45 199.25 185.45 199.45 185.6 199.45 185.6 199.55 185.65 199.55 185.65 199.75 185.75 199.75 185.75 200 185.9 200 185.9 200.2 186.05 200.2 186.05 200.4 186.1 200.4 186.1 200.5 186.2 200.5 186.2 200.75 186.35 200.75 186.35 200.95 186.45 200.95 186.45 201.15 186.5 201.15 186.5 201.3 186.65 201.3 186.65 201.5 186.75 201.5 186.75 201.7 186.85 201.7 186.85 201.95 186.95 201.95 186.95 202.15 187.05 202.15 187.05 202.25 187.2 202.25 187.2 202.45 187.3 202.45 187.3 202.7 187.4 202.7 187.4 202.9 187.5 202.9 187.5 203 187.65 203 187.65 203.2 187.7 203.2 187.7 203.45 187.8 203.45 187.8 203.65 187.95 203.65 187.95 203.85 188.05 203.85 188.05 204 188.15 204 188.15 204.2 188.25 204.2 188.25 204.4 188.4 204.4 188.4 204.65 188.5 204.65 188.5 204.8 188.6 204.8 188.6 204.95 188.7 204.95 188.7 205.15 188.85 205.15 188.85 205.35 188.9 205.35 188.9 205.6 189 205.6 189 205.7 189.15 205.7 189.15 205.8 205.2 205.8 205.2 205.7 205.3 205.7 205.3 205.5 205.4 205.5 205.4 205.25 205.5 205.25 205.5 205.05 205.6 205.05 205.6 204.95 205.7 204.95 205.7 204.75 205.85 204.75 205.85 204.5 205.95 204.5 205.95 204.3 206.05 204.3 206.05 204.2 206.15 204.2 206.15 204 206.25 204 206.25 203.75 206.35 203.75 206.35 203.55 206.5 203.55 206.5 203.3 206.6 203.3 206.6 203.2 206.7 203.2 206.7 203 206.8 203 206.8 202.8 206.9 202.8 206.9 202.55 207 202.55 207 202.45 207.1 202.45 207.1 202.25 207.25 202.25 207.25 202.05 207.35 202.05 207.35 201.85 207.45 201.85 207.45 201.6 207.55 201.6 207.55 201.5 207.65 201.5 207.65 201.3 207.8 201.3 207.8 201.05 207.85 201.05 207.85 200.85 208 200.85 208 200.65 208.1 200.65 208.1 200.5 208.2 200.5 208.2 200.3 208.3 200.3 208.3 200.1 208.4 200.1 208.4 199.9 208.55 199.9 208.55 199.65 208.6 199.65 208.6 199.55 208.75 199.55 208.75 199.35 208.85 199.35 208.85 199.15 208.95 199.15 208.95 198.9 209.05 198.9 209.05 198.8 209.15 198.8 209.15 198.6 209.3 198.6 209.3 198.35 209.4 198.35 209.4 198.3 209.45 198.3 209.45 198.05 209.6 198.05 209.6 197.85 209.7 197.85 209.7 197.7 209.8 197.7 209.8 197.5 209.9 197.5 209.9 197.3 210.05 197.3 210.05 197.1 210.15 197.1 210.15 196.95 210.25 196.95 210.25 196.75 210.35 196.75 210.35 196.55 210.5 196.55 210.5 196.45 210.55 196.45 210.55 196.25 210.65 196.25 210.65 196 210.8 196 210.8 195.9 210.9 195.9 210.9 195.65 211 195.65 211 195.5 211.1 195.5 211.1 195.35 211.25 195.35 211.25 195.15 211.3 195.15 211.3 194.9 211.4 194.9 211.4 194.8 211.55 194.8 211.55 194.6 211.65 194.6 211.65 194.4 211.75 194.4 211.75 194.3 211.85 194.3 211.85 194.05 212 194.05 212 193.85 212.1 193.85 212.1 193.75 212.15 193.75 212.15 193.55 212.25 193.55 212.25 193.3 212.4 193.3 212.4 193.2 212.5 193.2 212.5 193 212.6 193 212.6 192.8 212.7 192.8 212.7 192.7 212.85 192.7 212.85 192.45 212.95 192.45 212.95 192.25 213 192.25 213 192.1 213.15 192.1 213.15 191.8 213 191.8 213 191.6 212.95 191.6 212.95 191.35 212.85 191.35 212.85 191.25 212.7 191.25 212.7 191.05 212.6 191.05 212.6 190.8 212.5 190.8 212.5 190.75 212.4 190.75 212.4 190.5 212.25 190.5 212.25 190.3 212.15 190.3 212.15 190.2 212.1 190.2 212.1 190 212 190 212 189.75 211.85 189.75 211.85 189.65 211.75 189.65 211.75 189.45 211.65 189.45 211.65 189.2 211.55 189.2 211.55 189.15 211.4 189.15 211.4 188.9 211.3 188.9 211.3 188.7 211.25 188.7 211.25 188.6 211.1 188.6 211.1 188.35 211 188.35 211 188.15 210.9 188.15 210.9 188.05 210.8 188.05 210.8 187.85 210.65 187.85 210.65 187.6 210.55 187.6 210.55 187.5 210.5 187.5 210.5 187.3 210.35 187.3 210.35 187.1 210.25 187.1 210.25 186.85 210.15 186.85 210.15 186.75 210.05 186.75 210.05 186.5 209.9 186.5 209.9 186.3 209.8 186.3 209.8 186.2 209.7 186.2 209.7 185.95 209.6 185.95 209.6 185.8 209.45 185.8 209.45 185.65 209.4 185.65 209.4 185.5 209.3 185.5 209.3 185.2 209.15 185.2 209.15 185.15 209.05 185.15 209.05 184.9 208.95 184.9 208.95 184.7 208.85 184.7 208.85 184.45 208.75 184.45 208.75 184.35 208.6 184.35 208.6 184.15 208.55 184.15 208.55 183.95 208.4 183.95 208.4 183.7 208.3 183.7 208.3 183.5 208.2 183.5 208.2 183.4 208.1 183.4 208.1 183.2 208 183.2 208 183 207.85 183 207.85 182.75 207.8 182.75 207.8 182.55 207.65 182.55 207.65 182.45 207.55 182.45 207.55 182.25 207.45 182.25 207.45 182 207.35 182 207.35 181.8 207.25 181.8 207.25 181.65 207.1 181.65 207.1 181.5 207 181.5 207 181.25 206.9 181.25 206.9 181.05 206.8 181.05 206.8 180.85 206.7 180.85 206.7 180.7 206.6 180.7 206.6 180.5 206.5 180.5 206.5 180.3 206.35 180.3 206.35 180.05 206.25 180.05 206.25 179.95 206.15 179.95 206.15 179.75 206.05 179.75 206.05 179.55 205.95 179.55 205.95 179.3 205.85 179.3 205.85 179.1 205.7 179.1 205.7 179 205.6 179 205.6 178.8 205.5 178.8 205.5 178.55 205.4 178.55 205.4 178.35 205.3 178.35 205.3 178.25 205.2 178.25 205.2 178.35 205.05 178.35 205.05 178.45 204.85 178.45 204.85 178.55 204.65 178.55 204.65 178.65 204.55 178.65 204.55 178.8 204.65 178.8 204.65 179 204.75 179 204.75 179.2 204.85 179.2 204.85 179.45 204.95 179.45 204.95 179.55 205.05 179.55 205.05 179.75 205.2 179.75 205.2 179.95 205.3 179.95 205.3 180.2 205.4 180.2 205.4 180.4 205.5 180.4 205.5 180.5 205.6 180.5 205.6 180.7 205.7 180.7 205.7 180.9 205.85 180.9 205.85 181.15 205.95 181.15 205.95 181.35 206.05 181.35 206.05 181.5 206.15 181.5 206.15 181.65 206.25 181.65 206.25 181.9 206.35 181.9 206.35 182.1 206.5 182.1 206.5 182.25 206.6 182.25 206.6 182.45 206.7 182.45 206.7 182.65 206.8 182.65 206.8 182.85 206.9 182.85 206.9 183.1 207 183.1 207 183.2 207.1 183.2 207.1 183.4 207.25 183.4 207.25 183.6 207.35 183.6 207.35 183.85 207.45 183.85 207.45 183.95 207.55 183.95 207.55 184.15 207.65 184.15 207.65 184.35 207.8 184.35 207.8 184.6 207.85 184.6 207.85 184.8 208 184.8 208 184.9 208.1 184.9 208.1 185.15 208.2 185.15 208.2 185.35 208.3 185.35 208.3 185.55 208.4 185.55 208.4 185.65 208.55 185.65 208.55 185.9 208.6 185.9 208.6 186.1 208.75 186.1 208.75 186.2 208.85 186.2 208.85 186.4 208.95 186.4 208.95 186.65 209.05 186.65 209.05 186.75 209.15 186.75 209.15 186.95 209.3 186.95 209.3 187.15 209.4 187.15 209.4 187.4 209.45 187.4 209.45 187.5 209.6 187.5 209.6 187.7 209.7 187.7 209.7 187.95 209.8 187.95 209.8 188.05 209.9 188.05 209.9 188.25 210.05 188.25 210.05 188.45 210.15 188.45 210.15 188.6 210.25 188.6 210.25 188.8 210.35 188.8 210.35 189 210.5 189 210.5 189.15 210.55 189.15 210.55 189.3 210.65 189.3 210.65 189.55 210.8 189.55 210.8 189.65 210.9 189.65 210.9 189.9 211 189.9 211 190.05 211.1 190.05 211.1 190.2 211.25 190.2 211.25 190.4 211.3 190.4 211.3 190.65 211.4 190.65 211.4 190.75 211.55 190.75 211.55 190.95 211.65 190.95 211.65 191.15 211.75 191.15 211.75 191.25 211.85 191.25 211.85 191.5 212 191.5 212 191.65 212.1 191.65 212.1 191.8 212.15 191.8 212.15 192 212.1 192 212.1 192.25 212 192.25 212 192.35 211.85 192.35 211.85 192.55 211.75 192.55 211.75 192.8 211.65 192.8 211.65 192.85 211.55 192.85 211.55 193.1 211.4 193.1 211.4 193.3 211.3 193.3 211.3 193.45 211.25 193.45 211.25 193.65 211.1 193.65 211.1 193.85 211 193.85 211 194 210.9 194 210.9 194.15 210.8 194.15 210.8 194.4 210.65 194.4 210.65 194.45 210.55 194.45 210.55 194.75 210.5 194.75 210.5 194.9 210.35 194.9 210.35 195.05 210.25 195.05 210.25 195.25 210.15 195.25 210.15 195.5 210.05 195.5 210.05 195.6 209.9 195.6 209.9 195.8 209.8 195.8 209.8 196 209.7 196 209.7 196.1 209.6 196.1 209.6 196.35 209.45 196.35 209.45 196.55 209.4 196.55 209.4 196.7 209.3 196.7 209.3 196.85 209.15 196.85 209.15 197.1 209.05 197.1 209.05 197.2 208.95 197.2 208.95 197.4 208.85 197.4 208.85 197.6 208.75 197.6 208.75 197.85 208.6 197.85 208.6 197.95 208.55 197.95 208.55 198.15 208.4 198.15 208.4 198.35 208.3 198.35 208.3 198.45 208.2 198.45 208.2 198.7 208.1 198.7 208.1 198.9 208 198.9 208 199.15 207.85 199.15 207.85 199.25 207.8 199.25 207.8 199.45 207.65 199.45 207.65 199.65 207.55 199.65 207.55 199.9 207.45 199.9 207.45 200.1 207.35 200.1 207.35 200.2 207.25 200.2 207.25 200.4 207.1 200.4 207.1 200.65 207 200.65 207 200.85 206.9 200.85 206.9 201.05 206.8 201.05 206.8 201.15 206.7 201.15 206.7 201.4 206.6 201.4 206.6 201.6 206.5 201.6 206.5 201.85 206.35 201.85 206.35 201.95 206.25 201.95 206.25 202.15 206.15 202.15 206.15 202.35 206.05 202.35 206.05 202.55 205.95 202.55 205.95 202.8 205.85 202.8 205.85 202.9 205.7 202.9 205.7 203.1 205.6 203.1 205.6 203.3 205.5 203.3 205.5 203.55 205.4 203.55 205.4 203.65 205.3 203.65 205.3 203.85 205.2 203.85 205.2 204.05 205.05 204.05 205.05 204.3 204.95 204.3 204.95 204.5 204.85 204.5 204.85 204.65 204.75 204.65 204.75 204.8 204.65 204.8 204.65 204.95 189.55 204.95 189.55 204.75 189.45 204.75 189.45 204.5 189.35 204.5 189.35 204.3 189.25 204.3 189.25 204.2 189.15 204.2 189.15 204 189 204 189 203.75 188.9 203.75 188.9 203.55 188.85 203.55 188.85 203.45 188.7 203.45 188.7 203.2 188.6 203.2 188.6 203 188.5 203 188.5 202.8 188.4 202.8 188.4 202.55 188.25 202.55 188.25 202.45 188.15 202.45 188.15 202.25 188.05 202.25 188.05 202.05 187.95 202.05 187.95 201.85 187.8 201.85 187.8 201.6 187.7 201.6 187.7 201.5 187.65 201.5 187.65 201.3 187.5 201.3 187.5 201.05 187.4 201.05 187.4 200.85 187.3 200.85 187.3 200.75 187.2 200.75 187.2 200.5 187.05 200.5 187.05 200.3 186.95 200.3 186.95 200.1 186.85 200.1 186.85 199.9 186.75 199.9 186.75 199.75 186.65 199.75 186.65 199.55 186.5 199.55 186.5 199.35 186.45 199.35 186.45 199.15 186.35 199.15 186.35 199.05 186.2 199.05 186.2 198.8 186.1 198.8 186.1 198.6 186.05 198.6 186.05 198.35 185.9 198.35 185.9 198.15 185.75 198.15 185.75 198.05 185.65 198.05 185.65 197.85 185.6 197.85 185.6 197.6 185.45 197.6 185.45 197.5 185.35 197.5 185.35 197.3 185.25 197.3 185.25 197.1 185.15 197.1 185.15 196.95 185 196.95 185 196.75 184.9 196.75 184.9 196.55 184.85 196.55 184.85 196.45 184.7 196.45 184.7 196.25 184.6 196.25 184.6 196 184.5 196 184.5 195.9 184.4 195.9 184.4 195.65 184.25 195.65 184.25 195.5 184.15 195.5 184.15 195.35 184.05 195.35 184.05 195.15 183.95 195.15 183.95 194.9 183.85 194.9 183.85 194.8 183.75 194.8 183.75 194.6 183.65 194.6 183.65 194.4 183.55 194.4 183.55 194.3 183.4 194.3 183.4 194.05 183.3 194.05 183.3 193.85 183.2 193.85 183.2 193.75 183.1 193.75 183.1 193.55 182.95 193.55 182.95 193.3 182.9 193.3 182.9 193.2 182.8 193.2 182.8 193 182.65 193 182.65 192.8 182.55 192.8 182.55 192.7 182.45 192.7 182.45 192.45 182.35 192.45 182.35 192.25 182.2 192.25 182.2 192.1 182.1 192.1 182.1 191.8 182.2 191.8 182.2 191.6 182.35 191.6 182.35 191.35 182.45 191.35 182.45 191.25 182.55 191.25 182.55 191.05 182.65 191.05 182.65 190.8 182.8 190.8 182.8 190.75 182.9 190.75 182.9 190.5 182.95 190.5 182.95 190.3 183.1 190.3 183.1 190.2 183.2 190.2 183.2 190 183.3 190 183.3 189.75 183.4 189.75 183.4 189.65 183.55 189.65 183.55 189.45 183.65 189.45 183.65 189.2 183.75 189.2 183.75 189.15 183.85 189.15 183.85 188.9 183.95 188.9 183.95 188.7 184.05 188.7 184.05 188.6 184.15 188.6 184.15 188.35 184.25 188.35 184.25 188.15 184.4 188.15 184.4 188.05 184.5 188.05 184.5 187.85 184.6 187.85 184.6 187.6 184.7 187.6 184.7 187.5 184.85 187.5 184.85 187.3 184.9 187.3 184.9 187.1 185 187.1 185 186.95 185.15 186.95 185.15 186.75 185.25 186.75 185.25 186.5 185.35 186.5 185.35 186.4 185.45 186.4 185.45 186.2 185.6 186.2 185.6 185.95 185.65 185.95 185.65 185.9 185.75 185.9 185.75 185.65 185.9 185.65 185.9 185.5 186.05 185.5 186.05 185.2 186.1 185.2 186.1 185.15 186.2 185.15 186.2 184.9 186.35 184.9 186.35 184.7 186.45 184.7 186.45 184.45 186.5 184.45 186.5 184.3 186.65 184.3 186.65 184.15 186.75 184.15 186.75 183.95 186.85 183.95 186.85 183.7 186.95 183.7 186.95 183.5 187.05 183.5 187.05 183.4 187.2 183.4 187.2 183.2 187.3 183.2 187.3 183 187.4 183 187.4 182.75 187.5 182.75 187.5 182.55 187.65 182.55 187.65 182.45 187.7 182.45 187.7 182.25 187.8 182.25 187.8 182 187.95 182 187.95 181.8 188.05 181.8 188.05 181.6 188.15 181.6 188.15 181.5 188.25 181.5 188.25 181.25 188.4 181.25 188.4 181.05 188.5 181.05 188.5 180.85 188.6 180.85 188.6 180.7 188.7 180.7 188.7 180.5 188.85 180.5 188.85 180.3 188.9 180.3 188.9 180.05 189 180.05 189 179.85 189.15 179.85 189.15 179.75 189.25 179.75 189.25 179.55 189.35 179.55 189.35 179.3 189.45 179.3 189.45 179.1 189.55 179.1 189.55 179 189.7 179 189.7 178.55 189.45 178.55 189.45 178.45 189.25 178.45 189.25 178.35 188.9 178.35 188.9 178.45 188.85 178.45 188.85 178.65 188.7 178.65 188.7 178.9 188.6 178.9 188.6 179.1 188.5 179.1 188.5 179.3 188.4 179.3 188.4 179.45 188.25 179.45 188.25 179.65 188.15 179.65 188.15 179.85 188.05 179.85 188.05 180.05 187.95 180.05 187.95 180.2 187.8 180.2 187.8 180.4 187.7 180.4 187.7 180.6 187.65 180.6 187.65 180.85 187.5 180.85 187.5 181.05 187.4 181.05 187.4 181.15 187.3 181.15 187.3 181.35 187.2 181.35 187.2 181.6 187.05 181.6 187.05 181.8 186.95 181.8 186.95 182 186.85 182 186.85 182.1 186.75 182.1 186.75 182.35 186.65 182.35 186.65 182.55 186.5 182.55 186.5 182.75 186.45 182.75 186.45 182.85 186.35 182.85 186.35 183.1 186.2 183.1 186.2 183.3 186.1 183.3 186.1 183.5 186.05 183.5 186.05 183.7 185.9 183.7 185.9 183.85 185.75 183.85 185.75 184.05 185.65 184.05 185.65 184.3 185.6 184.3 185.6 184.45 185.45 184.45 185.45 184.6 185.35 184.6 185.35 184.8 185.25 184.8 185.25 185.05 185.15 185.05 185.15 185.2 185 185.2 185 185.35 184.9 185.35 184.9 185.55 184.85 185.55 184.85 185.8 184.7 185.8 184.7 185.95 184.6 185.95 184.6 186.1 184.5 186.1 184.5 186.3 184.4 186.3 184.4 186.5 184.25 186.5 184.25 186.65 184.15 186.65 184.15 186.85 184.05 186.85 184.05 187.1 183.95 187.1 183.95 187.15 183.85 187.15 183.85 187.4 183.75 187.4 183.75 187.6 183.65 187.6 183.65 187.7 183.55 187.7 183.55 187.95 183.4 187.95 183.4 188.15 183.3 188.15 183.3 188.25 183.2 188.25 183.2 188.45 183.1 188.45 183.1 188.7 182.95 188.7 182.95 188.8 182.9 188.8 182.9 189 182.8 189 182.8 189.2 182.65 189.2 182.65 189.3 182.55 189.3 182.55 189.55 182.45 189.55 182.45 189.75 182.35 189.75 182.35 189.9 182.2 189.9 Z"/>
</g>
</defs>

<g transform="matrix( 1.074981689453125, 0, 0, 1.0747833251953125, -189.5,-185.9) ">
<use xlink:href="#Layer0_0_FILL"/>
</g>
</svg>
