<?xml version="1.0" standalone="no"?>
<!DOCTYPE svg PUBLIC "-//W3C//DTD SVG 1.1//EN" "http://www.w3.org/Graphics/SVG/1.1/DTD/svg11.dtd" >
<svg xmlns="http://www.w3.org/2000/svg">
<metadata></metadata>
<defs>
<font id="chantilly-xlightregular" horiz-adv-x="1056" >
<font-face units-per-em="2048" ascent="1638" descent="-410" />
<missing-glyph horiz-adv-x="593" />
<glyph horiz-adv-x="2048" />
<glyph horiz-adv-x="2048" />
<glyph unicode="&#xd;" horiz-adv-x="593" />
<glyph unicode=" "  horiz-adv-x="593" />
<glyph unicode="&#x09;" horiz-adv-x="593" />
<glyph unicode="&#xa0;" horiz-adv-x="593" />
<glyph unicode="!" horiz-adv-x="393" d="M117 55q0 37 25.5 62.5t60.5 25.5t62.5 -25.5t27.5 -62.5q0 -31 -24.5 -57.5t-61.5 -26.5q-35 0 -62.5 26t-27.5 58zM139 1436q0 61 68 61q37 0 51 -17.5t14 -60.5v-100l-8 -410l-2 -106l-14 -266l-10 -246h-62l-10 246l-12 270q0 68 -7 102l-6 410z" />
<glyph unicode="&#x22;" horiz-adv-x="620" d="M88 1409q0 35 25.5 62.5t58.5 27.5q43 0 72 -31q25 -31 24 -86q0 -37 -13 -100t-13 -65q-10 -27 -15 -39q-12 -47 -39 -95l-53 -84l-45 -53v84q31 66 47.5 125t16.5 111q0 29 -9 67q-57 33 -57 76zM354 1409q0 35 26 62.5t60 27.5q43 0 69 -32.5t26 -84.5 q0 -35 -10.5 -90t-16.5 -77.5t-25 -69.5q-25 -66 -82 -146l-45 -53v84q14 31 25.5 60.5t20 60.5t12.5 56.5t4 58.5l-6 67q-57 35 -58 76z" />
<glyph unicode="#" horiz-adv-x="1292" d="M113 481l16 80h236l75 352h-237l18 80h236l92 441h80l-92 -441h231l92 441h80l-92 -441h235l-16 -80h-238l-73 -352h235l-16 -80h-236l-92 -440h-80l92 440h-231l-92 -440h-80l92 440h-235zM444 561h232l76 352h-232z" />
<glyph unicode="$" horiz-adv-x="956" d="M104 92v123l82 -59l82 -39l84 -31l82 -8v647q0 12 -55 29.5t-165 99.5t-110 250q0 104 56.5 198.5t124 129t151.5 47.5l2 127l60 -2v-119q74 0 108.5 -6t91 -23.5t82.5 -34.5l47 -26v-117q-10 8 -37.5 27.5t-37.5 25.5q-35 18 -97.5 38t-156.5 20l-2 -601l71 -26 q88 -35 148 -90q74 -61 105.5 -124t31.5 -159q0 -166 -92 -274q-92 -100 -262 -125v-148l-64 2v144q-70 0 -102 8l-82 24l-76 31zM215 1100q0 -82 47 -144q47 -55 172 -131l2 555q-221 -53 -221 -280zM498 80q123 18 190.5 97t67.5 202q0 80 -23.5 124t-87.5 91l-76 53 l-71 41v-608z" />
<glyph unicode="%" horiz-adv-x="1583" d="M74 0l1323 1477h110l-1323 -1477h-110zM106 1120q0 156 103 264.5t248 108.5q141 0 241.5 -109.5t100.5 -263.5t-99.5 -262t-246.5 -108q-141 0 -244 110.5t-103 259.5zM188 1120q0 -125 78 -212t189 -87q109 0 187.5 87t78.5 212t-78 212t-190 87q-109 0 -187 -88 t-78 -211zM776 354q0 156 102.5 264.5t249.5 108.5q145 0 248 -108.5t103 -264.5q0 -154 -102.5 -262t-248.5 -108q-147 0 -249.5 108.5t-102.5 261.5zM862 354q0 -125 78 -212t188 -87q109 0 188 88t79 211t-78 212t-191 89q-106 0 -185 -88t-79 -213z" />
<glyph unicode="&#x26;" horiz-adv-x="1265" d="M94 375q0 135 78 233.5t254 188.5q-100 96 -152 184q-45 86 -45 176q0 139 99.5 236.5t244.5 97.5q139 0 232.5 -89t93.5 -224q0 -125 -77 -216.5t-253 -181.5l90 -104l91 -103l86 -94l86 -96l43 88l28 76l29 92l22 100h99l-31 -131l-31 -98l-37 -90l-57 -113l78 -82 l72 -78q47 -49 123 -147h-132l-198 227q-213 -244 -445 -243q-166 0 -278.5 112.5t-112.5 278.5zM197 383q0 -123 86 -214t206 -91q211 0 375 219l-385 434q-283 -129 -282 -348zM326 1169q0 -72 36 -145q36 -61 142 -182q152 74 227.5 153.5t75.5 180.5q0 96 -68 163 q-70 63 -170 64q-55 0 -96 -15.5t-78 -50.5q-70 -66 -69 -168z" />
<glyph unicode="'" horiz-adv-x="354" d="M88 1409q0 35 25.5 62.5t58.5 27.5q43 0 72 -31q25 -31 24 -86q0 -37 -13 -100t-13 -65q-10 -27 -15 -39q-12 -47 -39 -95l-53 -84l-45 -53v84q31 66 47.5 125t16.5 111q0 29 -9 67q-57 33 -57 76z" />
<glyph unicode="(" horiz-adv-x="616" d="M94 737q0 354 148 543q141 178 186 225l115 107h88l-49 -43l-76 -74q-49 -49 -131 -160q-74 -104 -130.5 -272t-56.5 -326q0 -82 12.5 -159.5t41.5 -163.5q53 -164 126.5 -263.5t130 -162t132.5 -123.5h-88q-70 61 -115 108q-37 37 -185.5 221.5t-148.5 542.5z" />
<glyph unicode=")" horiz-adv-x="612" d="M-16 -131l94 84q84 90 164 194q72 102 129 269.5t57 324.5q0 152 -56.5 322t-145.5 294t-242 257h88q76 -61 116 -107q39 -37 189 -227q141 -182 141 -539q0 -358 -145.5 -543.5t-179.5 -217.5q-20 -23 -47 -47.5t-74 -63.5h-88z" />
<glyph unicode="*" horiz-adv-x="802" d="M86 1235l29 76l247 -92v258h80v-265l244 95l29 -80l-248 -92l145 -211l-61 -45l-152 221l-157 -223l-62 49l154 215z" />
<glyph unicode="+" d="M29 698v78h456v461h80v-461h461v-78h-461v-458h-80v458h-456z" />
<glyph unicode="," horiz-adv-x="354" d="M88 72q0 35 25.5 62.5t58.5 27.5q43 0 72 -31q25 -31 24 -86q0 -35 -12 -96.5t-35.5 -135t-85.5 -151.5l-45 -53v84q63 139 64 235v31q-6 25 -9 37q-57 33 -57 76z" />
<glyph unicode="-" horiz-adv-x="706" d="M66 594v86h573v-86h-573z" />
<glyph unicode="." horiz-adv-x="352" d="M88 55q0 33 25.5 60.5t58.5 27.5q35 0 66 -24q27 -27 26 -64q0 -33 -25.5 -58.5t-64.5 -25.5q-29 0 -59 25q-27 27 -27 59z" />
<glyph unicode="/" horiz-adv-x="557" d="M27 -147l442 1755h61l-442 -1755h-61z" />
<glyph unicode="0" d="M104 737q0 268 25.5 395.5t99.5 225.5q47 59 130 98t167 39q86 0 166 -37t142.5 -112.5t89 -219t26.5 -417.5q0 -119 -6 -210t-20 -161q-25 -125 -86 -203q-53 -70 -142 -115q-43 -18 -84 -28t-86 -10q-86 0 -166.5 36.5t-141 111.5t-87.5 213t-27 394zM209 737 q0 -238 18.5 -352.5t81 -210.5t217.5 -96q154 0 216.5 97t83 209t20.5 355q0 236 -18.5 349.5t-81 213t-220.5 99.5q-150 0 -212 -94.5t-83.5 -216.5t-21.5 -353z" />
<glyph unicode="1" d="M473 0v1477h102v-1477h-102z" />
<glyph unicode="2" d="M72 0v33l57 57l236 256q49 59 94 115q33 41 106 137q51 68 92 133.5t63.5 116.5t35 105.5t12.5 105.5q0 145 -93 240.5t-235 95.5q-172 0 -348 -162v123q76 63 166 100t186 37q186 0 308 -121t122 -301q0 -117 -50 -233.5t-198.5 -318.5t-349.5 -400l-20 -19h705v-100 h-889z" />
<glyph unicode="3" d="M125 70v116q170 -106 328 -106q145 0 239 86t94 227q0 150 -99 235t-271 85q-92 0 -180 -15v113q43 -6 82.5 -10t80.5 -4q74 0 117 8q55 6 94 22q74 29 119 105t45 162q0 137 -88 222t-233 85q-150 0 -326 -111v113q80 43 160 65.5t162 22.5q188 0 310 -109.5t122 -285.5 q0 -127 -62.5 -214t-185.5 -134q121 -27 191.5 -122.5t70.5 -228.5q0 -178 -124 -295.5t-316 -117.5q-160 0 -330 86z" />
<glyph unicode="4" d="M59 530v60l703 887h61v-856h158v-91h-158v-530h-98v530h-666zM186 621h539v636q0 31 12 62l-37 -55z" />
<glyph unicode="5" d="M119 63v113q68 -45 144.5 -69.5t152.5 -24.5q160 0 267.5 107.5t107.5 269.5t-105.5 265t-269.5 103q-82 0 -172 -24v674h573v-101h-473v-458l78 6q211 0 344 -128t133 -331q0 -199 -136 -340t-335 -141q-139 0 -309 79z" />
<glyph unicode="6" d="M127 483q0 311 144.5 523.5t232.5 293.5l121 107l106 84l92 -39l-88 -70q-86 -70 -159.5 -148.5t-135.5 -160.5q-51 -70 -90 -145q-14 -27 -43 -101q-16 -39 -33 -77q72 39 132.5 57t134.5 18q178 0 290 -114q55 -57 84 -130t29 -167q0 -186 -111.5 -308t-283.5 -122 q-186 0 -304 138t-118 361zM229 496q0 -188 87 -302t233 -114q125 0 209 93t84 237q0 143 -87 234t-225 91q-117 0 -229 -59l-57 -37z" />
<glyph unicode="7" d="M92 1376v101h897l-631 -1477h-110l575 1339q18 43 51 52l-18 -5l-18 -4l-27 -6h-719z" />
<glyph unicode="8" d="M115 389q0 135 65.5 231.5t184.5 135.5q-109 37 -168.5 127t-59.5 217q0 172 110.5 282.5t282.5 110.5t282 -106.5t110 -278.5q0 -129 -61.5 -220t-172.5 -132q121 -37 186.5 -132.5t65.5 -234.5q0 -182 -112.5 -293.5t-301.5 -111.5q-182 0 -296.5 111.5t-114.5 293.5z M221 387q0 -143 84 -228t221 -85q135 0 220 87t85 228q0 139 -84.5 231.5t-220.5 92.5q-135 0 -220 -91.5t-85 -234.5zM240 1100q0 -129 79.5 -214t206.5 -85q129 0 209 81t80 216t-81 220t-208 85q-125 0 -205.5 -84t-80.5 -219z" />
<glyph unicode="9" d="M113 1065q0 180 111.5 304t283.5 124q188 0 304 -137t116 -363q0 -301 -149.5 -525t-237.5 -300l-123 -109l-94 -75l-91 41l89 69q39 33 80.5 71t78.5 79q68 74 133 162q29 41 61 95t34 58q33 57 71 168q-135 -74 -264 -74q-178 0 -291 115q-55 57 -83.5 130t-28.5 167z M215 1069q0 -145 84 -235.5t223 -90.5q117 0 232 58l59 37l8 73l4 68q0 188 -87 303t-234 115q-127 0 -208 -93.5t-81 -234.5z" />
<glyph unicode=":" horiz-adv-x="399" d="M117 713q0 37 24.5 61.5t61.5 24.5q35 0 65 -25q27 -27 27 -61q0 -37 -26.5 -62.5t-65.5 -25.5q-33 0 -59.5 24.5t-26.5 63.5zM119 55q0 33 25.5 60.5t58.5 27.5q35 0 65 -24q27 -27 27 -64q0 -33 -25.5 -58.5t-62.5 -25.5q-33 0 -60.5 26t-27.5 58z" />
<glyph unicode=";" horiz-adv-x="403" d="M117 72q0 35 25.5 62.5t60.5 27.5q41 0 67.5 -33t26.5 -86q0 -92 -54.5 -227t-121.5 -207v84q61 129 61 235v31q-6 25 -8 37q-57 35 -57 76zM127 713q0 33 25.5 60.5t58.5 27.5t60.5 -25.5t27.5 -60.5q0 -33 -25.5 -58.5t-66.5 -25.5q-35 0 -57.5 22.5t-22.5 59.5z" />
<glyph unicode="&#x3c;" horiz-adv-x="581" d="M74 545l332 547h106l-336 -547l336 -545h-106z" />
<glyph unicode="=" d="M31 621v79h995v-79h-995zM31 776v80h995v-80h-995z" />
<glyph unicode="&#x3e;" horiz-adv-x="583" d="M74 0l327 547l-327 545h110l328 -545l-328 -547h-110z" />
<glyph unicode="?" horiz-adv-x="636" d="M45 1358l35 98q82 35 153 35q137 0 234.5 -93t97.5 -224q0 -82 -49 -168l-57 -86l-76 -109l-109 -160q-61 -104 -61 -192q0 -29 3 -42.5t15.5 -44t53.5 -100.5h-74q-82 82 -82 189q0 90 42 167t81 130l94 139q55 84 86 146.5t31 125.5q0 98 -68 160q-33 31 -73.5 47.5 t-94.5 16.5q-70 0 -137 -19zM141 55q0 35 25.5 62.5t60.5 27.5q37 0 64.5 -25.5t27.5 -62.5t-25.5 -61.5t-66.5 -24.5q-29 0 -59 25q-27 27 -27 59z" />
<glyph unicode="@" horiz-adv-x="1699" d="M117 737q0 131 38 247t122.5 232.5t214 191.5t221.5 87t135 12q266 0 441 -179t175 -458q0 -59 -19.5 -191t-110.5 -250t-156 -130l-70 -8h-12q-76 0 -125 48t-49 116v18q-12 -39 -43 -76q-70 -82 -168 -82q-53 0 -150.5 47.5t-97.5 337.5l6 74q18 133 71.5 231.5 t110 139.5t99.5 55t73 14q113 0 174 -116l9 -21l20 131l96 -2l-80 -450l-2 -13l-26 -174l-4 -30v-23q0 -41 15 -93t85 -52l37 8l49 31q29 23 63.5 64.5t61.5 115.5t39 149l10 129q0 248 -145.5 402.5t-370.5 154.5q-66 0 -190 -22q-135 -18 -288 -213t-153 -455 q0 -53 8.5 -108.5t30.5 -151.5q41 -162 205 -294t367 -132q82 0 155 21q78 18 131 51l68 41l69 55q53 43 105 105l49 -46l-53 -59q-125 -125 -256 -184q-68 -31 -133.5 -45.5t-145.5 -14.5q-272 0 -469.5 185.5t-217 358.5t-19.5 220zM569 594q0 -45 6 -74l19 -55 q35 -76 119 -76q55 0 90 35q35 31 57 68q16 29 39 88l29 98l18 88l4 20l13 88l6 76q0 72 -44 125t-104 53q-76 0 -116 -53l-60 -94l-43 -104q-16 -51 -29 -164l-4 -45v-35v-39z" />
<glyph unicode="A" horiz-adv-x="1239" d="M-45 0l623 1477h88l618 -1477h-113l-206 504h-686l-209 -504h-115zM315 590h615l-293 713l-12 32l-4 35v-12q0 -33 -13 -55z" />
<glyph unicode="B" horiz-adv-x="1148" d="M147 0v1477h349q162 0 270 -103.5t108 -257.5q0 -209 -217 -321q166 -31 256.5 -133.5t90.5 -258.5q0 -178 -122 -290.5t-315 -112.5h-420zM250 90h319q143 0 234.5 87t91.5 229q0 147 -103.5 235t-271.5 88h-270v-639zM250 819h203q139 0 226 80t87 209q0 123 -78 200.5 t-205 77.5h-233v-567z" />
<glyph unicode="C" horiz-adv-x="1392" d="M94 717q0 336 212 556t534 220q219 0 463 -117v-110q-127 68 -230.5 97.5t-222.5 29.5q-285 0 -466 -187.5t-181 -480.5q0 -287 176 -465t459 -178q162 0 254 35l129 49l84 41v-107q-119 -57 -234 -86.5t-233 -29.5q-332 0 -538 200.5t-206 532.5z" />
<glyph unicode="D" horiz-adv-x="1466" d="M147 0v1477h476q330 0 537.5 -205t207.5 -533q0 -113 -24.5 -211t-77.5 -188q-100 -176 -262 -258t-400 -82h-457zM252 92h352q201 0 336 72t226 231.5t91 347.5q0 285 -180 459t-473 174h-352v-1284z" />
<glyph unicode="E" horiz-adv-x="985" d="M147 0v1477h742v-97h-639v-585h624v-95h-624v-602h661v-98h-764z" />
<glyph unicode="F" horiz-adv-x="858" d="M147 0v1477h711v-97h-606v-557h559v-94h-561v-729h-103z" />
<glyph unicode="G" horiz-adv-x="1462" d="M94 727q0 324 215 544t537 220q119 0 213 -19.5t223 -74.5v-105q-123 57 -219 81t-207 24q-279 0 -464 -188.5t-185 -479.5q0 -287 188.5 -469t487.5 -182q92 0 164.5 13t162.5 46v455h-278v88h381v-606q-115 -47 -219 -70q-43 -8 -102.5 -14t-114.5 -6 q-350 0 -566.5 203.5t-216.5 539.5z" />
<glyph unicode="H" horiz-adv-x="1437" d="M147 0v1477h103v-680h934l2 680h104l-2 -1477h-102v711h-936v-711h-103z" />
<glyph unicode="I" horiz-adv-x="399" d="M147 0v1477h103v-1477h-103z" />
<glyph unicode="J" horiz-adv-x="415" d="M-176 -365q82 -57 166 -57q80 0 129 55q23 27 35 66t12 90v1688h104v-1700q0 -127 -73.5 -211t-190.5 -84q-53 0 -80.5 6t-47 12t-54.5 25v110z" />
<glyph unicode="K" horiz-adv-x="1103" d="M147 0v1477h103v-742l4 4l4 6l16 17l680 715h138l-719 -738l776 -739h-145l-728 698l-18 21l-4 8l-4 4v-731h-103z" />
<glyph unicode="L" horiz-adv-x="950" d="M147 0v1477h103v-1385h700v-92h-803z" />
<glyph unicode="M" horiz-adv-x="1531" d="M147 0v1477h101l497 -639q20 -27 21 -62q0 33 22 62l496 639h102v-1477h-104v1356l-8 -49l-12 -19l-496 -635l-494 635l-14 29l-6 39v-1356h-105z" />
<glyph unicode="N" horiz-adv-x="1527" d="M147 0v1477h89l1017 -1262l15 -25l8 -38v1325h104v-1477h-86l-1018 1262q-25 31 -24 55v-1317h-105z" />
<glyph unicode="O" horiz-adv-x="1642" d="M94 737q0 332 205 543t522 211t522 -211t205 -543q0 -330 -203.5 -541.5t-523.5 -211.5q-317 0 -522 211t-205 542zM199 737q0 -291 172 -477t450 -186q276 0 449.5 185t173.5 478q0 297 -174 481.5t-449 184.5q-274 0 -448 -186.5t-174 -479.5z" />
<glyph unicode="P" horiz-adv-x="995" d="M147 0v1477h383q190 0 312.5 -111t122.5 -285t-116 -280.5t-312 -106.5h-287v-694h-103zM250 782h272q150 0 243 81t93 220q0 135 -94 217q-47 41 -108.5 61.5t-145.5 20.5h-260v-600z" />
<glyph unicode="Q" horiz-adv-x="1646" d="M94 745q0 317 209 531.5t522 214.5q317 0 522 -211t205 -541q0 -467 -229 -585q-221 -111 -283 -131l-159 -29q284 -115 456 -115q41 0 111 15l-72 -113q-104 0 -190 18q-82 14 -217 60.5t-262 102.5t-370 187.5t-243 595.5zM201 741q0 -287 174 -473t446 -186 q268 0 445.5 186.5t177.5 472.5q0 289 -173 472.5t-446 183.5q-276 0 -450 -183.5t-174 -472.5z" />
<glyph unicode="R" horiz-adv-x="1128" d="M147 0v1477h396q164 0 278.5 -112t114.5 -275q0 -141 -75 -235.5t-210 -119.5q41 -12 56 -28q16 -10 53 -52l63 -84l90 -137l109 -168l168 -266h-123l-131 213q-125 205 -168 264q-45 72 -114.5 152t-186.5 80h-217v-709h-103zM250 793h264q143 0 229 82.5t86 214.5 q0 125 -87 209.5t-218 84.5h-274v-591z" />
<glyph unicode="S" horiz-adv-x="956" d="M104 92v123l72 -53q135 -82 277 -82q129 0 212 82t83 217q0 137 -105 223q-37 29 -123 74l-174 90q-242 127 -242 338q0 158 118 273.5t280 115.5q90 0 161.5 -22.5t163.5 -75.5v-117l-67 49q-127 70 -256 70q-125 0 -210 -84t-85 -203q0 -158 192 -262l166 -86 q90 -45 187.5 -118t97.5 -255q0 -174 -110.5 -289.5t-286.5 -115.5q-106 0 -191.5 31.5t-159.5 76.5z" />
<glyph unicode="T" horiz-adv-x="1052" d="M-45 1382v95h1141v-95h-516v-1382h-105v1382h-520z" />
<glyph unicode="U" horiz-adv-x="1435" d="M147 565v912h105v-908v-77q6 -31 10 -61t23 -83q49 -115 168 -194q121 -74 264 -74q139 0 259 73.5t163 175t43 240.5v908h104v-912q0 -168 -46 -283.5t-196.5 -206.5t-326.5 -91t-321.5 87t-197 207.5t-51.5 286.5z" />
<glyph unicode="V" horiz-adv-x="1081" d="M-59 1477h112l473 -1260q12 -29 13 -65q0 23 12 65l479 1260h111l-570 -1477h-63z" />
<glyph unicode="W" horiz-adv-x="2031" d="M-45 1477h115l469 -1254l10 -37l4 -39q0 41 12 76l412 1254h80l411 -1254q10 -35 11 -76q0 29 3 41.5t13 34.5l469 1254h113l-568 -1477h-61l-418 1262l-14 67q0 -25 -12 -67l-420 -1262h-62z" />
<glyph unicode="X" horiz-adv-x="1345" d="M-45 0l655 758l-610 719h135l516 -611q25 -25 25 -59q0 23 4 31l18 30l506 609h139l-610 -717l658 -760h-138l-559 653l-10 27l-8 31q-12 -41 -27 -58l-557 -653h-137z" />
<glyph unicode="Y" d="M-59 1477h133l428 -557q18 -18 18 -70q6 49 21 72l444 555h131l-545 -670v-807h-106v809z" />
<glyph unicode="Z" horiz-adv-x="1257" d="M0 0l999 1348q18 29 56 43l-66 -11h-907v97h1130l-999 -1358l-18 -17l-37 -20l37 10l32 6h971v-98h-1198z" />
<glyph unicode="[" horiz-adv-x="499" d="M147 -129v1733h310v-78h-195v-1575h195v-80h-310z" />
<glyph unicode="\" horiz-adv-x="622" d="M113 1475h92l258 -1475h-92z" />
<glyph unicode="]" horiz-adv-x="499" d="M45 -49h195v1575h-195v78h307v-1733h-307v80z" />
<glyph unicode="^" horiz-adv-x="528" d="M0 1221l184 282h160l184 -282l-61 -39l-203 270l-205 -270z" />
<glyph unicode="_" horiz-adv-x="1040" d="M113 0h737v-47h-737v47z" />
<glyph unicode="`" horiz-adv-x="344" d="M0 1446l84 51l184 -280l-59 -39z" />
<glyph unicode="a" horiz-adv-x="919" d="M88 268q0 176 154.5 285t433.5 109v149q0 94 -59.5 150.5t-167.5 56.5q-152 0 -318 -168v117q147 141 334 141q145 0 225 -78t80 -223v-672q0 -37 4 -43t25 -10q20 0 45 8l37 16l10 3v-86q-80 -35 -133 -35q-31 0 -57.5 24.5t-26.5 59.5v20q-68 -55 -140.5 -81.5 t-146.5 -26.5q-133 0 -216 79.5t-83 204.5zM193 276q0 -92 59 -148t164 -56q135 0 260 100v420q-227 0 -355 -86t-128 -230z" />
<glyph unicode="b" horiz-adv-x="1103" d="M147 25v1452h97v-502q59 63 140 98t167 35q195 0 327 -154.5t132 -386.5q0 -266 -158 -424.5t-422 -158.5q-72 0 -132 8t-151 33zM244 94q45 -8 95 -14t91 -6q213 0 345 136t132 359q0 195 -103.5 321t-273.5 126q-76 0 -137 -25.5t-149 -101.5v-795z" />
<glyph unicode="c" horiz-adv-x="935" d="M94 537q0 246 144.5 408.5t361.5 162.5q59 0 79.5 -3t63.5 -15.5t121 -59.5v-104q-59 45 -123 71q-61 20 -131 21q-178 0 -295.5 -136.5t-117.5 -340.5q0 -203 117.5 -333t306.5 -130q76 0 120.5 9t116.5 44v-98q-115 -49 -237 -49q-240 0 -383.5 149.5t-143.5 403.5z " />
<glyph unicode="d" horiz-adv-x="1112" d="M94 524q0 246 151.5 415t377.5 169q84 0 133 -13.5t112 -58.5v441h95v-1477h-95v53q-63 -41 -119.5 -55t-136.5 -14q-227 0 -372.5 151.5t-145.5 388.5zM199 530q0 -205 120.5 -331.5t315.5 -126.5q84 0 128 10t105 47v819q-55 37 -110.5 54.5t-122.5 17.5 q-188 0 -312 -137.5t-124 -352.5z" />
<glyph unicode="e" horiz-adv-x="1064" d="M94 553q0 240 133 397.5t336 157.5q135 0 243.5 -80t139.5 -186.5t31 -255.5h-780v-25q0 -215 110.5 -349t292.5 -134q102 0 172 28q41 14 63.5 25.5t36.5 20.5l84 59v-102q-90 -59 -183 -92t-183 -33q-223 0 -359.5 154.5t-136.5 414.5zM203 674h676q0 156 -91 248 q-86 96 -231 96q-137 0 -229 -89t-125 -255z" />
<glyph unicode="f" horiz-adv-x="456" d="M-6 1004v88h176v28q0 176 92 273.5t268 97.5q78 0 162 -21v-90l-80 15l-75 4q-133 0 -203 -69.5t-70 -201.5v-36h293v-88h-293v-1004h-96v1004h-174z" />
<glyph unicode="g" horiz-adv-x="917" d="M16 -246q0 104 86 183t232 106q-160 49 -160 172q0 145 205 195q-131 31 -206 118.5t-75 219.5q0 150 108.5 255t266.5 105q29 0 45.5 -2t61.5 -14h317v-93h-180q109 -104 108 -249q0 -152 -75.5 -220.5t-122.5 -93.5l-201 -69q-158 -49 -158 -144q0 -96 142 -119 l184 -26q39 -6 113 -31q74 -18 138 -96t64 -168q0 -129 -132 -216t-320 -87q-199 0 -320 74.5t-121 199.5zM111 -240q0 -80 98 -137t254 -57q141 0 244.5 61.5t103.5 147.5q0 100 -101 165.5t-255 65.5q-72 0 -131.5 -21.5t-116.5 -62.5q-96 -68 -96 -162zM193 745 q0 -109 78.5 -184.5t187.5 -75.5q113 0 191.5 75t78.5 185q0 113 -78 193t-190 80q-113 0 -190.5 -80t-77.5 -193z" />
<glyph unicode="h" horiz-adv-x="1071" d="M147 0v1477h97v-547q164 178 336 178q154 0 249 -106.5t95 -272.5v-729h-97v721q0 133 -72.5 216t-191.5 83q-166 0 -319 -191v-829h-97z" />
<glyph unicode="i" horiz-adv-x="403" d="M117 1317q0 31 24 55q23 19 58 23q37 0 59 -23q25 -18 25 -55q0 -31 -25 -52.5t-59 -25.5q-33 0 -57.5 22.5t-24.5 55.5zM156 0v1092h94v-1092h-94z" />
<glyph unicode="j" horiz-adv-x="399" d="M-74 -430q109 16 166 96q31 41 43 101.5t12 171.5v1153h99v-1127q0 -160 -13.5 -226.5t-60.5 -127t-96 -90.5q-39 -25 -125 -41zM119 1317q0 33 22.5 55.5t57.5 22.5t55 -20.5t25 -57.5q0 -29 -21.5 -52.5t-58.5 -27.5q-33 0 -58 23q-18 23 -22 57z" />
<glyph unicode="k" horiz-adv-x="1011" d="M147 0v1477h97v-932l581 547h138l-590 -543l696 -549h-156l-669 543v-543h-97z" />
<glyph unicode="l" horiz-adv-x="391" d="M147 0v1477h97v-1477h-97z" />
<glyph unicode="m" horiz-adv-x="1687" d="M147 0v1092h97v-140q63 78 136 117t163 39q195 0 307 -186q156 186 346 186q156 0 250 -101.5t94 -273.5v-733h-96v731q0 123 -76 205t-188 82q-166 0 -303 -174l10 -49l2 -76v-719h-96v727q0 72 -19.5 132.5t-87.5 109.5t-151 49q-162 0 -291 -168v-850h-97z" />
<glyph unicode="n" horiz-adv-x="1058" d="M147 0v1092h97v-152q127 168 311 168q109 0 198 -56.5t122.5 -136t33.5 -186.5v-729h-94v725q0 135 -69.5 213t-198.5 78q-84 0 -153.5 -38t-149.5 -134v-844h-97z" />
<glyph unicode="o" horiz-adv-x="1193" d="M94 545q0 129 33 227t106 180q140 156 365 156t362.5 -158.5t137.5 -412.5q0 -240 -139.5 -396.5t-360.5 -156.5q-223 0 -363.5 155.5t-140.5 405.5zM197 545q0 -209 111.5 -342t289.5 -133q176 0 288.5 131t112.5 342q0 109 -26.5 191.5t-87.5 154.5q-113 137 -291 137 q-172 0 -284.5 -135t-112.5 -346z" />
<glyph unicode="p" horiz-adv-x="1112" d="M147 -502v1594h97v-60q129 76 258 76q215 0 364.5 -160t149.5 -399q0 -246 -147.5 -405.5t-376.5 -159.5q-84 0 -131.5 13t-116.5 58v-557h-97zM244 137q61 -35 118 -51q29 -6 59 -10t62 -4q182 0 308.5 136t126.5 337q0 207 -124 340t-319 133q-68 0 -115 -12.5 t-116 -49.5v-819z" />
<glyph unicode="q" horiz-adv-x="1103" d="M94 549q0 244 143.5 399.5t368.5 155.5q90 0 135 -13.5t121 -56.5v58h94v-1594h-94v557q-61 -39 -118.5 -55t-133.5 -16q-227 0 -371.5 159.5t-144.5 405.5zM195 551q0 -209 122.5 -344t313.5 -135q70 0 119 14q53 12 114 53v815q-57 33 -119 54q-57 14 -122 14 q-188 0 -308 -132t-120 -339z" />
<glyph unicode="r" horiz-adv-x="729" d="M147 0v1092h97v-250l32 53q78 111 144 164q66 49 137 49q111 0 203 -94l-41 -101q-61 96 -162 97q-86 0 -158 -78q-43 -49 -61 -72q-25 -31 -51 -67q-43 -61 -43 -84v-709h-97z" />
<glyph unicode="s" horiz-adv-x="798" d="M86 807q0 121 100.5 211t241.5 90q45 0 66.5 -2t68.5 -16.5t117 -57.5v-108l-29 22l-63 39q-27 16 -61.5 24.5t-90.5 8.5q-104 0 -176 -59.5t-72 -145.5q0 -113 142 -178l162 -66q115 -49 170 -112q51 -63 51 -158q0 -141 -93.5 -228t-244.5 -87q-86 0 -151.5 24.5 t-135.5 69.5v104l107 -71q61 -37 178 -37q106 0 172.5 61.5t66.5 163.5q0 119 -149 182l-164 68q-213 86 -213 258z" />
<glyph unicode="t" horiz-adv-x="598" d="M-23 1001v91h207v274h95v-274h319v-91h-319v-778q0 -66 45 -108q49 -39 122 -39q78 0 152 30v-96l-78 -20q-31 -6 -78 -6q-125 0 -191.5 59t-66.5 168v790h-207z" />
<glyph unicode="u" d="M147 344v748h97v-746q0 -125 67.5 -197.5t186.5 -72.5q100 0 172.5 45t142.5 149v822h96v-1092h-96v166q-111 -182 -324 -182q-106 0 -194 55t-118 130t-30 175z" />
<glyph unicode="v" horiz-adv-x="839" d="M-45 1092h108l349 -916l8 -57l14 57l340 916h109l-428 -1092h-70z" />
<glyph unicode="w" horiz-adv-x="1486" d="M-29 1092h109l328 -906l10 -71q0 27 4 39l8 32l285 906h57l287 -906l12 -71q0 45 10 71l330 906h109l-412 -1092h-80l-270 831l-15 78l-12 -78l-268 -831h-82z" />
<glyph unicode="x" horiz-adv-x="1015" d="M-29 0l471 553l-452 539h129l368 -449q25 -35 25 -61q0 33 25 61l366 449h127l-452 -539l466 -553h-126l-383 465q-12 12 -23 61q0 -25 -25 -59l-387 -467h-129z" />
<glyph unicode="y" horiz-adv-x="851" d="M-45 1092h108l351 -693l8 -39l4 -22l2 -14q0 29 4 47t10 30l344 691h111l-799 -1594h-114l397 764z" />
<glyph unicode="z" horiz-adv-x="987" d="M59 0l670 967q18 25 57 51q-31 -12 -61 -17h-659v91h862l-672 -973q-10 -20 -53 -43l67 14h658v-90h-869z" />
<glyph unicode="{" horiz-adv-x="645" d="M113 737q55 0 90 41.5t35 104.5v696q0 119 149 119h96v-53h-22q-74 0 -97.5 -26t-23.5 -103v-627q0 -96 -53 -123q-43 -20 -76 -29q55 -6 92 -48t37 -103v-627q0 -82 21.5 -105.5t99.5 -23.5h22v-53h-96q-150 0 -149 119v696q0 96 -80 133z" />
<glyph unicode="|" horiz-adv-x="344" d="M113 0v1475h92v-1475h-92z" />
<glyph unicode="}" horiz-adv-x="645" d="M113 -170h22q74 0 97.5 25.5t23.5 103.5v627q0 61 36 103t93 48q-55 6 -94 47q-35 45 -35 105v627q0 82 -23 104q-18 25 -98 25h-22v53h96q150 0 149 -119v-696q0 -61 33 -103q35 -37 92 -43q-51 0 -88 -41t-37 -104v-696q0 -119 -149 -119h-96v53z" />
<glyph unicode="~" horiz-adv-x="684" d="M29 1628q110 64 192 64l45 -2q14 0 22.5 -2t47.5 -15l82 -20l49 -4q59 0 145 55l43 -74q-109 -63 -194 -63l-70 6l-84 18q-49 12 -88 13q-72 0 -147 -48z" />
<glyph unicode="&#xa1;" horiz-adv-x="393" d="M117 1409q0 31 24.5 57.5t59.5 26.5t65 -25q27 -27 27 -59q0 -35 -25.5 -62.5t-60.5 -27.5q-37 0 -63.5 26.5t-26.5 63.5zM137 53v105l8 411v41l7 68l10 266l10 242h61l11 -242l12 -270l6 -105l6 -411l2 -115q0 -66 -67 -66q-37 0 -51.5 17.5t-14.5 58.5z" />
<glyph unicode="&#xa2;" horiz-adv-x="917" d="M94 537q0 172 74 307t156 180l122 59q43 16 123 17v135h60v-135q61 0 86 -6q25 -2 55 -19l45 -18l43 -27v-102l-51 39l-53 26q-39 16 -107 17h-20v-938l63 2l64 14l100 39v-96l-45 -19l-41 -12l-55 -8l-84 -4v-152h-60v154q-55 0 -92 7t-210 93t-173 447zM195 543 q0 -410 376 -473l-2 940l-77 -15q-27 -6 -162 -74.5t-135 -377.5z" />
<glyph unicode="&#xa3;" horiz-adv-x="1095" d="M88 -16l47 184l49 184l39 158l43 154h-172v98h201q98 397 227 566t340 169q47 0 99 -14l40 -109q-72 23 -131 23q-164 0 -274.5 -147.5t-206.5 -487.5h244v-98h-271l-34 -142l-35 -141l-37 -143l-37 -144q131 23 234 23q51 0 102 -5.5t100.5 -11.5t90 -10t81.5 -4l78 6 q12 2 34 7t69 20v-99q-88 -33 -187 -32l-131 6l-180 22l-84 7h-46.5t-47.5 -5l-146 -18z" />
<glyph unicode="&#xa4;" horiz-adv-x="1009" d="M113 440l135 135q-57 70 -58 162q0 90 56 164l-133 125l12 16l12 17l15 14l14 12l135 -129q72 53 168 54q41 0 76 -10.5t49 -17.5t39 -26l131 131q35 -25 57 -59l-135 -127q51 -74 51 -164t-53 -162l135 -137l-14 -12l-12 -14l-17 -15l-16 -12l-131 133q-74 -55 -164 -55 q-88 0 -164 57l-135 -133l-41 39zM276 737q0 -72 55.5 -129t133.5 -57q76 0 131 55.5t55 132.5q0 74 -54 129.5t-132 55.5q-80 0 -134.5 -54.5t-54.5 -132.5z" />
<glyph unicode="&#xa5;" horiz-adv-x="1318" d="M74 1477h129l430 -557q18 -18 18 -70q6 55 21 72l444 555h131l-446 -545h389v-88h-447l-41 -37l-2 -35h490v-88h-488v-684h-104v684h-487v88h489l-2 37l-23 27l-464 4v84h397z" />
<glyph unicode="&#xa7;" horiz-adv-x="1142" d="M92 555q0 119 65.5 196.5t186.5 114.5q-143 107 -143 271q0 150 115.5 253t279.5 103q166 0 278.5 -106.5t112.5 -270.5h-110q0 123 -79 206t-204 83q-113 0 -194 -78t-81 -184q0 -188 197 -250l313 -100q219 -68 220 -297q0 -111 -62.5 -188t-179.5 -111 q72 -57 104.5 -122t32.5 -147q0 -152 -112.5 -255t-278.5 -103q-172 0 -282.5 102.5t-110.5 257.5v21h108q0 -127 80 -212t207 -85q115 0 192.5 74.5t77.5 189.5q0 193 -198 254l-312 98q-223 61 -223 285zM209 569q0 -74 48 -136t132 -87l285 -80l59 -4q82 0 143.5 64.5 t61.5 154.5q0 80 -47 141.5t-125 86.5l-293 86l-63 6q-80 0 -140.5 -68.5t-60.5 -163.5z" />
<glyph unicode="&#xa8;" horiz-adv-x="352" d="M-45 1262q0 31 20.5 51t57.5 24q33 0 55.5 -19.5t22.5 -55.5q0 -31 -20.5 -51.5t-57.5 -24.5q-31 0 -54.5 21.5t-23.5 54.5zM242 1262q0 31 19 51t56 24q33 0 56.5 -22.5t23.5 -52.5q0 -31 -20.5 -51.5t-57.5 -24.5q-33 0 -53 21.5t-24 54.5z" />
<glyph unicode="&#xa9;" horiz-adv-x="1908" d="M119 739q0 318 223 541q106 106 250 164q74 29 143.5 43t149.5 14q150 0 289 -56t248.5 -163.5t164.5 -253.5q29 -76 43.5 -143.5t14.5 -147.5q0 -150 -55.5 -287t-165 -249.5t-251 -169t-292.5 -56.5q-147 0 -287.5 55.5t-307.5 222.5t-167 486zM203 739q0 -141 50 -264 t150 -223q94 -94 222 -152q123 -49 260 -49q129 0 256 49q63 25 116.5 62t103.5 88t87 106.5t61 120.5q51 129 52 262q0 133 -50.5 260t-147.5 226.5t-224 150.5q-57 23 -126 37t-132 14q-133 0 -254 -49t-218.5 -147t-151.5 -228.5t-54 -263.5zM387 723q0 98 46 222 t178 215t296 91q59 0 145.5 -13t200.5 -112l-49 -69q-86 80 -155 92l-93 16l-47 2q-154 0 -271.5 -99t-135.5 -204q-8 -49 -12.5 -81.5t-4.5 -57.5q0 -184 125 -307q61 -59 135 -90t164 -31q131 0 187 35l71 47l33 27l51 -68q-70 -59 -155 -94q-84 -31 -181 -31 q-223 0 -375.5 147.5t-152.5 362.5z" />
<glyph unicode="&#xaa;" horiz-adv-x="978" d="M113 1149q0 35 14 112.5t104.5 156.5t202.5 79q27 0 43.5 -2t65.5 -14q78 -14 137 -129l10 -17l6 -14v154h97v-656h-99v164l-6 -16q-31 -74 -100.5 -118t-157.5 -44q-41 0 -86 12t-118.5 62.5t-96.5 142.5zM135 625v90h658v-90h-658zM215 1149q0 -37 4 -49 q20 -106 94 -156.5t142 -50.5q72 0 140.5 48t86.5 116l14 98q0 29 -4 51.5t-18 53.5l-21 38q-31 51 -85 81t-111 30q-96 0 -158.5 -64.5t-75.5 -117.5z" />
<glyph unicode="&#xab;" horiz-adv-x="878" d="M74 545l332 547h106l-336 -547l336 -545h-106zM367 545l335 547h107l-336 -547l336 -545h-107z" />
<glyph unicode="&#xac;" horiz-adv-x="1226" d="M113 737v92h909v-387h-86v295h-823z" />
<glyph unicode="&#xad;" horiz-adv-x="706" d="M66 594v86h573v-86h-573z" />
<glyph unicode="&#xae;" horiz-adv-x="1908" d="M119 739q0 318 223 541q106 106 250 164q74 29 143.5 43t149.5 14q150 0 289 -56t248.5 -163.5t164.5 -253.5q29 -76 43.5 -143.5t14.5 -147.5q0 -150 -55.5 -287t-165 -249.5t-251 -169t-292.5 -56.5q-147 0 -287.5 55.5t-307.5 222.5t-167 486zM203 739q0 -141 50 -264 t150 -223q94 -94 222 -152q123 -49 260 -49q129 0 256 49q63 25 116.5 62t103.5 88t87 106.5t61 120.5q51 129 52 262q0 133 -50.5 260t-147.5 226.5t-224 150.5q-57 23 -126 37t-132 14q-133 0 -254 -49t-218.5 -147t-151.5 -228.5t-54 -263.5zM662 250v999h202 q84 0 130 -13t97.5 -56t67.5 -109q12 -61 12 -90q0 -106 -63.5 -176t-175.5 -84h-41l328 -471h-117l-344 508v-508h-96zM758 784h86q229 0 229 189q0 90 -56 142t-157 52h-102v-383z" />
<glyph unicode="&#xb1;" horiz-adv-x="1216" d="M90 39v139h946v-139h-946zM90 539v139h404v250h139v-250h403v-139h-403v-250h-139v250h-404z" />
<glyph unicode="&#xb4;" horiz-adv-x="335" d="M94 1221l185 280l83 -51l-206 -268z" />
<glyph unicode="&#xb5;" horiz-adv-x="1275" d="M150 -285l4 119l4 182l-2 207l-4 195v502h188v-607q0 -145 28.5 -194t102.5 -49q115 0 193.5 166.5t78.5 416.5v267h189v-672q0 -92 18.5 -135t59.5 -43t64.5 42t23.5 126v28h43l2 -18v-27q0 -109 -48 -174t-137 -65q-98 0 -153 88t-55 264q-47 -182 -126 -267t-198 -85 q-88 0 -150 53q-55 55 -81 158l-2 -58q0 -135 63 -287.5t68 -189.5q0 -41 -22.5 -63.5t-63.5 -22.5q-47 0 -67.5 36t-20.5 107z" />
<glyph unicode="&#xb6;" horiz-adv-x="1292" d="M113 1100q0 156 109.5 265.5t262.5 109.5h598v-82h-600q-117 0 -201.5 -87t-84.5 -212q0 -119 86 -204t202 -85h150v512h82v-1317h-82v723h-150q-156 0 -264 110.5t-108 266.5zM862 0v1317h82v-1317h-82z" />
<glyph unicode="&#xb8;" horiz-adv-x="323" d="M127 -303l12 35q31 -10 62 -15q76 0 75 64q0 55 -67 55q-23 0 -45 -8l57 203h68l-37 -140h22q41 0 70 -28.5t29 -71.5q0 -47 -37 -84q-39 -33 -98 -33q-53 0 -111 23z" />
<glyph unicode="&#xba;" horiz-adv-x="983" d="M113 1153l6 68q18 109 86.5 182.5t130.5 85.5l82 14l39 2q33 0 103.5 -13t139 -85t82.5 -147l15 -107q0 -35 -13.5 -104.5t-81 -142t-143.5 -91.5l-106 -14q-35 0 -102.5 13t-141.5 87q-66 72 -90 184zM125 625v90h659v-90h-659zM213 1153q0 -110 66 -182q68 -78 174 -78 q61 0 117.5 31.5t91 90t34.5 138.5q0 78 -34.5 137.5t-91 92t-117.5 32.5q-102 0 -171 -74.5t-69 -187.5z" />
<glyph unicode="&#xbb;" horiz-adv-x="880" d="M74 0l327 547l-327 545h110l328 -545l-328 -547h-110zM367 0l331 547l-331 545h114l328 -545l-328 -547h-114z" />
<glyph unicode="&#xbf;" horiz-adv-x="628" d="M53 301q0 84 33 140.5t150 224.5l110 161q16 25 26.5 47.5t18.5 51.5q16 49 17 92q0 80 -76 180h76q84 -78 84 -188q0 -86 -41 -160q-33 -66 -62 -109l-78 -114l-80 -119q-27 -41 -50 -90t-23 -119q0 -104 66.5 -166.5t176.5 -62.5h35q25 6 43.5 9t37 9t58.5 25l-34 -101 q-88 -33 -154 -32q-139 0 -236.5 92t-97.5 229zM301 1411q0 37 24.5 61.5t65.5 24.5q33 0 60.5 -25.5t27.5 -58.5q0 -35 -24 -65q-27 -27 -64 -27t-63.5 26.5t-26.5 63.5z" />
<glyph unicode="&#xc0;" horiz-adv-x="1239" d="M-45 0l623 1477h88l618 -1477h-113l-206 504h-686l-209 -504h-115zM315 590h615l-293 713l-12 32l-4 35v-12q0 -33 -13 -55zM446 1903l84 51l184 -280l-59 -39z" />
<glyph unicode="&#xc1;" horiz-adv-x="1239" d="M-45 0l623 1477h88l618 -1477h-113l-206 504h-686l-209 -504h-115zM315 590h615l-293 713l-12 32l-4 35v-12q0 -33 -13 -55zM545 1678l185 280l83 -51l-206 -268z" />
<glyph unicode="&#xc2;" horiz-adv-x="1239" d="M-45 0l623 1477h88l618 -1477h-113l-206 504h-686l-209 -504h-115zM315 590h615l-293 713l-12 32l-4 35v-12q0 -33 -13 -55zM354 1678l184 282h160l184 -282l-61 -39l-203 270l-205 -270z" />
<glyph unicode="&#xc3;" horiz-adv-x="1239" d="M-45 0l623 1477h88l618 -1477h-113l-206 504h-686l-209 -504h-115zM311 1704q104 62 186 62q31 0 105 -19l86 -16l53 -8q57 0 143 55l43 -74q-111 -61 -190 -61h-31q-25 6 -37 8l-86 18l-86 11q-70 0 -143 -47zM315 590h615l-293 713l-12 32l-4 35v-12q0 -33 -13 -55z " />
<glyph unicode="&#xc4;" horiz-adv-x="1239" d="M-45 0l623 1477h88l618 -1477h-113l-206 504h-686l-209 -504h-115zM315 590h615l-293 713l-12 32l-4 35v-12q0 -33 -13 -55zM340 1554q0 37 25.5 62.5t66.5 25.5q31 0 57.5 -24.5t26.5 -63.5q0 -37 -24.5 -61.5t-61.5 -24.5q-35 0 -62.5 26t-27.5 60zM727 1554 q0 33 25.5 60.5t60.5 27.5q37 0 62.5 -26.5t25.5 -61.5q0 -37 -24.5 -61.5t-63.5 -24.5q-37 0 -61.5 25t-24.5 61z" />
<glyph unicode="&#xc5;" horiz-adv-x="1239" d="M-45 0l623 1477h26q-76 25 -105.5 58.5t-29.5 86.5q0 70 44 117t110 47q61 0 106 -48t45 -116q0 -49 -24.5 -80t-94.5 -65h11l618 -1477h-113l-206 504h-686l-209 -504h-115zM315 590h615l-293 713l-12 32l-4 35v-12q0 -33 -13 -55zM543 1630q0 -31 20.5 -51.5 t57.5 -24.5q33 0 56 21.5t23 54.5t-22.5 57.5t-54.5 24.5q-33 0 -58 -24q-18 -23 -22 -58z" />
<glyph unicode="&#xc6;" horiz-adv-x="1714" d="M-74 0l885 1477h805v-97h-639v-585h631v-90h-633v-605h665v-100h-770v526h-510l-311 -526h-123zM412 612h460v793l-16 -45z" />
<glyph unicode="&#xc7;" horiz-adv-x="1392" d="M94 715q0 334 210 556t536 222q219 0 463 -117v-110q-127 68 -230.5 97.5t-222.5 29.5q-285 0 -466 -187.5t-181 -480.5q0 -287 176 -465t459 -178q162 0 254 35l129 49l84 41v-107q-106 -51 -226 -84q-117 -27 -223 -26h-31l-28 -96l22 2q41 0 70 -29t29 -74 q0 -49 -39 -82t-97 -33q-53 0 -110 23l12 35q31 -10 61 -15q76 0 76 64q0 55 -67 55q-23 0 -45 -8l49 160q-57 0 -89 5t-66 14t-74 26.5t-111 54.5q-129 68 -226.5 235t-97.5 388z" />
<glyph unicode="&#xc8;" horiz-adv-x="985" d="M147 0v1477h742v-97h-639v-585h624v-95h-624v-602h661v-98h-764zM319 1903l84 51l184 -280l-59 -39z" />
<glyph unicode="&#xc9;" horiz-adv-x="985" d="M147 0v1477h742v-97h-639v-585h624v-95h-624v-602h661v-98h-764zM418 1678l185 280l83 -51l-206 -268z" />
<glyph unicode="&#xca;" horiz-adv-x="985" d="M147 0v1477h742v-97h-639v-585h624v-95h-624v-602h661v-98h-764zM227 1678l184 282h160l184 -282l-61 -39l-203 270l-205 -270z" />
<glyph unicode="&#xcb;" horiz-adv-x="985" d="M147 0v1477h742v-97h-639v-585h624v-95h-624v-602h661v-98h-764zM270 1719q0 31 20.5 51t57.5 24q33 0 55.5 -19.5t22.5 -55.5q0 -31 -20.5 -51.5t-57.5 -24.5q-31 0 -54.5 21.5t-23.5 54.5zM557 1719q0 31 19 51t56 24q33 0 56.5 -22.5t23.5 -52.5q0 -31 -20.5 -51.5 t-57.5 -24.5q-33 0 -53 21.5t-24 54.5z" />
<glyph unicode="&#xcc;" horiz-adv-x="399" d="M27 1903l84 51l184 -280l-59 -39zM147 0v1477h103v-1477h-103z" />
<glyph unicode="&#xcd;" horiz-adv-x="399" d="M125 1678l185 280l83 -51l-206 -268zM147 0v1477h103v-1477h-103z" />
<glyph unicode="&#xce;" horiz-adv-x="399" d="M-61 1678l184 282h160l184 -282l-61 -39l-203 270l-205 -270zM147 0v1477h103v-1477h-103z" />
<glyph unicode="&#xcf;" horiz-adv-x="399" d="M-22 1719q0 31 20.5 51t57.5 24q33 0 55.5 -19.5t22.5 -55.5q0 -31 -20.5 -51.5t-57.5 -24.5q-31 0 -54.5 21.5t-23.5 54.5zM147 0v1477h103v-1477h-103zM265 1719q0 31 19 51t56 24q33 0 56.5 -22.5t23.5 -52.5q0 -31 -20.5 -51.5t-57.5 -24.5q-33 0 -53 21.5t-24 54.5z " />
<glyph unicode="&#xd1;" horiz-adv-x="1527" d="M147 0v1477h89l1017 -1262l15 -25l8 -38v1325h104v-1477h-86l-1018 1262q-25 31 -24 55v-1317h-105zM455 1704q104 62 186 62q31 0 105 -19l86 -16l53 -8q57 0 143 55l43 -74q-111 -61 -190 -61h-31q-25 6 -37 8l-86 18l-86 11q-70 0 -143 -47z" />
<glyph unicode="&#xd2;" horiz-adv-x="1642" d="M94 737q0 332 205 543t522 211t522 -211t205 -543q0 -330 -203.5 -541.5t-523.5 -211.5q-317 0 -522 211t-205 542zM199 737q0 -291 172 -477t450 -186q276 0 449.5 185t173.5 478q0 297 -174 481.5t-449 184.5q-274 0 -448 -186.5t-174 -479.5zM649 1903l84 51l184 -280 l-59 -39z" />
<glyph unicode="&#xd3;" horiz-adv-x="1642" d="M94 737q0 332 205 543t522 211t522 -211t205 -543q0 -330 -203.5 -541.5t-523.5 -211.5q-317 0 -522 211t-205 542zM199 737q0 -291 172 -477t450 -186q276 0 449.5 185t173.5 478q0 297 -174 481.5t-449 184.5q-274 0 -448 -186.5t-174 -479.5zM747 1678l185 280l83 -51 l-206 -268z" />
<glyph unicode="&#xd4;" horiz-adv-x="1642" d="M94 737q0 332 205 543t522 211t522 -211t205 -543q0 -330 -203.5 -541.5t-523.5 -211.5q-317 0 -522 211t-205 542zM199 737q0 -291 172 -477t450 -186q276 0 449.5 185t173.5 478q0 297 -174 481.5t-449 184.5q-274 0 -448 -186.5t-174 -479.5zM557 1678l184 282h160 l184 -282l-61 -39l-203 270l-205 -270z" />
<glyph unicode="&#xd5;" horiz-adv-x="1642" d="M94 737q0 332 205 543t522 211t522 -211t205 -543q0 -330 -203.5 -541.5t-523.5 -211.5q-317 0 -522 211t-205 542zM199 737q0 -291 172 -477t450 -186q276 0 449.5 185t173.5 478q0 297 -174 481.5t-449 184.5q-274 0 -448 -186.5t-174 -479.5zM512 1704q104 62 186 62 q31 0 105 -19l86 -16l53 -8q57 0 143 55l43 -74q-111 -61 -190 -61h-31q-25 6 -37 8l-86 18l-86 11q-70 0 -143 -47z" />
<glyph unicode="&#xd6;" horiz-adv-x="1642" d="M94 737q0 332 205 543t522 211t522 -211t205 -543q0 -330 -203.5 -541.5t-523.5 -211.5q-317 0 -522 211t-205 542zM199 737q0 -291 172 -477t450 -186q276 0 449.5 185t173.5 478q0 297 -174 481.5t-449 184.5q-274 0 -448 -186.5t-174 -479.5zM367 1548q0 31 26.5 58.5 t63.5 27.5q33 0 60.5 -25.5t27.5 -58.5q0 -35 -26.5 -61.5t-63.5 -26.5q-35 0 -61.5 24.5t-26.5 61.5zM1098 1550q0 33 25.5 58.5t62.5 25.5q35 0 62.5 -25.5t27.5 -60.5q0 -37 -25.5 -61.5t-64.5 -24.5q-33 0 -60.5 25.5t-27.5 62.5z" />
<glyph unicode="&#xd8;" horiz-adv-x="1650" d="M94 43l180 182q-96 123 -135 244t-39 274q0 322 203 535t520 213q182 0 292 -54.5t212 -136.5l176 181l53 -56l-180 -184q96 -115 136 -229.5t40 -274.5q0 -328 -203.5 -540.5t-523.5 -212.5q-182 0 -293.5 55t-197.5 131l-176 -182zM203 733q0 -115 24.5 -212t71.5 -163 l49 -61l907 934l-73 59q-31 23 -115 65t-236 42q-162 0 -315.5 -83t-209.5 -184.5t-81 -195.5q-10 -41 -16 -92t-6 -109zM397 238q82 -63 148 -101q25 -10 57.5 -22.5t95 -26.5t131.5 -14q270 0 444.5 186t174.5 477q0 76 -6 131.5t-23 106.5q-27 90 -106 194z" />
<glyph unicode="&#xd9;" horiz-adv-x="1435" d="M147 565v912h105v-908v-77q6 -31 10 -61t23 -83q49 -115 168 -194q121 -74 264 -74q139 0 259 73.5t163 175t43 240.5v908h104v-912q0 -168 -46 -283.5t-196.5 -206.5t-326.5 -91t-321.5 87t-197 207.5t-51.5 286.5zM545 1903l84 51l184 -280l-59 -39z" />
<glyph unicode="&#xda;" horiz-adv-x="1435" d="M147 565v912h105v-908v-77q6 -31 10 -61t23 -83q49 -115 168 -194q121 -74 264 -74q139 0 259 73.5t163 175t43 240.5v908h104v-912q0 -168 -46 -283.5t-196.5 -206.5t-326.5 -91t-321.5 87t-197 207.5t-51.5 286.5zM643 1678l185 280l83 -51l-206 -268z" />
<glyph unicode="&#xdb;" horiz-adv-x="1435" d="M147 565v912h105v-908v-77q6 -31 10 -61t23 -83q49 -115 168 -194q121 -74 264 -74q139 0 259 73.5t163 175t43 240.5v908h104v-912q0 -168 -46 -283.5t-196.5 -206.5t-326.5 -91t-321.5 87t-197 207.5t-51.5 286.5zM453 1678l184 282h160l184 -282l-61 -39l-203 270 l-205 -270z" />
<glyph unicode="&#xdc;" horiz-adv-x="1435" d="M147 565v912h105v-908v-77q6 -31 10 -61t23 -83q49 -115 168 -194q121 -74 264 -74q139 0 259 73.5t163 175t43 240.5v908h104v-912q0 -168 -46 -283.5t-196.5 -206.5t-326.5 -91t-321.5 87t-197 207.5t-51.5 286.5zM449 1649q0 35 25.5 62.5t62.5 27.5t63.5 -26.5 t26.5 -65.5q0 -31 -27 -58.5t-63 -27.5q-35 0 -61.5 26.5t-26.5 61.5zM807 1647q0 37 26.5 64.5t63.5 27.5q35 0 61.5 -26.5t26.5 -63.5q0 -33 -25.5 -60.5t-62.5 -27.5q-35 0 -62.5 25.5t-27.5 60.5z" />
<glyph unicode="&#xdf;" horiz-adv-x="1196" d="M147 0v1030v74t5 70q0 47 19 124.5t112.5 144t228.5 66.5q168 0 273.5 -84t105.5 -219q0 -94 -90 -196l-76 -90q-51 -57 -51 -109q0 -39 35 -80q18 -16 56 -49t105 -86l150 -117q119 -100 119 -205q0 -121 -100.5 -205.5t-250.5 -84.5q-119 0 -233 51v98q135 -59 238 -59 q104 0 173.5 57t69.5 143q0 55 -39 100.5t-200 174.5l-140 113q-78 72 -77 141q0 35 14 63.5t59 85.5l64 82q49 57 63.5 92t14.5 68q0 98 -82 168t-201 70q-141 0 -204.5 -88.5t-63.5 -286.5v-1057h-97z" />
<glyph unicode="&#xe0;" horiz-adv-x="919" d="M88 268q0 176 154.5 285t433.5 109v149q0 94 -59.5 150.5t-167.5 56.5q-152 0 -318 -168v117q147 141 334 141q145 0 225 -78t80 -223v-672q0 -37 4 -43t25 -10q20 0 45 8l37 16l10 3v-86q-80 -35 -133 -35q-31 0 -57.5 24.5t-26.5 59.5v20q-68 -55 -140.5 -81.5 t-146.5 -26.5q-133 0 -216 79.5t-83 204.5zM193 276q0 -92 59 -148t164 -56q135 0 260 100v420q-227 0 -355 -86t-128 -230zM287 1446l84 51l184 -280l-59 -39z" />
<glyph unicode="&#xe1;" horiz-adv-x="919" d="M88 268q0 176 154.5 285t433.5 109v149q0 94 -59.5 150.5t-167.5 56.5q-152 0 -318 -168v117q147 141 334 141q145 0 225 -78t80 -223v-672q0 -37 4 -43t25 -10q20 0 45 8l37 16l10 3v-86q-80 -35 -133 -35q-31 0 -57.5 24.5t-26.5 59.5v20q-68 -55 -140.5 -81.5 t-146.5 -26.5q-133 0 -216 79.5t-83 204.5zM193 276q0 -92 59 -148t164 -56q135 0 260 100v420q-227 0 -355 -86t-128 -230zM385 1221l185 280l83 -51l-206 -268z" />
<glyph unicode="&#xe2;" horiz-adv-x="919" d="M88 268q0 176 154.5 285t433.5 109v149q0 94 -59.5 150.5t-167.5 56.5q-152 0 -318 -168v117q147 141 334 141q145 0 225 -78t80 -223v-672q0 -37 4 -43t25 -10q20 0 45 8l37 16l10 3v-86q-80 -35 -133 -35q-31 0 -57.5 24.5t-26.5 59.5v20q-68 -55 -140.5 -81.5 t-146.5 -26.5q-133 0 -216 79.5t-83 204.5zM193 276q0 -92 59 -148t164 -56q135 0 260 100v420q-227 0 -355 -86t-128 -230zM195 1221l184 282h160l184 -282l-61 -39l-203 270l-205 -270z" />
<glyph unicode="&#xe3;" horiz-adv-x="919" d="M88 268q0 176 154.5 285t433.5 109v149q0 94 -59.5 150.5t-167.5 56.5q-152 0 -318 -168v117q147 141 334 141q145 0 225 -78t80 -223v-672q0 -37 4 -43t25 -10q20 0 45 8l37 16l10 3v-86q-80 -35 -133 -35q-31 0 -57.5 24.5t-26.5 59.5v20q-68 -55 -140.5 -81.5 t-146.5 -26.5q-133 0 -216 79.5t-83 204.5zM152 1247q104 62 186 62q31 0 105 -19l86 -16l53 -8q57 0 143 55l43 -74q-111 -61 -190 -61h-31q-25 6 -37 8l-86 18l-86 11q-70 0 -143 -47zM193 276q0 -92 59 -148t164 -56q135 0 260 100v420q-227 0 -355 -86t-128 -230z" />
<glyph unicode="&#xe4;" horiz-adv-x="919" d="M88 268q0 176 154.5 285t433.5 109v149q0 94 -59.5 150.5t-167.5 56.5q-152 0 -318 -168v117q147 141 334 141q145 0 225 -78t80 -223v-672q0 -37 4 -43t25 -10q20 0 45 8l37 16l10 3v-86q-80 -35 -133 -35q-31 0 -57.5 24.5t-26.5 59.5v20q-68 -55 -140.5 -81.5 t-146.5 -26.5q-133 0 -216 79.5t-83 204.5zM193 276q0 -92 59 -148t164 -56q135 0 260 100v420q-227 0 -355 -86t-128 -230zM244 1311q0 31 22 53q23 18 58 22q31 0 53 -22q25 -18 24 -55q0 -29 -24 -54q-20 -16 -55 -20q-33 0 -55.5 19.5t-22.5 56.5zM535 1309q0 33 19 55 t54 22t57.5 -19t22.5 -56q0 -31 -20.5 -51.5t-57.5 -24.5q-31 0 -53 19.5t-22 54.5z" />
<glyph unicode="&#xe5;" horiz-adv-x="911" d="M88 266q0 86 49 172t122 128t204 65l96 16l107 8v156q0 96 -57.5 150.5t-164.5 54.5q-147 0 -323 -166v123l55 45q53 35 135 65q74 25 146 25q88 0 164 -47q80 -45 110 -111q16 -33 24.5 -65.5t8.5 -77.5v-672l2 -41q4 -12 25 -12q23 0 45 8l38 14l9 5v-86 q-80 -35 -142 -35q-78 0 -77 78l2 26q-86 -61 -148 -88q-61 -20 -133 -20q-135 0 -216 73.5t-81 208.5zM184 279q0 -92 57.5 -149.5t151.5 -57.5q115 0 176 34q31 18 58.5 37t40.5 29v420q-35 0 -79.5 -7.5t-105.5 -21.5q-299 -72 -299 -284zM283 1358q0 61 43.5 107 t109.5 46q61 0 104.5 -44t43.5 -109q0 -66 -44 -110t-110 -44q-61 0 -104 44t-43 110zM346 1358q0 -31 24.5 -57.5t61.5 -26.5t61.5 24.5t24.5 59.5q0 33 -25.5 60.5t-58.5 27.5q-35 0 -61.5 -26.5t-26.5 -61.5z" />
<glyph unicode="&#xe6;" horiz-adv-x="1634" d="M88 272q0 129 94 223.5t203 118.5q53 12 90 19.5t78 13.5l123 8v154q0 100 -59.5 154.5t-167.5 54.5q-154 0 -324 -166v121q154 135 334 135q121 0 197.5 -56.5t101.5 -166.5q152 223 383 223q178 0 291.5 -134t113.5 -345v-43h-776q0 -236 111.5 -374t298.5 -138 q106 0 172 28q74 29 105.5 48.5t70.5 56.5v-103l-60 -41q-59 -31 -145 -55t-154 -24q-268 0 -389 200q-96 -106 -189 -153t-200 -47q-129 0 -216 79.5t-87 208.5zM190 276q0 -94 59.5 -148t160.5 -54q156 0 335 155l-34 90l-23 82l-10 70l-2 78v43q-231 0 -358.5 -87 t-127.5 -229zM780 674h668q0 152 -87 248t-226 96q-98 0 -177 -51.5t-116 -116.5l-43 -94z" />
<glyph unicode="&#xe7;" horiz-adv-x="935" d="M94 537q0 246 144.5 408.5t361.5 162.5q59 0 79.5 -3t63.5 -15.5t121 -59.5v-104q-59 45 -123 71q-61 20 -131 21q-178 0 -295.5 -136.5t-117.5 -340.5q0 -203 117.5 -333t306.5 -130q76 0 120.5 9t116.5 44v-98q-115 -49 -215 -49l-57 4l-29 -97h23q43 0 71.5 -28.5 t28.5 -71.5q0 -47 -37 -84q-39 -33 -98 -33q-53 0 -111 23l12 35q31 -10 62 -15q76 0 76 64q0 55 -68 55q-23 0 -47 -8l51 166q-96 12 -187 60t-165 177t-74 306z" />
<glyph unicode="&#xe8;" horiz-adv-x="1064" d="M94 553q0 240 133 397.5t336 157.5q135 0 243.5 -80t139.5 -186.5t31 -255.5h-780v-25q0 -215 110.5 -349t292.5 -134q102 0 172 28q41 14 63.5 25.5t36.5 20.5l84 59v-102q-90 -59 -183 -92t-183 -33q-223 0 -359.5 154.5t-136.5 414.5zM203 674h676q0 156 -91 248 q-86 96 -231 96q-137 0 -229 -89t-125 -255zM360 1446l84 51l184 -280l-59 -39z" />
<glyph unicode="&#xe9;" horiz-adv-x="1064" d="M94 553q0 240 133 397.5t336 157.5q135 0 243.5 -80t139.5 -186.5t31 -255.5h-780v-25q0 -215 110.5 -349t292.5 -134q102 0 172 28q41 14 63.5 25.5t36.5 20.5l84 59v-102q-90 -59 -183 -92t-183 -33q-223 0 -359.5 154.5t-136.5 414.5zM203 674h676q0 156 -91 248 q-86 96 -231 96q-137 0 -229 -89t-125 -255zM459 1221l185 280l83 -51l-206 -268z" />
<glyph unicode="&#xea;" horiz-adv-x="1064" d="M94 553q0 240 133 397.5t336 157.5q135 0 243.5 -80t139.5 -186.5t31 -255.5h-780v-25q0 -215 110.5 -349t292.5 -134q102 0 172 28q41 14 63.5 25.5t36.5 20.5l84 59v-102q-90 -59 -183 -92t-183 -33q-223 0 -359.5 154.5t-136.5 414.5zM203 674h676q0 156 -91 248 q-86 96 -231 96q-137 0 -229 -89t-125 -255zM268 1221l184 282h160l184 -282l-61 -39l-203 270l-205 -270z" />
<glyph unicode="&#xeb;" horiz-adv-x="1064" d="M94 553q0 240 133 397.5t336 157.5q135 0 243.5 -80t139.5 -186.5t31 -255.5h-780v-25q0 -215 110.5 -349t292.5 -134q102 0 172 28q41 14 63.5 25.5t36.5 20.5l84 59v-102q-90 -59 -183 -92t-183 -33q-223 0 -359.5 154.5t-136.5 414.5zM203 674h676q0 156 -91 248 q-86 96 -231 96q-137 0 -229 -89t-125 -255zM311 1262q0 31 20.5 51t57.5 24q33 0 55.5 -19.5t22.5 -55.5q0 -31 -20.5 -51.5t-57.5 -24.5q-31 0 -54.5 21.5t-23.5 54.5zM598 1262q0 31 19 51t56 24q33 0 56.5 -22.5t23.5 -52.5q0 -31 -20.5 -51.5t-57.5 -24.5 q-33 0 -53 21.5t-24 54.5z" />
<glyph unicode="&#xec;" horiz-adv-x="241" d="M-49 1446l84 51l184 -280l-59 -39zM74 0v1092h94v-1092h-94z" />
<glyph unicode="&#xed;" horiz-adv-x="241" d="M49 1221l185 280l83 -51l-206 -268zM74 0v1092h94v-1092h-94z" />
<glyph unicode="&#xee;" horiz-adv-x="241" d="M-141 1221l184 282h160l184 -282l-61 -39l-203 270l-205 -270zM74 0v1092h94v-1092h-94z" />
<glyph unicode="&#xef;" horiz-adv-x="241" d="M-98 1262q0 31 20.5 51t57.5 24q33 0 55.5 -19.5t22.5 -55.5q0 -31 -20.5 -51.5t-57.5 -24.5q-31 0 -54.5 21.5t-23.5 54.5zM74 0v1092h94v-1092h-94zM189 1262q0 31 19 51t56 24q33 0 56.5 -22.5t23.5 -52.5q0 -31 -20.5 -51.5t-57.5 -24.5q-33 0 -53 21.5t-24 54.5z " />
<glyph unicode="&#xf1;" horiz-adv-x="1058" d="M147 0v1092h97v-152q127 168 311 168q109 0 198 -56.5t122.5 -136t33.5 -186.5v-729h-94v725q0 135 -69.5 213t-198.5 78q-84 0 -153.5 -38t-149.5 -134v-844h-97zM221 1247q104 62 186 62q31 0 105 -19l86 -16l53 -8q57 0 143 55l43 -74q-111 -61 -190 -61h-31 q-25 6 -37 8l-86 18l-86 11q-70 0 -143 -47z" />
<glyph unicode="&#xf2;" horiz-adv-x="1193" d="M94 545q0 129 33 227t106 180q140 156 365 156t362.5 -158.5t137.5 -412.5q0 -240 -139.5 -396.5t-360.5 -156.5q-223 0 -363.5 155.5t-140.5 405.5zM197 545q0 -209 111.5 -342t289.5 -133q176 0 288.5 131t112.5 342q0 109 -26.5 191.5t-87.5 154.5q-113 137 -291 137 q-172 0 -284.5 -135t-112.5 -346zM424 1446l84 51l184 -280l-59 -39z" />
<glyph unicode="&#xf3;" horiz-adv-x="1193" d="M94 545q0 129 33 227t106 180q140 156 365 156t362.5 -158.5t137.5 -412.5q0 -240 -139.5 -396.5t-360.5 -156.5q-223 0 -363.5 155.5t-140.5 405.5zM197 545q0 -209 111.5 -342t289.5 -133q176 0 288.5 131t112.5 342q0 109 -26.5 191.5t-87.5 154.5q-113 137 -291 137 q-172 0 -284.5 -135t-112.5 -346zM522 1221l185 280l83 -51l-206 -268z" />
<glyph unicode="&#xf4;" horiz-adv-x="1193" d="M94 545q0 129 33 227t106 180q140 156 365 156t362.5 -158.5t137.5 -412.5q0 -240 -139.5 -396.5t-360.5 -156.5q-223 0 -363.5 155.5t-140.5 405.5zM197 545q0 -209 111.5 -342t289.5 -133q176 0 288.5 131t112.5 342q0 109 -26.5 191.5t-87.5 154.5q-113 137 -291 137 q-172 0 -284.5 -135t-112.5 -346zM332 1221l184 282h160l184 -282l-61 -39l-203 270l-205 -270z" />
<glyph unicode="&#xf5;" horiz-adv-x="1193" d="M94 545q0 129 33 227t106 180q140 156 365 156t362.5 -158.5t137.5 -412.5q0 -240 -139.5 -396.5t-360.5 -156.5q-223 0 -363.5 155.5t-140.5 405.5zM197 545q0 -209 111.5 -342t289.5 -133q176 0 288.5 131t112.5 342q0 109 -26.5 191.5t-87.5 154.5q-113 137 -291 137 q-172 0 -284.5 -135t-112.5 -346zM289 1247q104 62 186 62q31 0 105 -19l86 -16l53 -8q57 0 143 55l43 -74q-111 -61 -190 -61h-31q-25 6 -37 8l-86 18l-86 11q-70 0 -143 -47z" />
<glyph unicode="&#xf6;" horiz-adv-x="1193" d="M94 545q0 129 33 227t106 180q140 156 365 156t362.5 -158.5t137.5 -412.5q0 -240 -139.5 -396.5t-360.5 -156.5q-223 0 -363.5 155.5t-140.5 405.5zM197 545q0 -209 111.5 -342t289.5 -133q176 0 288.5 131t112.5 342q0 109 -26.5 191.5t-87.5 154.5q-113 137 -291 137 q-172 0 -284.5 -135t-112.5 -346zM375 1313q0 31 22 53q23 19 58 23q31 0 52 -20.5t23 -55.5q0 -29 -22.5 -53.5t-52.5 -24.5q-35 0 -55.5 20.5t-24.5 57.5zM662 1313q0 31 20 51.5t57 24.5q35 0 58 -23q25 -18 24 -53q0 -31 -23.5 -54.5t-58.5 -23.5q-33 0 -55 22 q-18 23 -22 56z" />
<glyph unicode="&#xf7;" horiz-adv-x="1216" d="M88 414v139h948v-139h-948zM446 207q0 49 37 83t80 34q49 0 82 -33t33 -84q0 -49 -35 -82q-31 -35 -80 -35t-84 35q-33 39 -33 82zM446 758q0 49 37 82.5t80 33.5q49 0 82 -35.5t33 -80.5q0 -49 -35 -82q-31 -35 -80 -35t-84 33q-33 37 -33 84z" />
<glyph unicode="&#xf8;" horiz-adv-x="1212" d="M94 57l117 125q-55 96 -81 182.5t-26 188.5q0 240 141.5 398.5t362.5 158.5q121 0 185.5 -31.5t85.5 -52.5l57 -51l117 119l65 -60l-119 -125q109 -162 109 -364q0 -246 -139.5 -403.5t-360.5 -157.5q-106 0 -180 27.5t-158 101.5l-106 -115zM203 547q0 -59 3 -81 t16.5 -75t53.5 -139l605 657q-72 53 -140.5 80t-148.5 27q-158 0 -273.5 -137.5t-115.5 -331.5zM334 184q59 -61 119 -90q59 -25 153 -24q178 0 290 130t112 349q0 111 -16.5 171t-59.5 111z" />
<glyph unicode="&#xf9;" d="M147 344v748h97v-746q0 -125 67.5 -197.5t186.5 -72.5q100 0 172.5 45t142.5 149v822h96v-1092h-96v166q-111 -182 -324 -182q-106 0 -194 55t-118 130t-30 175zM356 1446l84 51l184 -280l-59 -39z" />
<glyph unicode="&#xfa;" d="M147 344v748h97v-746q0 -125 67.5 -197.5t186.5 -72.5q100 0 172.5 45t142.5 149v822h96v-1092h-96v166q-111 -182 -324 -182q-106 0 -194 55t-118 130t-30 175zM454 1221l185 280l83 -51l-206 -268z" />
<glyph unicode="&#xfb;" d="M147 344v748h97v-746q0 -125 67.5 -197.5t186.5 -72.5q100 0 172.5 45t142.5 149v822h96v-1092h-96v166q-111 -182 -324 -182q-106 0 -194 55t-118 130t-30 175zM264 1221l184 282h160l184 -282l-61 -39l-203 270l-205 -270z" />
<glyph unicode="&#xfc;" d="M147 344v748h97v-746q0 -125 67.5 -197.5t186.5 -72.5q100 0 172.5 45t142.5 149v822h96v-1092h-96v166q-111 -182 -324 -182q-106 0 -194 55t-118 130t-30 175zM324 1313q0 31 20 51.5t57 24.5q31 0 54 -23q25 -18 24 -53q0 -31 -20.5 -51.5t-57.5 -24.5q-33 0 -53 21.5 t-24 54.5zM608 1313q0 31 21.5 52.5t54.5 23.5q33 0 55 -23q25 -18 25 -53q0 -31 -20.5 -51.5t-57.5 -24.5q-33 0 -53.5 19.5t-24.5 56.5z" />
<glyph unicode="&#xff;" horiz-adv-x="851" d="M-45 1092h108l351 -693l8 -39l4 -22l2 -14q0 29 4 47t10 30l344 691h111l-799 -1594h-114l397 764zM205 1262q0 31 20.5 51t57.5 24q33 0 55.5 -19.5t22.5 -55.5q0 -31 -20.5 -51.5t-57.5 -24.5q-31 0 -54.5 21.5t-23.5 54.5zM492 1262q0 31 19 51t56 24q33 0 56.5 -22.5 t23.5 -52.5q0 -31 -20.5 -51.5t-57.5 -24.5q-33 0 -53 21.5t-24 54.5z" />
<glyph unicode="&#x152;" horiz-adv-x="1820" d="M94 733q0 315 206 532.5t517 217.5l174 -6h729v-93h-633v-587h625v-95h-625v-608h658v-94h-766l-49 -4l-121 -6q-305 0 -510 211t-205 532zM201 737q0 -279 175 -466t433 -187q88 0 143 18l31 13v1241q-25 12 -72 22l-90 8q-264 0 -442 -186t-178 -463z" />
<glyph unicode="&#x153;" horiz-adv-x="1957" d="M94 545q0 244 141.5 403.5t362.5 159.5q145 0 263 -79t179 -222q57 143 166 222t248 79q182 0 298 -131t116 -340l-2 -53h-772l-2 -45q0 -205 115.5 -334t293.5 -129q47 0 86 6t82 22q76 27 182 105v-107q-168 -119 -364 -118q-156 0 -270.5 83t-169.5 232 q-135 -315 -447 -315q-223 0 -364.5 156.5t-141.5 404.5zM195 547q0 -207 114.5 -340t292.5 -133q174 0 283.5 130t109.5 337q0 215 -109.5 345t-289.5 130q-176 0 -288.5 -131t-112.5 -338zM1100 672h672v33v22q-4 14 -5.5 28.5t-29.5 82.5q-25 68 -105 123t-182 55 q-137 0 -228 -88t-122 -256z" />
<glyph unicode="&#x178;" d="M-59 1477h133l428 -557q18 -18 18 -70q6 49 21 72l444 555h131l-545 -670v-807h-106v809zM307 1719q0 31 20.5 51t57.5 24q33 0 55.5 -19.5t22.5 -55.5q0 -31 -20.5 -51.5t-57.5 -24.5q-31 0 -54.5 21.5t-23.5 54.5zM594 1719q0 31 19 51t56 24q33 0 56.5 -22.5 t23.5 -52.5q0 -31 -20.5 -51.5t-57.5 -24.5q-33 0 -53 21.5t-24 54.5z" />
<glyph unicode="&#x2000;" horiz-adv-x="980" />
<glyph unicode="&#x2001;" horiz-adv-x="1960" />
<glyph unicode="&#x2002;" horiz-adv-x="980" />
<glyph unicode="&#x2003;" horiz-adv-x="1960" />
<glyph unicode="&#x2004;" horiz-adv-x="653" />
<glyph unicode="&#x2005;" horiz-adv-x="490" />
<glyph unicode="&#x2006;" horiz-adv-x="326" />
<glyph unicode="&#x2007;" horiz-adv-x="326" />
<glyph unicode="&#x2008;" horiz-adv-x="245" />
<glyph unicode="&#x2009;" horiz-adv-x="392" />
<glyph unicode="&#x200a;" horiz-adv-x="108" />
<glyph unicode="&#x2010;" horiz-adv-x="706" d="M66 594v86h573v-86h-573z" />
<glyph unicode="&#x2011;" horiz-adv-x="706" d="M66 594v86h573v-86h-573z" />
<glyph unicode="&#x2012;" horiz-adv-x="706" d="M66 594v86h573v-86h-573z" />
<glyph unicode="&#x2013;" d="M31 698v78h991v-78h-991z" />
<glyph unicode="&#x2014;" horiz-adv-x="2039" d="M61 705v65h1917v-65h-1917z" />
<glyph unicode="&#x2018;" horiz-adv-x="354" d="M86 1065q0 96 34 195.5t99 185.5l45 53v-84q-63 -133 -63 -237v-33q6 -23 8 -31q57 -39 57 -78q0 -35 -25.5 -62.5t-58.5 -27.5q-96 0 -96 119z" />
<glyph unicode="&#x2019;" horiz-adv-x="354" d="M88 1409q0 35 25.5 62.5t58.5 27.5q43 0 72 -31q25 -31 24 -86q0 -37 -13 -100t-13 -65q-10 -27 -15 -39q-12 -47 -39 -95l-53 -84l-45 -53v84q31 66 47.5 125t16.5 111q0 29 -9 67q-57 33 -57 76z" />
<glyph unicode="&#x201a;" horiz-adv-x="354" d="M88 72q0 35 25.5 62.5t58.5 27.5q43 0 72 -31q25 -31 24 -86q0 -35 -12 -96.5t-35.5 -135t-85.5 -151.5l-45 -53v84q63 139 64 235v31q-6 25 -9 37q-57 33 -57 76z" />
<glyph unicode="&#x201c;" horiz-adv-x="540" d="M86 1065q0 96 34 195.5t99 185.5l45 53v-84q-63 -133 -63 -237v-33q6 -23 8 -31q57 -39 57 -78q0 -35 -25.5 -62.5t-58.5 -27.5q-96 0 -96 119zM352 1065q0 35 13 96l26 111l39 92q20 37 55 82l19 24l24 29v-84q-12 -29 -23 -61.5t-20.5 -65.5t-13.5 -57.5t-4 -52.5 l6 -64q57 -35 57 -78q0 -35 -25.5 -62.5t-58.5 -27.5q-94 0 -94 119z" />
<glyph unicode="&#x201d;" horiz-adv-x="620" d="M88 1409q0 35 25.5 62.5t58.5 27.5q43 0 72 -31q25 -31 24 -86q0 -37 -13 -100t-13 -65q-10 -27 -15 -39q-12 -47 -39 -95l-53 -84l-45 -53v84q31 66 47.5 125t16.5 111q0 29 -9 67q-57 33 -57 76zM354 1409q0 35 26 62.5t60 27.5q43 0 69 -32.5t26 -84.5 q0 -35 -10.5 -90t-16.5 -77.5t-25 -69.5q-25 -66 -82 -146l-45 -53v84q14 31 25.5 60.5t20 60.5t12.5 56.5t4 58.5l-6 67q-57 35 -58 76z" />
<glyph unicode="&#x201e;" horiz-adv-x="620" d="M88 72q0 35 25.5 62.5t58.5 27.5q43 0 72 -31q25 -31 24 -86q0 -35 -12 -96.5t-35.5 -135t-85.5 -151.5l-45 -53v84q63 139 64 235v31q-6 25 -9 37q-57 33 -57 76zM354 74q0 33 26 60.5t60 27.5q43 0 69 -33t26 -84q0 -35 -13 -102q-4 -23 -9 -47.5t-17.5 -58.5 t-18.5 -48t-24 -45q-23 -45 -43.5 -73.5t-53.5 -61.5v84q14 31 25.5 60.5t20 59t12.5 56.5t4 59l-6 68q-57 35 -58 78z" />
<glyph unicode="&#x2022;" horiz-adv-x="352" d="M88 551q0 35 24.5 63.5t59.5 28.5q37 0 64.5 -26.5t27.5 -65.5q0 -33 -25.5 -58.5t-64.5 -25.5q-29 0 -59 25q-27 27 -27 59z" />
<glyph unicode="&#x2026;" horiz-adv-x="2039" d="M268 70q0 37 24.5 61.5t61.5 24.5t61.5 -26t24.5 -62q0 -31 -25.5 -57.5t-60.5 -26.5q-37 0 -61.5 24.5t-24.5 61.5zM950 70q0 37 24.5 61.5t61.5 24.5t61.5 -26t24.5 -62q0 -31 -25.5 -57.5t-60.5 -26.5q-37 0 -61.5 24.5t-24.5 61.5zM1620 70q0 37 24.5 61.5t61.5 24.5 t61.5 -25t24.5 -61q0 -37 -24.5 -61.5t-61.5 -24.5t-61.5 24.5t-24.5 61.5z" />
<glyph unicode="&#x202f;" horiz-adv-x="392" />
<glyph unicode="&#x2039;" horiz-adv-x="581" d="M74 545l332 547h106l-336 -547l336 -545h-106z" />
<glyph unicode="&#x203a;" horiz-adv-x="583" d="M74 0l327 547l-327 545h110l328 -545l-328 -547h-110z" />
<glyph unicode="&#x205f;" horiz-adv-x="490" />
<glyph unicode="&#x20ac;" horiz-adv-x="1544" d="M59 844h1186l58 114h-1190zM104 631h1051l57 110h-1071zM246 717q0 -334 204.5 -532.5t538.5 -198.5q119 0 233.5 28.5t233.5 85.5v107l-84 -41l-129 -49q-94 -35 -254 -35q-285 0 -459 178q-176 180 -176 465q0 293 181 479q182 188 466 189q115 0 224 -29 q49 -14 88 -30.5t96 -47.5l45 90q-244 117 -463 117q-324 0 -534 -221q-211 -217 -211 -555z" />
<glyph unicode="&#x2122;" horiz-adv-x="1640" d="M113 1389v86h438v-86h-172v-652h-96v652h-170zM526 737l152 764h20l238 -518l14 -29l2 -8q12 -37 13 -67l2 32l12 37l4 10l10 25l240 518h20l152 -764h-100l-80 449l-4 31l-2 34l2 31l-19 -61l-6 -21l-4 -8l-219 -477h-15l-219 477l-4 12l-8 19l-16 59l2 -33v-28l-6 -35 l-80 -449h-101z" />
<glyph unicode="&#xe000;" horiz-adv-x="1095" d="M0 0v1096h1096v-1096h-1096z" />
</font>
</defs>
</svg>
